<?xml version="1.0" encoding="UTF-8"?>
<!DOCTYPE svg PUBLIC "-//W3C//DTD SVG 1.1//EN" "http://www.w3.org/Graphics/SVG/1.1/DTD/svg11.dtd">
<!-- Creator: CorelDRAW -->
<svg xmlns="http://www.w3.org/2000/svg" xml:space="preserve" width="6.5622mm" height="6.459mm" version="1.1" style="shape-rendering:geometricPrecision; text-rendering:geometricPrecision; image-rendering:optimizeQuality; fill-rule:evenodd; clip-rule:evenodd"
viewBox="0 0 5.12 5.04"
 xmlns:xlink="http://www.w3.org/1999/xlink"
 xmlns:xodm="http://www.corel.com/coreldraw/odm/2003">
 <defs>
  <style type="text/css">
   <![CDATA[
    .fil0 {fill:white}
   ]]>
  </style>
 </defs>
 <g id="Capa_x0020_1">
  <metadata id="CorelCorpID_0Corel-Layer"/>
  <path class="fil0" d="M3.75 0.67l0 -0.45c0,-0.03 0.01,-0.06 0.01,-0.08l0 -0c0.01,-0.03 0.03,-0.05 0.05,-0.07 0.02,-0.02 0.05,-0.04 0.07,-0.05 0.02,-0.01 0.06,-0.02 0.08,-0.02 0.03,0 0.06,0.01 0.09,0.02 0.03,0.01 0.05,0.03 0.07,0.05 0.02,0.02 0.04,0.05 0.05,0.07 0.01,0.03 0.02,0.06 0.02,0.08l0 0.45 0.61 0c0.04,0 0.09,0.01 0.12,0.03 0.04,0.02 0.07,0.04 0.1,0.07 0.03,0.03 0.06,0.07 0.07,0.11 0.02,0.04 0.02,0.08 0.02,0.12l0 3.71c0,0.04 -0.01,0.09 -0.02,0.12 -0.02,0.04 -0.04,0.08 -0.07,0.11 -0.03,0.03 -0.06,0.06 -0.11,0.07 -0.04,0.02 -0.08,0.02 -0.12,0.02l-4.47 0c-0.04,0 -0.09,-0.01 -0.13,-0.02 -0.04,-0.02 -0.08,-0.04 -0.11,-0.07 -0.03,-0.03 -0.06,-0.06 -0.07,-0.11 -0.02,-0.04 -0.02,-0.08 -0.02,-0.12l0 -3.71c0,-0.04 0.01,-0.09 0.02,-0.12 0.02,-0.04 0.04,-0.08 0.07,-0.11 0.03,-0.03 0.07,-0.05 0.1,-0.07 0.04,-0.02 0.08,-0.03 0.13,-0.03l0.6 0 0 -0.45c0,-0.03 0.01,-0.06 0.02,-0.09 0.01,-0.03 0.03,-0.05 0.05,-0.07 0.02,-0.02 0.05,-0.04 0.07,-0.05 0.03,-0.01 0.06,-0.02 0.09,-0.02 0.03,0 0.06,0.01 0.09,0.02 0.03,0.01 0.05,0.03 0.07,0.05 0.02,0.02 0.04,0.05 0.05,0.07l0 0c0.01,0.03 0.01,0.05 0.01,0.08l0 0.45 2.37 0zm1.24 0.91l-4.85 0 0 3.13c0,0.02 0,0.05 0.01,0.07 0.01,0.02 0.03,0.05 0.04,0.06 0.02,0.02 0.04,0.03 0.06,0.04 0.02,0.01 0.05,0.01 0.07,0.01l4.47 0c0.02,0 0.05,-0 0.07,-0.01 0.02,-0.01 0.04,-0.02 0.06,-0.04 0.02,-0.02 0.03,-0.04 0.04,-0.06 0.01,-0.02 0.01,-0.05 0.01,-0.07l0 -3.13zm-0.68 1.36c-0.02,0.02 -0.05,0.03 -0.07,0.03l-0.7 0c-0.03,0 -0.06,-0.01 -0.08,-0.03 -0.02,-0.02 -0.03,-0.05 -0.03,-0.08l0 -0.67c0,-0.03 0.01,-0.05 0.03,-0.07l0 -0 0 -0c0.02,-0.02 0.05,-0.03 0.07,-0.03l0.7 0c0.03,0 0.05,0.01 0.07,0.03l0 0c0.02,0.02 0.03,0.05 0.03,0.08l0 0.67c0,0.03 -0.01,0.06 -0.03,0.08zm-3.41 0.24l0.7 0c0.03,0 0.06,0.01 0.08,0.03l0 0c0.02,0.02 0.03,0.05 0.03,0.08l0 0.67c0,0.03 -0.01,0.06 -0.03,0.08 -0.02,0.02 -0.05,0.03 -0.08,0.03l-0.7 0c-0.03,0 -0.06,-0.01 -0.08,-0.03 -0.02,-0.02 -0.03,-0.05 -0.03,-0.08l0 -0.67c0,-0.03 0.01,-0.05 0.03,-0.07l0 -0c0.02,-0.02 0.05,-0.03 0.08,-0.03zm2.1 0.03c0.02,0.02 0.03,0.05 0.03,0.08l0 0.67c0,0.03 -0.01,0.06 -0.03,0.08 -0.02,0.02 -0.05,0.03 -0.08,0.03l-0.7 0c-0.03,0 -0.05,-0.01 -0.07,-0.03 -0.02,-0.02 -0.03,-0.05 -0.03,-0.08l0 -0.67c0,-0.03 0.01,-0.06 0.03,-0.08 0.02,-0.02 0.05,-0.03 0.08,-0.03l0.7 0c0.03,0 0.06,0.01 0.08,0.03zm1.32 0.82c-0.02,0.02 -0.05,0.03 -0.07,0.03l-0.7 0c-0.03,0 -0.06,-0.01 -0.08,-0.03 -0.02,-0.02 -0.03,-0.05 -0.03,-0.08l0 -0.67c0,-0.03 0.01,-0.05 0.03,-0.07l0 -0c0.02,-0.02 0.05,-0.03 0.08,-0.03l0.7 0c0.03,0 0.05,0.01 0.08,0.03 0.02,0.02 0.03,0.05 0.03,0.08l0 0.67c0,0.03 -0.01,0.06 -0.03,0.08zm-1.32 -1.09c-0.02,0.02 -0.05,0.03 -0.08,0.03l-0.7 0c-0.03,0 -0.05,-0.01 -0.07,-0.03 -0.02,-0.02 -0.03,-0.05 -0.03,-0.08l0 -0.67c0,-0.03 0.01,-0.06 0.03,-0.08l0 -0c0.02,-0.02 0.05,-0.03 0.07,-0.03l0.7 0c0.03,0 0.06,0.01 0.08,0.03 0.02,0.02 0.03,0.05 0.03,0.08l0 0.67c0,0.03 -0.01,0.06 -0.03,0.07zm-2.21 -0.07l0 -0.67c0,-0.03 0.01,-0.05 0.03,-0.07l0.01 -0.01c0.02,-0.02 0.05,-0.03 0.07,-0.03l0.7 0c0.03,0 0.05,0.01 0.07,0.03l0 0 0 0c0.02,0.02 0.03,0.05 0.03,0.07l0 0.67c0,0.03 -0.01,0.06 -0.03,0.08 -0.02,0.02 -0.05,0.03 -0.08,0.03l-0.7 0c-0.03,0 -0.05,-0.01 -0.07,-0.03l-0 -0 -0 -0c-0.02,-0.02 -0.03,-0.05 -0.03,-0.07zm3.43 -0.64l-0.65 -0.01 -0 0.62 0.65 0 0.01 -0.61zm-3.29 1.08l-0 0.62 0.65 0.01 0.01 -0.62 -0.66 -0.01zm1.32 0.62l0.64 0 0 -0.62 -0.64 0 0 0.61zm1.32 -0.62l0 0.62 0.65 -0 0.01 -0.61 -0 -0 0 -0 0 -0 -0.65 -0zm-1.32 -0.47l0.65 0 -0 -0.61 -0.64 0 0 0.61zm-0.66 -0.61l-0.66 -0.01 -0.01 0.62 0.66 0.01 0.01 -0.62zm-1.44 -0.86l4.85 0 0 -0.37c0,-0.03 -0.01,-0.05 -0.01,-0.07 -0.01,-0.02 -0.02,-0.04 -0.04,-0.06 -0.02,-0.02 -0.04,-0.03 -0.06,-0.04 -0.02,-0.01 -0.05,-0.01 -0.07,-0.01l-0.53 0 0 0.02c0,0.04 -0.01,0.08 -0.02,0.12 -0.02,0.04 -0.04,0.07 -0.07,0.1 -0.03,0.03 -0.06,0.05 -0.1,0.07 -0.04,0.02 -0.07,0.02 -0.11,0.02 -0.04,0 -0.08,-0.01 -0.12,-0.02 -0.04,-0.01 -0.07,-0.04 -0.1,-0.07 -0.03,-0.03 -0.05,-0.06 -0.07,-0.1 -0.02,-0.03 -0.02,-0.08 -0.02,-0.12l0 -0.02 -2.21 0 0 0.02c0,0.04 -0.01,0.08 -0.02,0.12 -0.01,0.04 -0.04,0.07 -0.07,0.1 -0.03,0.03 -0.06,0.05 -0.1,0.06 -0.04,0.02 -0.08,0.02 -0.12,0.02 -0.04,0 -0.08,-0.01 -0.11,-0.02 -0.04,-0.01 -0.07,-0.04 -0.1,-0.07 -0.03,-0.03 -0.05,-0.06 -0.07,-0.1 -0.01,-0.04 -0.02,-0.08 -0.02,-0.12l0 -0.02 -0.53 0c-0.02,0 -0.05,0.01 -0.07,0.01 -0.02,0.01 -0.04,0.02 -0.06,0.04 -0.02,0.02 -0.03,0.04 -0.04,0.06 -0.01,0.02 -0.01,0.05 -0.01,0.07l0 0.37zm1.08 -0.47c0.01,-0.01 0.01,-0.02 0.02,-0.03 0,-0.01 0.01,-0.02 0.01,-0.03l0 -0.61c0,-0.01 -0,-0.02 -0.01,-0.03 -0,-0.01 -0.01,-0.02 -0.02,-0.03 -0.01,-0.01 -0.02,-0.02 -0.03,-0.02 -0.01,-0 -0.02,-0.01 -0.03,-0.01 -0.01,0 -0.02,0 -0.03,0 -0.01,0 -0.02,0.01 -0.03,0.02l-0 0c-0.01,0.01 -0.01,0.02 -0.02,0.03 -0,0.01 -0.01,0.02 -0.01,0.03l0 0.61c0,0.01 0,0.02 0.01,0.03 0,0.01 0.01,0.02 0.02,0.03 0.01,0.01 0.02,0.01 0.03,0.02l0 0c0.01,0 0.02,0.01 0.03,0.01 0.01,0 0.02,-0 0.03,-0.01 0.01,-0 0.02,-0.01 0.03,-0.02zm2.69 -0c0.01,0.01 0.02,0.01 0.03,0.02 0.01,0 0.02,0.01 0.03,0.01 0.01,0 0.02,-0 0.03,-0.01 0.01,-0 0.02,-0.01 0.03,-0.02 0.01,-0.01 0.01,-0.02 0.02,-0.03 0,-0.01 0.01,-0.02 0.01,-0.03l0 -0.61c0,-0.01 -0,-0.02 -0.01,-0.03 -0,-0.01 -0.01,-0.02 -0.02,-0.03l-0 -0c-0.01,-0.01 -0.02,-0.02 -0.03,-0.02 -0.01,-0 -0.02,-0.01 -0.03,-0.01 -0.01,0 -0.02,0 -0.03,0.01 -0.01,0 -0.02,0.01 -0.03,0.02 -0.01,0.01 -0.01,0.02 -0.02,0.03 -0,0.01 -0.01,0.02 -0.01,0.03l0 0.61c0,0.01 0,0.02 0.01,0.03 0,0.01 0.01,0.02 0.02,0.03z"/>
 </g>
</svg>
