<?xml version="1.0" encoding="UTF-8"?>
<!DOCTYPE svg PUBLIC "-//W3C//DTD SVG 1.1//EN" "http://www.w3.org/Graphics/SVG/1.1/DTD/svg11.dtd">
<!-- Creator: CorelDRAW -->
<svg xmlns="http://www.w3.org/2000/svg" xml:space="preserve" width="10.5821mm" height="10.582mm" version="1.1" style="shape-rendering:geometricPrecision; text-rendering:geometricPrecision; image-rendering:optimizeQuality; fill-rule:evenodd; clip-rule:evenodd"
viewBox="0 0 8.68 8.68"
 xmlns:xlink="http://www.w3.org/1999/xlink"
 xmlns:xodm="http://www.corel.com/coreldraw/odm/2003">
 <defs>
  <style type="text/css">
   <![CDATA[
    .fil0 {fill:#50B17E;fill-rule:nonzero}
    .fil1 {fill:white;fill-rule:nonzero}
   ]]>
  </style>
 </defs>
 <g id="Capa_x0020_1">
  <metadata id="CorelCorpID_0Corel-Layer"/>
  <path class="fil0" d="M8.68 4.34c0,2.4 -1.94,4.34 -4.34,4.34 -2.4,0 -4.34,-1.94 -4.34,-4.34 0,-2.4 1.94,-4.34 4.34,-4.34 2.4,0 4.34,1.94 4.34,4.34z"/>
  <path class="fil1" d="M4.49 4.09c-0.29,0 -0.52,-0.23 -0.52,-0.52l0 -0.04c0.05,-0.02 0.1,-0.05 0.15,-0.09 0.03,-0.03 0.03,-0.08 0,-0.11 -0.03,-0.03 -0.08,-0.03 -0.11,-0 -0.04,0.04 -0.08,0.06 -0.12,0.07 -0,0 -0,0 -0,0 -0,-0 -0,-0 -0,-0.01l0 -0.16c0,-0.29 0.23,-0.52 0.52,-0.52l0.17 0c0.29,0 0.52,0.23 0.52,0.52l0 0.02c0,0 -0,0 -0,0.01 -0.48,0.09 -0.72,-0.08 -0.8,-0.17 -0.03,-0.03 -0.08,-0.03 -0.11,0 -0.03,0.03 -0.03,0.08 0,0.11 0.25,0.25 0.61,0.25 0.83,0.23l0 0.15c0,0.29 -0.23,0.52 -0.52,0.52zm0 0.57l-0.3 -0.3c0.02,-0.04 0.04,-0.08 0.04,-0.13l0 -0.03c0.08,0.03 0.17,0.05 0.26,0.05 0.09,0 0.18,-0.02 0.26,-0.05l0 0.03c0,0.05 0.01,0.09 0.04,0.13l-0.3 0.3zm0.94 -0.14l-0.47 -0.21c-0.03,-0.01 -0.05,-0.05 -0.05,-0.08l0 -0.13c0.16,-0.12 0.26,-0.32 0.26,-0.53l0 -0.18c0.05,-0.03 0.09,-0.08 0.09,-0.15l0 -0.02c0,-0.38 -0.31,-0.68 -0.68,-0.68l-0.17 0c-0.38,0 -0.68,0.31 -0.68,0.68l0 0.16c0,0.05 0.02,0.1 0.06,0.13 0.01,0.01 0.01,0.01 0.02,0.01l0 0.04c0,0.22 0.1,0.41 0.26,0.53l0 0.13c0,0.04 -0.02,0.07 -0.05,0.08l-0.47 0.21c-0.15,0.07 -0.25,0.22 -0.25,0.39l0 1.06c0,0.04 0.04,0.08 0.08,0.08 0.04,0 0.08,-0.04 0.08,-0.08l0 -1.06c0,-0.01 0,-0.02 0,-0.03l0.21 0.21c0.03,0.03 0.05,0.08 0.05,0.13l0 0.75c0,0.04 0.04,0.08 0.08,0.08 0.04,0 0.08,-0.04 0.08,-0.08l0 -0.75c0,-0.09 -0.04,-0.17 -0.1,-0.24l-0.26 -0.26c0.02,-0.02 0.05,-0.04 0.08,-0.06l0.46 -0.2 0.34 0.34 0 1.17c0,0.04 0.04,0.08 0.08,0.08 0.04,0 0.08,-0.04 0.08,-0.08l0 -1.17 0.34 -0.34 0.46 0.2c0.03,0.01 0.06,0.03 0.08,0.06l-0.26 0.26c-0.06,0.06 -0.1,0.15 -0.1,0.24l0 0.75c0,0.04 0.04,0.08 0.08,0.08 0.04,0 0.08,-0.04 0.08,-0.08l0 -0.75c0,-0.05 0.02,-0.09 0.05,-0.13l0.21 -0.21c0,0.01 0,0.02 0,0.03l0 1.06c0,0.04 0.04,0.08 0.08,0.08 0.04,0 0.08,-0.04 0.08,-0.08l0 -1.06c0,-0.17 -0.1,-0.32 -0.25,-0.39z"/>
  <path class="fil1" d="M2.61 4.52c-0.24,0 -0.43,-0.19 -0.43,-0.43l0 -0.02c0.06,-0.01 0.16,-0.05 0.26,-0.13 0.04,0.03 0.09,0.07 0.15,0.11 0.08,0.04 0.18,0.08 0.31,0.08 0.05,0 0.1,-0.01 0.15,-0.02 -0.01,0.23 -0.2,0.41 -0.43,0.41zm0 0.48l-0.19 -0.19c0.01,-0.02 0.01,-0.04 0.01,-0.06l0 -0.1c0.06,0.02 0.12,0.03 0.18,0.03 0.06,0 0.12,-0.01 0.18,-0.03l0 0.1c0,0.02 0,0.04 0.01,0.06l-0.19 0.19zm0 -1.52c0.24,0 0.43,0.19 0.43,0.43l0 0.03c-0.33,0.1 -0.53,-0.15 -0.54,-0.16 -0.01,-0.02 -0.04,-0.03 -0.06,-0.03 -0.02,-0 -0.05,0.01 -0.06,0.02 -0.08,0.08 -0.15,0.11 -0.21,0.13 0.01,-0.23 0.2,-0.42 0.43,-0.42zm0 -0.34c0.1,0 0.18,0.08 0.18,0.18 0,0.01 -0,0.02 -0,0.03 -0.06,-0.02 -0.11,-0.03 -0.17,-0.03 -0.06,0 -0.12,0.01 -0.17,0.03 -0,-0.01 -0,-0.02 -0,-0.03 0,-0.1 0.08,-0.18 0.18,-0.18zm0.59 0.95l0 -0.17c0,-0.21 -0.11,-0.39 -0.27,-0.5 0.01,-0.03 0.02,-0.07 0.02,-0.1 0,-0.19 -0.15,-0.34 -0.34,-0.34 -0.19,0 -0.34,0.15 -0.34,0.34 0,0.03 0.01,0.07 0.02,0.1 -0.16,0.11 -0.27,0.29 -0.27,0.5l0 0.17c0,0.2 0.1,0.38 0.26,0.49l0 0.18c0,0.03 -0.02,0.07 -0.05,0.08l-0.28 0.14c-0.12,0.06 -0.19,0.17 -0.19,0.3l0 0.7c0,0.04 0.04,0.08 0.08,0.08 0.04,0 0.08,-0.04 0.08,-0.08l0 -0.66 0.13 0.13c0.03,0.03 0.05,0.08 0.05,0.13l0 0.41c0,0.04 0.04,0.08 0.08,0.08 0.04,0 0.08,-0.04 0.08,-0.08l0 -0.41c0,-0.09 -0.04,-0.17 -0.1,-0.24l-0.18 -0.18c-0,-0 -0,-0 -0,-0 0.01,-0.01 0.02,-0.02 0.04,-0.03l0.28 -0.14c0.01,-0.01 0.03,-0.02 0.04,-0.02l0.2 0.2 0 0.82c0,0.04 0.04,0.08 0.08,0.08 0.04,0 0.08,-0.04 0.08,-0.08l0 -0.82 0.2 -0.2c0.01,0.01 0.03,0.02 0.04,0.02l0.08 0.04c0.01,0.01 0.02,0.01 0.04,0.01 0.03,0 0.06,-0.02 0.07,-0.04 0.02,-0.04 0,-0.09 -0.04,-0.11l-0.08 -0.04c-0.03,-0.02 -0.05,-0.05 -0.05,-0.08l0 -0.18c0.16,-0.11 0.26,-0.29 0.26,-0.49z"/>
  <path class="fil1" d="M6.21 4.34c-0.19,0 -0.35,-0.16 -0.35,-0.35l0 -0.13c0.06,-0.02 0.12,-0.06 0.19,-0.11 0.08,0.04 0.26,0.12 0.51,0.14l0 0.1c0,0.19 -0.16,0.35 -0.35,0.35zm0 0.4l-0.19 -0.19c0.01,-0.02 0.01,-0.04 0.01,-0.06l0 -0.02c0.06,0.02 0.11,0.03 0.18,0.03 0.06,0 0.12,-0.01 0.18,-0.03l0 0.02c0,0.02 0,0.04 0.01,0.06l-0.19 0.19zm-0.43 -1.01l0 -0.07 0 0c0,-0.19 0.16,-0.35 0.35,-0.35l0.17 0c0.19,0 0.35,0.16 0.35,0.35l0 0.09c-0.35,-0.02 -0.56,-0.15 -0.56,-0.16 -0.01,-0.01 -0.03,-0.01 -0.04,-0.01 -0.02,0 -0.04,0.01 -0.06,0.02 -0.08,0.08 -0.15,0.11 -0.21,0.13zm1.27 1.07l-0.45 -0.22c-0.03,-0.02 -0.05,-0.05 -0.05,-0.08l0 -0.11c0.11,-0.09 0.17,-0.23 0.17,-0.38l0 -0.09c0,0 0,0 0.01,0 0.04,0 0.08,-0.04 0.08,-0.08l0 -0.17c0,-0.28 -0.23,-0.51 -0.51,-0.51l-0.17 0c-0.28,0 -0.51,0.23 -0.51,0.51l0 0.17c0,0.04 0.04,0.08 0.08,0.08 0,0 0,0 0.01,-0l0 0.09c0,0.15 0.07,0.29 0.17,0.38l0 0.11c0,0.03 -0.02,0.07 -0.05,0.08 -0.04,0.02 -0.06,0.07 -0.04,0.11 0.01,0.03 0.04,0.04 0.07,0.04 0.01,0 0.02,-0 0.04,-0.01 0.01,-0.01 0.03,-0.02 0.04,-0.02l0.2 0.2 0 1.08c0,0.04 0.04,0.08 0.08,0.08 0.04,0 0.08,-0.04 0.08,-0.08l0 -1.08 0.2 -0.2c0.01,0.01 0.03,0.02 0.04,0.02l0.43 0.22 -0.13 0.13c-0.06,0.06 -0.1,0.15 -0.1,0.24l0 0.67c0,0.04 0.04,0.08 0.08,0.08 0.04,0 0.08,-0.04 0.08,-0.08l0 -0.67c0,-0.05 0.02,-0.09 0.05,-0.13l0.12 -0.12c0,0.01 0.01,0.03 0.01,0.05l0 0.87c0,0.04 0.04,0.08 0.08,0.08 0.04,0 0.08,-0.04 0.08,-0.08l0 -0.87c0,-0.13 -0.07,-0.24 -0.19,-0.3z"/>
 </g>
</svg>
