<?xml version="1.0" encoding="UTF-8"?>
<!DOCTYPE svg PUBLIC "-//W3C//DTD SVG 1.1//EN" "http://www.w3.org/Graphics/SVG/1.1/DTD/svg11.dtd">
<!-- Creator: CorelDRAW -->
<svg xmlns="http://www.w3.org/2000/svg" xml:space="preserve" width="10.6843mm" height="10.0498mm" version="1.1" style="shape-rendering:geometricPrecision; text-rendering:geometricPrecision; image-rendering:optimizeQuality; fill-rule:evenodd; clip-rule:evenodd"
viewBox="0 0 10.01 9.41"
 xmlns:xlink="http://www.w3.org/1999/xlink"
 xmlns:xodm="http://www.corel.com/coreldraw/odm/2003">
 <defs>
  <style type="text/css">
   <![CDATA[
    .fil1 {fill:#082F23;fill-rule:nonzero}
    .fil0 {fill:#66BB8E;fill-rule:nonzero}
   ]]>
  </style>
 </defs>
 <g id="Capa_x0020_1">
  <metadata id="CorelCorpID_0Corel-Layer"/>
  <g id="_2031432498464">
   <g>
    <path class="fil0" d="M1.2 9.13c0.03,-0.02 0.06,-0.03 0.1,-0.05 -0.04,-0.02 -0.09,-0.05 -0.16,-0.1 -0.06,-0.03 0.01,0.07 0.07,0.15z"/>
    <path class="fil0" d="M1.39 9.03c0.01,-0 0.01,-0.01 0.02,-0.01 -0.01,-0.02 -0.01,-0.03 -0.02,-0.05 0,0.02 0,0.04 0,0.05z"/>
    <path class="fil0" d="M1.44 8.81c-0.04,0 -0.06,0.03 -0.06,0.08 0.05,0.01 0.07,-0.01 0.06,-0.08z"/>
    <path class="fil0" d="M1.25 8.81c0.06,0.05 0.12,0.11 0.14,0.16 0,0 0,0 0,0 -0,-0.03 -0.01,-0.06 -0,-0.09 -0.04,-0.01 -0.08,-0.04 -0.14,-0.08z"/>
    <path class="fil0" d="M1.25 8.81c-0.06,-0.05 -0.12,-0.09 -0.15,-0.12 0.05,0.04 0.1,0.08 0.15,0.12z"/>
    <path class="fil0" d="M0.07 7.41c-0.02,-0.06 0.32,0.34 0.27,0.22 -0.03,-0.17 -0.13,-0.39 -0.07,-0.45 -0.05,-0.11 0.38,0.28 0.33,0.17 -0.03,-0.17 -0.33,-0.84 -0.4,-0.73 -0.1,0.19 -0.1,0.38 -0.17,0.57 0.03,0.25 0.09,0.53 0.11,0.77 -0.01,0.05 -0.07,0.04 -0.12,0.04 0.09,0.03 0.18,0.05 0.28,0.07 0.15,0.06 -0.22,-0.5 -0.21,-0.67z"/>
    <path class="fil0" d="M0.4 9.41c-0.03,-0.06 -0.07,-0.17 -0.07,-0.17 0.31,0.23 0.28,0.06 0.25,-0.11 -0.07,-0.06 -0.13,-0.11 -0.2,-0.17 -0.02,0.06 0.07,0.17 0.18,0.22 -0.28,-0.17 -0.39,-0.14 -0.43,-0.04 0.1,0.1 0.2,0.22 0.27,0.26z"/>
    <path class="fil0" d="M0.12 9.22c0,-0.03 0.01,-0.05 0.01,-0.07 -0.01,-0.01 -0.02,-0.02 -0.03,-0.03 0,0.03 0.01,0.06 0.01,0.09 0,0 0.01,0.01 0.01,0.01z"/>
    <path class="fil0" d="M1.42 8.19c0.17,-0.18 0.36,-0.31 0.57,-0.43 -0.05,-0.09 -0.12,-0.18 -0.06,-0.15 0.07,0.06 0.12,0.09 0.16,0.1 0.03,-0.02 0.06,-0.03 0.09,-0.05 0,-0.02 0,-0.03 -0,-0.05 -0,-0 -0,-0 -0,-0 -0.03,-0.06 -0.08,-0.11 -0.14,-0.16 -0.05,-0.03 -0.1,-0.07 -0.15,-0.12 0.03,0.03 0.09,0.07 0.15,0.12 0.06,0.04 0.1,0.07 0.14,0.07 0,-0.04 0.01,-0.08 0.06,-0.08 0.01,0.07 -0.01,0.09 -0.06,0.08 -0,0.03 0,0.06 0.01,0.09 0.01,0.02 0.01,0.03 0.02,0.05 0.07,-0.03 0.14,-0.06 0.22,-0.09 0,-0.02 0.01,-0.04 0.01,-0.06 -0.01,-0.09 -0.01,-0.18 0.18,-0.01 0.01,-0.01 0.03,-0.01 0.04,-0.01 -0.01,-0.01 -0.02,-0.02 -0.04,-0.03 0.01,0.01 0.03,0.02 0.04,0.03 0.06,-0.02 0.11,-0.04 0.17,-0.06 -0.04,-0.1 -0.09,-0.22 -0.11,-0.3 0,0 0.13,0.11 0.2,0.17 -0.07,-0.11 -0.11,-0.19 -0.12,-0.24 -0.13,-0.1 -0.26,-0.21 -0.35,-0.27 -0.2,-0.17 0.28,0.45 -0.08,0.11 0.36,0.34 -0.12,-0.28 0.08,-0.11 0.09,0.06 0.22,0.17 0.35,0.27 -0.02,-0.11 0.09,-0.08 0.3,0.07 0.09,0.21 -0.09,0.09 -0.3,-0.07 0.01,0.05 0.05,0.13 0.12,0.24 -0.07,-0.06 -0.2,-0.17 -0.2,-0.17 0.02,0.08 0.07,0.2 0.11,0.3 0.11,-0.04 0.23,-0.08 0.34,-0.13 0.78,-0.24 1.25,-0.74 1.99,-1.07 0.41,-0.16 0.86,-0.26 1.36,-0.3 0.99,-0.07 1.06,-1.06 2.52,-0.6 0.53,0.14 0.79,-0.42 0.97,-0.65 -0.28,-0.91 -1.91,-2.44 -2,-2.52 -1.44,-1.26 -0.88,-0.35 -1.99,-0.86 0.67,0.25 0.63,1.08 -0.47,0.31 -1.66,-1.18 -1.09,0.44 -1.85,0.43 -0.19,-0 -0.24,0.16 -0.4,0.25 -1.1,0.07 -1.15,1.24 -1.95,1.74 -0.18,0.17 -0.02,0.67 0,1 -0.05,0.17 -0.34,0.08 -0.43,0.16 -0.14,0.13 -0.14,0.38 -0.11,0.65 0.07,-0.19 0.07,-0.38 0.17,-0.57 0.08,-0.11 0.37,0.56 0.4,0.73 0.05,0.11 -0.38,-0.28 -0.33,-0.17 -0.06,0.05 0.04,0.28 0.07,0.45 0.05,0.11 -0.29,-0.28 -0.27,-0.23 -0.01,0.17 0.36,0.73 0.21,0.67 -0.09,-0.02 -0.19,-0.05 -0.28,-0.07 -0.04,-0 -0.08,0 -0.09,0.04 0.01,0.05 0.03,0.09 0.04,0.14 0.12,0.11 0.25,0.25 0.39,0.39 -0.04,-0 -0.15,-0.06 -0.19,-0.06 0.04,0 0.15,0.06 0.19,0.06 -0.13,-0.14 -0.27,-0.28 -0.39,-0.39 0.09,0.33 0.13,0.66 0.16,0.93 0.01,0.01 0.02,0.02 0.03,0.03 0.04,-0.1 0.14,-0.13 0.43,0.04 -0.11,-0.06 -0.2,-0.17 -0.18,-0.22 0.07,0.06 0.13,0.11 0.2,0.17 0.03,0.17 0.06,0.33 -0.25,0.11 0,0 0.05,0.11 0.07,0.17 -0.07,-0.04 -0.18,-0.16 -0.27,-0.26 -0.01,0.02 -0.01,0.04 -0.02,0.07 0.2,0.17 0.52,0.33 0.52,0.33z"/>
    <path class="fil0" d="M2.18 7.54c0,0.02 -0,0.04 -0.01,0.06 0.06,-0.02 0.13,-0.05 0.19,-0.07 -0.19,-0.17 -0.19,-0.08 -0.18,0.01z"/>
   </g>
  </g>
  <path class="fil1" d="M6.93 3.66c-0.03,0.03 -0.03,0.09 0,0.12l0.95 0.95 -2.49 0 0.64 -0.64c0,-0 0.01,-0.01 0.01,-0.01 0,-0 0,-0 0,-0.01 0,-0 0,-0.01 0,-0.01 0,-0 0,-0.01 0,-0.01 0,-0 0,-0.01 0,-0.01 0,-0.01 0,-0.01 0,-0.02l0 -1.38 1.88 0 -1 1zm-1.17 0.46l-0.49 0.49 0 -0.49 0.49 0zm-2.27 -2.26l2.4 0 0 2.08 -2.4 0 0 -2.08zm-0.38 -1.4c0,-0.16 0.13,-0.29 0.3,-0.29 0.16,0 0.29,0.13 0.29,0.3 -0,0.16 -0.13,0.29 -0.29,0.29 -0.16,-0 -0.29,-0.13 -0.29,-0.29l0 -0zm1.53 7.88l0 0.17 -2.48 0 0 -0.17c0,-0.28 0.22,-0.5 0.5,-0.5l1.48 0c0.28,0 0.5,0.22 0.5,0.5zm3.57 -5.84c-0.02,-0.02 -0.04,-0.03 -0.07,-0.03l-2.08 0 0 -0.7c0,-0.05 -0.04,-0.09 -0.09,-0.09l-2.48 0 0 -0.76c0.25,-0.05 0.42,-0.29 0.37,-0.55 -0.05,-0.25 -0.29,-0.42 -0.55,-0.37 -0.25,0.05 -0.42,0.29 -0.37,0.55 0.04,0.19 0.18,0.34 0.37,0.37l0 6.75 -0.65 0c-0.37,0 -0.68,0.3 -0.68,0.68l0 0.26c0,0.05 0.04,0.09 0.09,0.09l2.65 0c0.05,0 0.09,-0.04 0.09,-0.09l0 -0.26c0,-0.37 -0.3,-0.68 -0.68,-0.68l-0.65 0 0 -3.56 1.61 0 0 0.67c0,0.07 0.05,0.12 0.12,0.12l2.88 0c0.03,0 0.05,-0.01 0.07,-0.03 0.03,-0.03 0.03,-0.09 -0,-0.12l-1.04 -1.04 1.09 -1.09c0.03,-0.03 0.03,-0.09 0,-0.12z"/>
 </g>
</svg>
