<?xml version="1.0" encoding="UTF-8"?>
<!DOCTYPE svg PUBLIC "-//W3C//DTD SVG 1.1//EN" "http://www.w3.org/Graphics/SVG/1.1/DTD/svg11.dtd">
<!-- Creator: CorelDRAW -->
<svg xmlns="http://www.w3.org/2000/svg" xml:space="preserve" width="10.582mm" height="10.582mm" version="1.1" style="shape-rendering:geometricPrecision; text-rendering:geometricPrecision; image-rendering:optimizeQuality; fill-rule:evenodd; clip-rule:evenodd"
viewBox="0 0 9.56 9.56"
 xmlns:xlink="http://www.w3.org/1999/xlink"
 xmlns:xodm="http://www.corel.com/coreldraw/odm/2003">
 <defs>
  <style type="text/css">
   <![CDATA[
    .fil0 {fill:#50B17E;fill-rule:nonzero}
    .fil1 {fill:white;fill-rule:nonzero}
   ]]>
  </style>
 </defs>
 <g id="Capa_x0020_1">
  <metadata id="CorelCorpID_0Corel-Layer"/>
  <path class="fil0" d="M9.56 4.78c0,2.64 -2.14,4.78 -4.78,4.78 -2.64,0 -4.78,-2.14 -4.78,-4.78 0,-2.64 2.14,-4.78 4.78,-4.78 2.64,0 4.78,2.14 4.78,4.78z"/>
  <path class="fil1" d="M5.52 4.51l1.8 0c0.09,0 0.16,-0.07 0.16,-0.16l0 -0.83c0,-0.09 -0.07,-0.16 -0.16,-0.16l-1.28 0c-0.09,0 -0.16,0.07 -0.16,0.16l0 0.62c0,0.02 -0.01,0.05 -0.03,0.06l-0.33 0.3zm1.8 0.17l-2.02 0c-0.04,0 -0.07,-0.02 -0.08,-0.06 -0.01,-0.03 -0,-0.07 0.02,-0.09l0.47 -0.43 0 -0.58c0,-0.18 0.15,-0.33 0.33,-0.33l1.28 0c0.18,0 0.33,0.15 0.33,0.33l0 0.83c0,0.18 -0.15,0.33 -0.33,0.33z"/>
  <path class="fil1" d="M4.7 3.13l-0.2 0c-0.05,0 -0.09,-0.04 -0.09,-0.09 0,-0.05 0.04,-0.09 0.09,-0.09l0.2 0c0.05,0 0.09,0.04 0.09,0.09 0,0.05 -0.04,0.09 -0.09,0.09z"/>
  <path class="fil1" d="M7 6.86l-4.79 0c-0.2,0 -0.37,-0.17 -0.37,-0.37l0 -0.18c0,-0.05 0.04,-0.09 0.09,-0.09l2.49 0c0.05,0 0.09,0.04 0.09,0.09 0,0.05 -0.04,0.09 -0.09,0.09l-2.4 0 0 0.09c0,0.11 0.09,0.2 0.2,0.2l4.79 0c0.11,0 0.2,-0.09 0.2,-0.2l0 -0.09 -2.4 0c-0.05,0 -0.09,-0.04 -0.09,-0.09 0,-0.05 0.04,-0.09 0.09,-0.09l2.49 0c0.05,0 0.09,0.04 0.09,0.09l0 0.18c0,0.2 -0.17,0.37 -0.37,0.37z"/>
  <path class="fil1" d="M4.41 6.4l-2.2 0c-0.05,0 -0.09,-0.04 -0.09,-0.09l0 -3.31c0,-0.2 0.17,-0.37 0.37,-0.37l4.21 0c0.21,0 0.37,0.17 0.37,0.37l0 0.28c0,0.05 -0.04,0.09 -0.09,0.09 -0.05,0 -0.09,-0.04 -0.09,-0.09l0 -0.28c0,-0.11 -0.09,-0.2 -0.2,-0.2l-4.21 0c-0.11,0 -0.2,0.09 -0.2,0.2l0 3.23 2.11 0c0.05,0 0.09,0.04 0.09,0.09 0,0.05 -0.04,0.09 -0.09,0.09z"/>
  <path class="fil1" d="M6.99 6.4l-2.2 0c-0.05,0 -0.09,-0.04 -0.09,-0.09 0,-0.05 0.04,-0.09 0.09,-0.09l2.11 0 0 -1.63c0,-0.05 0.04,-0.09 0.09,-0.09 0.05,0 0.09,0.04 0.09,0.09l0 1.72c0,0.05 -0.04,0.09 -0.09,0.09z"/>
  <path class="fil1" d="M4.6 6.59c-0.16,0 -0.28,-0.13 -0.28,-0.28 0,-0.05 0.04,-0.09 0.09,-0.09 0.05,0 0.09,0.04 0.09,0.09 0,0.06 0.05,0.11 0.11,0.11 0.06,0 0.11,-0.05 0.11,-0.11 0,-0.05 0.04,-0.09 0.09,-0.09 0.05,0 0.09,0.04 0.09,0.09 0,0.16 -0.13,0.28 -0.28,0.28z"/>
  <path class="fil1" d="M4.58 3.91c-0.14,0 -0.25,0.11 -0.25,0.25l0 0.32c0,0.14 0.11,0.25 0.25,0.25 0.01,0 0.01,0 0.02,0 0.01,-0 0.01,-0 0.02,-0 0.14,0 0.25,-0.11 0.25,-0.25l0 -0.32c0,-0.14 -0.11,-0.25 -0.25,-0.25l-0.04 0zm0.85 1.86c-0.05,0 -0.09,-0.04 -0.09,-0.09l0 -0.38c0,-0.01 -0,-0.01 -0,-0.02 -0,-0 -0,-0.01 -0,-0.01 -0.02,-0.11 -0.13,-0.38 -0.6,-0.38l-0.12 0c-0.01,0 -0.01,-0 -0.02,-0 -0.01,0 -0.01,0 -0.02,0l-0.12 0c-0.47,0 -0.58,0.26 -0.6,0.38 -0,0 -0,0.01 -0,0.01 -0,0.01 -0,0.01 -0,0.02l0 0.38c0,0.05 -0.04,0.09 -0.09,0.09 -0.05,0 -0.09,-0.04 -0.09,-0.09l0 -0.38c0,-0.02 0,-0.04 0.01,-0.07 0.02,-0.11 0.13,-0.42 0.56,-0.49 -0.06,-0.07 -0.09,-0.17 -0.09,-0.27l0 -0.32c0,-0.23 0.19,-0.42 0.42,-0.42l0.04 0c0.23,0 0.42,0.19 0.42,0.42l0 0.32c0,0.1 -0.04,0.19 -0.09,0.27 0.43,0.08 0.54,0.39 0.56,0.49 0.01,0.02 0.01,0.04 0.01,0.07l0 0.38c0,0.05 -0.04,0.09 -0.09,0.09z"/>
 </g>
</svg>
