<?xml version="1.0" encoding="UTF-8"?>
<!DOCTYPE svg PUBLIC "-//W3C//DTD SVG 1.1//EN" "http://www.w3.org/Graphics/SVG/1.1/DTD/svg11.dtd">
<!-- Creator: CorelDRAW -->
<svg xmlns="http://www.w3.org/2000/svg" xml:space="preserve" width="10.6842mm" height="8.8mm" version="1.1" style="shape-rendering:geometricPrecision; text-rendering:geometricPrecision; image-rendering:optimizeQuality; fill-rule:evenodd; clip-rule:evenodd"
viewBox="0 0 10.03 8.26"
 xmlns:xlink="http://www.w3.org/1999/xlink"
 xmlns:xodm="http://www.corel.com/coreldraw/odm/2003">
 <defs>
  <style type="text/css">
   <![CDATA[
    .fil1 {fill:#082F23;fill-rule:nonzero}
    .fil0 {fill:#B7D174;fill-rule:nonzero}
   ]]>
  </style>
 </defs>
 <g id="Capa_x0020_1">
  <metadata id="CorelCorpID_0Corel-Layer"/>
  <g id="_2031779318944">
   <g>
    <path class="fil0" d="M1.2 7.97c0.03,-0.02 0.06,-0.03 0.1,-0.05 -0.04,-0.02 -0.09,-0.05 -0.16,-0.1 -0.06,-0.03 0.01,0.07 0.07,0.15z"/>
    <path class="fil0" d="M1.39 7.88c0.01,-0 0.01,-0.01 0.02,-0.01 -0.01,-0.02 -0.01,-0.03 -0.02,-0.05 0,0.02 0,0.04 0,0.05z"/>
    <path class="fil0" d="M1.44 7.66c-0.04,0 -0.06,0.03 -0.06,0.08 0.05,0.01 0.07,-0.01 0.06,-0.08z"/>
    <path class="fil0" d="M1.25 7.66c0.06,0.05 0.12,0.11 0.14,0.16 0,0 0,0 0,0 -0,-0.03 -0.01,-0.06 -0,-0.09 -0.04,-0.01 -0.08,-0.04 -0.14,-0.08z"/>
    <path class="fil0" d="M1.25 7.66c-0.06,-0.05 -0.12,-0.09 -0.15,-0.12 0.05,0.04 0.1,0.08 0.15,0.12z"/>
    <path class="fil0" d="M0.07 6.25c-0.02,-0.06 0.32,0.34 0.27,0.23 -0.03,-0.17 -0.13,-0.39 -0.07,-0.45 -0.05,-0.11 0.38,0.28 0.33,0.17 -0.03,-0.17 -0.33,-0.84 -0.41,-0.73 -0.1,0.19 -0.1,0.38 -0.17,0.57 0.03,0.25 0.09,0.53 0.11,0.77 -0.01,0.05 -0.07,0.04 -0.12,0.04 0.09,0.03 0.18,0.05 0.28,0.07 0.15,0.06 -0.22,-0.5 -0.21,-0.67z"/>
    <path class="fil0" d="M0.41 8.26c-0.03,-0.06 -0.07,-0.17 -0.07,-0.17 0.31,0.23 0.28,0.06 0.25,-0.11 -0.07,-0.06 -0.13,-0.11 -0.2,-0.17 -0.02,0.06 0.07,0.17 0.18,0.22 -0.29,-0.17 -0.39,-0.14 -0.43,-0.04 0.1,0.1 0.21,0.22 0.27,0.26z"/>
    <path class="fil0" d="M0.12 8.07c0,-0.03 0.01,-0.05 0.01,-0.07 -0.01,-0.01 -0.02,-0.02 -0.03,-0.03 0,0.03 0.01,0.06 0.01,0.09 0,0 0.01,0.01 0.01,0.01z"/>
    <path class="fil0" d="M1.42 7.04c0.17,-0.18 0.36,-0.32 0.57,-0.43 -0.05,-0.09 -0.12,-0.18 -0.07,-0.15 0.07,0.06 0.12,0.09 0.16,0.1 0.03,-0.02 0.06,-0.03 0.09,-0.05 0,-0.02 0,-0.03 -0,-0.05 -0,-0 -0,-0 -0,-0 -0.03,-0.06 -0.08,-0.11 -0.14,-0.16 -0.05,-0.03 -0.1,-0.07 -0.15,-0.12 0.03,0.03 0.09,0.07 0.15,0.12 0.06,0.04 0.1,0.07 0.14,0.08 0,-0.04 0.01,-0.08 0.06,-0.08 0.01,0.07 -0.01,0.09 -0.06,0.08 -0,0.03 0,0.06 0.01,0.09 0.01,0.02 0.01,0.03 0.02,0.05 0.07,-0.03 0.14,-0.06 0.22,-0.09 0,-0.02 0.01,-0.04 0.01,-0.06 -0.01,-0.09 -0.01,-0.18 0.18,-0.01 0.01,-0.01 0.03,-0.01 0.04,-0.01 -0.01,-0.01 -0.02,-0.02 -0.04,-0.03 0.02,0.01 0.03,0.02 0.04,0.03 0.06,-0.02 0.11,-0.04 0.17,-0.06 -0.04,-0.1 -0.09,-0.22 -0.11,-0.3 0,0 0.13,0.11 0.2,0.17 -0.07,-0.11 -0.11,-0.19 -0.12,-0.24 -0.13,-0.1 -0.26,-0.21 -0.35,-0.27 -0.2,-0.17 0.28,0.45 -0.08,0.11 0.36,0.34 -0.12,-0.28 0.08,-0.11 0.09,0.06 0.23,0.17 0.35,0.27 -0.02,-0.11 0.09,-0.08 0.3,0.07 0.09,0.21 -0.09,0.09 -0.3,-0.07 0.01,0.05 0.05,0.13 0.12,0.24 -0.07,-0.06 -0.2,-0.17 -0.2,-0.17 0.02,0.08 0.07,0.2 0.11,0.3 0.11,-0.04 0.23,-0.08 0.34,-0.13 0.78,-0.24 1.25,-0.74 1.99,-1.07 0.41,-0.16 0.86,-0.26 1.36,-0.3 0.99,-0.07 1.07,-1.06 2.53,-0.61 0.53,0.14 0.79,-0.42 0.98,-0.65 -0.28,-0.91 -1.91,-2.45 -2.01,-2.53 -1.44,-1.27 -0.88,-0.35 -1.99,-0.86 0.67,0.25 0.63,1.08 -0.48,0.31 -1.66,-1.18 -1.1,0.44 -1.86,0.43 -0.19,-0 -0.24,0.17 -0.4,0.25 -1.1,0.07 -1.16,1.24 -1.95,1.74 -0.18,0.17 -0.02,0.67 0,1 -0.05,0.17 -0.34,0.08 -0.43,0.16 -0.14,0.13 -0.14,0.38 -0.11,0.65 0.07,-0.19 0.07,-0.38 0.17,-0.57 0.08,-0.11 0.37,0.56 0.41,0.73 0.05,0.11 -0.38,-0.28 -0.33,-0.17 -0.06,0.05 0.04,0.28 0.07,0.45 0.05,0.11 -0.29,-0.28 -0.27,-0.23 -0.01,0.17 0.36,0.73 0.21,0.67 -0.09,-0.02 -0.19,-0.05 -0.28,-0.07 -0.04,-0 -0.08,0 -0.09,0.04 0.01,0.05 0.03,0.09 0.04,0.14 0.12,0.11 0.25,0.25 0.39,0.39 -0.04,-0 -0.15,-0.06 -0.19,-0.06 0.04,0 0.15,0.06 0.19,0.06 -0.13,-0.14 -0.27,-0.28 -0.39,-0.39 0.09,0.33 0.13,0.66 0.16,0.94 0.01,0.01 0.02,0.02 0.03,0.03 0.04,-0.1 0.14,-0.13 0.43,0.04 -0.11,-0.06 -0.2,-0.17 -0.18,-0.23 0.07,0.06 0.13,0.11 0.2,0.17 0.03,0.17 0.06,0.34 -0.25,0.11 0,0 0.05,0.11 0.07,0.17 -0.07,-0.04 -0.18,-0.16 -0.27,-0.26 -0.01,0.02 -0.01,0.04 -0.02,0.07 0.2,0.17 0.52,0.33 0.52,0.33z"/>
    <path class="fil0" d="M2.19 6.38c0,0.02 -0,0.04 -0.01,0.06 0.06,-0.02 0.13,-0.05 0.19,-0.07 -0.19,-0.17 -0.19,-0.08 -0.18,0.01z"/>
   </g>
  </g>
  <path class="fil1" d="M5.21 3.1c0.09,0 0.16,-0.07 0.16,-0.16 0,-0.09 -0.07,-0.16 -0.16,-0.16 -0.69,0 -1.25,0.56 -1.25,1.25 0,0.69 0.56,1.25 1.25,1.25 0.69,0 1.25,-0.56 1.25,-1.25 0,-0.09 -0.07,-0.16 -0.16,-0.16 -0.09,0 -0.16,0.07 -0.16,0.16 0,0.52 -0.42,0.94 -0.94,0.94 -0.52,0 -0.94,-0.42 -0.94,-0.94 0,-0.52 0.42,-0.94 0.94,-0.94z"/>
  <path class="fil1" d="M8.19 3.11c-0.03,-0.08 -0.12,-0.13 -0.2,-0.1 -0.08,0.03 -0.12,0.11 -0.1,0.19 0.47,1.49 -0.36,3.07 -1.85,3.54 -1.49,0.47 -3.07,-0.36 -3.54,-1.85 -0.47,-1.49 0.36,-3.07 1.85,-3.54 0.55,-0.17 1.14,-0.17 1.69,0 0.08,0.02 0.17,-0.02 0.19,-0.1 0.02,-0.08 -0.02,-0.17 -0.1,-0.19 -1.65,-0.52 -3.41,0.4 -3.92,2.05 -0.52,1.65 0.4,3.41 2.05,3.92 1.65,0.52 3.41,-0.4 3.92,-2.05 0.19,-0.61 0.19,-1.26 0,-1.87z"/>
  <path class="fil1" d="M5.51 2.03c0,-0.09 -0.07,-0.16 -0.16,-0.17 -0.05,-0 -0.09,-0.01 -0.14,-0.01 -1.21,0 -2.18,0.98 -2.18,2.18 0,1.21 0.98,2.18 2.18,2.18 1.21,0 2.18,-0.98 2.18,-2.18 0,-0.06 -0,-0.11 -0.01,-0.17 -0.01,-0.09 -0.09,-0.14 -0.18,-0.13 -0.09,0.01 -0.15,0.09 -0.13,0.18 0,0 0,0.01 0,0.01 0,0.04 0.01,0.08 0.01,0.11 0,1.03 -0.84,1.87 -1.87,1.87 -1.03,0 -1.87,-0.84 -1.87,-1.87 -0,-1.03 0.84,-1.87 1.87,-1.87l0 0c0.04,0 0.08,0 0.11,0.01l0.03 0c0.08,0 0.15,-0.06 0.15,-0.14 0,-0 0,-0 0,-0z"/>
  <path class="fil1" d="M6.46 2.39l0.62 -0.62 0 0.25c0,0.09 0.07,0.16 0.16,0.16l0.25 0 -0.62 0.62 -0.4 0 0 -0.4zm-0.31 -0.06l0 0.56 -1.05 1.05c-0.06,0.06 -0.06,0.16 -0,0.22 0.06,0.06 0.16,0.06 0.22,0 0,-0 0,-0 0,-0l1.05 -1.05 0.56 0c0.04,0 0.08,-0.02 0.11,-0.05l0.94 -0.94c0.06,-0.06 0.06,-0.16 0,-0.22 -0.03,-0.03 -0.07,-0.05 -0.11,-0.05l-0.47 0 0 -0.47c0,-0.09 -0.07,-0.16 -0.16,-0.16 -0.04,0 -0.08,0.02 -0.11,0.05l-0.94 0.94c-0.03,0.03 -0.05,0.07 -0.05,0.11z"/>
 </g>
</svg>
