<?xml version="1.0" encoding="UTF-8"?>
<!DOCTYPE svg PUBLIC "-//W3C//DTD SVG 1.1//EN" "http://www.w3.org/Graphics/SVG/1.1/DTD/svg11.dtd">
<!-- Creator: CorelDRAW -->
<svg xmlns="http://www.w3.org/2000/svg" xml:space="preserve" width="10.5821mm" height="10.582mm" version="1.1" style="shape-rendering:geometricPrecision; text-rendering:geometricPrecision; image-rendering:optimizeQuality; fill-rule:evenodd; clip-rule:evenodd"
viewBox="0 0 8.3 8.3"
 xmlns:xlink="http://www.w3.org/1999/xlink"
 xmlns:xodm="http://www.corel.com/coreldraw/odm/2003">
 <defs>
  <style type="text/css">
   <![CDATA[
    .fil0 {fill:#50B17E;fill-rule:nonzero}
    .fil1 {fill:white;fill-rule:nonzero}
   ]]>
  </style>
 </defs>
 <g id="Capa_x0020_1">
  <metadata id="CorelCorpID_0Corel-Layer"/>
  <path class="fil0" d="M8.3 4.15c0,2.29 -1.86,4.15 -4.15,4.15 -2.29,0 -4.15,-1.86 -4.15,-4.15 0,-2.29 1.86,-4.15 4.15,-4.15 2.29,0 4.15,1.86 4.15,4.15z"/>
  <path class="fil1" d="M6.14 5.31l-0.82 0c-0.11,0 -0.21,0.09 -0.21,0.21 0,0.02 0,0.05 0.01,0.07l-0.15 0 0 0.14 0.34 0 0.07 0 0.14 0c0.04,0 0.07,0.03 0.07,0.07 0,0.04 -0.03,0.07 -0.07,0.07l-2.68 0c-0.04,0 -0.07,-0.03 -0.07,-0.07 0,-0.04 0.03,-0.07 0.07,-0.07l0.21 0 0.21 0 0 -0.14 -0.21 0 -0.21 0 -0.55 0c-0.04,0 -0.07,-0.03 -0.07,-0.07 0,-0.04 0.03,-0.07 0.07,-0.07l0.21 0c0.11,0 0.21,-0.09 0.21,-0.21 0,-0.04 0.03,-0.07 0.07,-0.07l3.37 0c0.04,0 0.07,0.03 0.07,0.07 0,0.04 -0.03,0.07 -0.07,0.07zm-3.14 -0.68l0.05 -0.01 -0 -0.06c-0,-0 -0,-0.01 -0,-0.01 0,0 -0,0 -0,0 0,-0.11 0.09,-0.21 0.21,-0.21 0.07,0 0.14,0.04 0.18,0.11l0.03 0.04 0.05 -0.01c0.01,-0 0.01,-0 0.02,-0 0.08,0 0.15,0.04 0.18,0.12l0.03 0.06 0.06 -0.02c0.14,-0.05 0.28,0.05 0.28,0.19 0,0.06 -0.03,0.12 -0.07,0.15l-0.04 0.05 -1.01 0 -0.05 -0.05c-0.04,-0.04 -0.07,-0.1 -0.07,-0.15 0,-0.09 0.06,-0.18 0.16,-0.2zm0.39 -0.69l0.55 0c0.02,0.35 0.22,0.64 0.48,0.68l0 0.42 -0.28 0c0.04,-0.06 0.07,-0.13 0.07,-0.21 0,-0.19 -0.15,-0.34 -0.34,-0.34 -0.02,0 -0.04,0 -0.06,0.01 -0.06,-0.09 -0.17,-0.14 -0.28,-0.14l-0 0c-0.04,-0.05 -0.08,-0.08 -0.14,-0.11l0 -0.3zm-0.68 -0.25l0.3 -0.29 0.11 0 0 -0.14 -0.47 0c0.01,-0.04 0.04,-0.08 0.07,-0.12l0.3 -0.3 0.11 0 0 -0.14 -0.48 0 0 -0c0,-0.02 0.01,-0.04 0.03,-0.05 0.27,-0.19 0.48,-0.45 0.62,-0.75 0.01,-0.03 0.06,-0.03 0.07,0 0.14,0.3 0.36,0.56 0.62,0.75 0.02,0.01 0.03,0.03 0.03,0.05l-0.48 0 0 0.14 0.11 0 0.29 0.3c0.03,0.03 0.06,0.07 0.07,0.12l-0.47 0 0 0.14 0.11 0 0.29 0.29c0.01,0.01 0.01,0.02 0.02,0.02 -0,0.03 -0.01,0.06 -0.01,0.09l-1.3 0c0.01,-0.04 0.04,-0.08 0.07,-0.12zm1.35 -0.29c-0.03,0.05 -0.05,0.1 -0.07,0.16l-0.16 -0.16 0.23 0zm0.42 -0.14c0.23,0 0.41,0.28 0.41,0.62 0,0.31 -0.15,0.56 -0.34,0.61l0 -0.52 0.26 -0.32 -0.11 -0.09 -0.15 0.19 0 -0.22 -0.14 0 0 0.53 -0.15 -0.22 -0.11 0.08 0.26 0.4 0 0.18c-0.19,-0.05 -0.34,-0.3 -0.34,-0.61 0,-0.34 0.18,-0.62 0.41,-0.62zm0.49 -0.09l0.04 -0.04 -0.03 -0.05c-0.02,-0.03 -0.03,-0.06 -0.03,-0.1 0,-0.11 0.09,-0.21 0.2,-0.21l0.07 0 0.01 -0.05c0.02,-0.09 0.11,-0.16 0.2,-0.16 0.09,0 0.18,0.06 0.2,0.16l0.01 0.05 0.06 -0c0,-0 0.01,-0 0.01,-0 0.11,0 0.21,0.09 0.21,0.21 0,0.03 -0.01,0.07 -0.03,0.1l-0.03 0.05 0.04 0.04c0.05,0.04 0.08,0.1 0.08,0.16 0,0.06 -0.03,0.11 -0.05,0.13l-0.05 0.06 0.07 0.04c0.06,0.04 0.1,0.1 0.1,0.18 0,0.08 -0.04,0.15 -0.12,0.18l-0.06 0.03 0.02 0.06c0.01,0.02 0.01,0.05 0.01,0.07 0,0.11 -0.09,0.21 -0.21,0.21 -0.11,0 -0.21,-0.09 -0.21,-0.21l0 -0.18 0.26 -0.32 -0.11 -0.09 -0.15 0.19 0 -0.7 -0.14 0 0 0.42 -0.15 -0.19 -0.11 0.09 0.26 0.32 0 0.46c0,0.11 -0.09,0.21 -0.21,0.21 -0.08,0 -0.15,-0.04 -0.18,-0.11 0.03,-0.09 0.05,-0.19 0.05,-0.3 0,-0.19 -0.05,-0.36 -0.14,-0.5l0 -0.05c0,-0.06 0.03,-0.12 0.08,-0.16zm-0.42 1.46c0.15,-0.03 0.29,-0.14 0.37,-0.3 0.06,0.06 0.15,0.1 0.24,0.1 0.08,0 0.15,-0.03 0.21,-0.07l0 0.38c-0.02,-0.01 -0.04,-0.02 -0.06,-0.03 -0.06,-0.09 -0.17,-0.15 -0.28,-0.15 -0.18,0 -0.33,0.14 -0.34,0.31 -0.06,0.04 -0.11,0.1 -0.13,0.17l-0.01 0 0 -0.42zm1.08 0.42l-0.92 0c0.02,-0.03 0.04,-0.05 0.07,-0.06l0.05 -0.02 -0 -0.05c-0,-0 -0,-0.01 -0,-0.01 0,-0.11 0.09,-0.21 0.21,-0.21 0.07,0 0.14,0.04 0.18,0.11l0.02 0.03 0.03 0.01c0.05,0.01 0.1,0.05 0.11,0.1l0.02 0.07 0.07 -0.03c0.07,-0.03 0.14,0 0.17,0.06zm0.5 0l-0.35 0c-0.03,-0.12 -0.14,-0.21 -0.27,-0.21l0 -0.48c0.06,0.04 0.13,0.07 0.21,0.07 0.19,0 0.34,-0.15 0.34,-0.34 0,-0.02 -0,-0.04 -0.01,-0.06 0.09,-0.06 0.14,-0.17 0.14,-0.28 0,-0.1 -0.04,-0.19 -0.11,-0.25 0.03,-0.05 0.04,-0.11 0.04,-0.16 0,-0.09 -0.03,-0.17 -0.09,-0.23 0.01,-0.04 0.02,-0.08 0.02,-0.11 0,-0.18 -0.13,-0.32 -0.3,-0.34 -0.05,-0.12 -0.18,-0.21 -0.31,-0.21 -0.14,0 -0.26,0.08 -0.32,0.21 -0.17,0.02 -0.3,0.17 -0.3,0.34 0,0.04 0.01,0.08 0.02,0.11 -0.04,0.04 -0.06,0.09 -0.07,0.14 -0.08,-0.07 -0.18,-0.11 -0.29,-0.11 -0.13,0 -0.25,0.06 -0.35,0.17 -0.01,-0.09 -0.05,-0.18 -0.12,-0.25l-0.2 -0.2 0.32 0 0 -0.14c0,-0.06 -0.03,-0.13 -0.09,-0.16 -0.25,-0.18 -0.45,-0.42 -0.58,-0.69 -0.03,-0.06 -0.09,-0.1 -0.16,-0.1 -0.07,0 -0.13,0.04 -0.16,0.1 -0.13,0.28 -0.33,0.52 -0.58,0.69 -0.05,0.04 -0.09,0.1 -0.09,0.16l0 0.14 0.32 0 -0.2 0.2c-0.07,0.07 -0.12,0.18 -0.12,0.28l0 0.07 0.32 0 -0.2 0.2c-0.07,0.07 -0.12,0.18 -0.12,0.28l0 0.07 0.76 0 0 0.27c-0.18,0 -0.32,0.13 -0.34,0.3 -0.13,0.05 -0.21,0.18 -0.21,0.31 0,0.08 0.03,0.15 0.07,0.21 -0.11,0 -0.21,0.09 -0.21,0.21 0,0.04 -0.03,0.07 -0.07,0.07l-0.21 0c-0.11,0 -0.21,0.09 -0.21,0.21 0,0.11 0.09,0.21 0.21,0.21l0.36 0c-0.01,0.02 -0.01,0.04 -0.01,0.07 0,0.11 0.09,0.21 0.21,0.21l2.68 0c0.11,0 0.21,-0.09 0.21,-0.21 0,-0.11 -0.09,-0.21 -0.21,-0.21l-0.14 0 -0.07 0c-0.04,0 -0.07,-0.03 -0.07,-0.07 0,-0.04 0.03,-0.07 0.07,-0.07l0.82 0c0.11,0 0.21,-0.09 0.21,-0.21 0,-0.11 -0.09,-0.21 -0.21,-0.21z"/>
  <path class="fil1" d="M3.66 5.49c0,-0.09 -0.08,-0.17 -0.17,-0.17l-0.24 0 0 0.14 0.24 0c0.02,0 0.03,0.02 0.03,0.03 0,0.09 0.08,0.17 0.17,0.17l0.24 0 0 -0.14 -0.24 0c-0.02,0 -0.03,-0.02 -0.03,-0.03z"/>
 </g>
</svg>
