<?xml version="1.0" encoding="UTF-8"?>
<!DOCTYPE svg PUBLIC "-//W3C//DTD SVG 1.1//EN" "http://www.w3.org/Graphics/SVG/1.1/DTD/svg11.dtd">
<!-- Creator: CorelDRAW -->
<svg xmlns="http://www.w3.org/2000/svg" xml:space="preserve" width="10.582mm" height="10.582mm" version="1.1" style="shape-rendering:geometricPrecision; text-rendering:geometricPrecision; image-rendering:optimizeQuality; fill-rule:evenodd; clip-rule:evenodd"
viewBox="0 0 9.1 9.1"
 xmlns:xlink="http://www.w3.org/1999/xlink"
 xmlns:xodm="http://www.corel.com/coreldraw/odm/2003">
 <defs>
  <style type="text/css">
   <![CDATA[
    .fil0 {fill:#50B17E;fill-rule:nonzero}
    .fil1 {fill:white;fill-rule:nonzero}
   ]]>
  </style>
 </defs>
 <g id="Capa_x0020_1">
  <metadata id="CorelCorpID_0Corel-Layer"/>
  <path class="fil0" d="M9.1 4.55c0,2.51 -2.04,4.55 -4.55,4.55 -2.51,0 -4.55,-2.04 -4.55,-4.55 0,-2.51 2.04,-4.55 4.55,-4.55 2.51,0 4.55,2.04 4.55,4.55z"/>
  <path class="fil1" d="M4.1 4.02c0.04,-0.23 0.25,-0.38 0.48,-0.34 0.23,0.04 0.38,0.25 0.34,0.48 -0.01,0.07 -0.04,0.13 -0.08,0.18 -0.09,0.12 -0.15,0.27 -0.17,0.42l-0.33 0c-0.04,-0.42 -0.3,-0.42 -0.25,-0.74zm0.41 1.07c-0.09,0 -0.17,-0.07 -0.17,-0.17l0.33 0c0,0.09 -0.07,0.17 -0.17,0.17zm0 0.17c0.18,0 0.33,-0.15 0.33,-0.33 0,-0.18 0,-0.3 0.14,-0.49 0.19,-0.26 0.14,-0.63 -0.12,-0.82 -0.26,-0.19 -0.63,-0.14 -0.82,0.12 -0.06,0.08 -0.09,0.16 -0.11,0.26 -0.07,0.43 0.24,0.42 0.24,0.85l0 0.08c0,0.18 0.15,0.33 0.33,0.33z"/>
  <path class="fil1" d="M6.17 2.77c-0.03,-0.03 -0.09,-0.03 -0.12,0 -0.03,0.03 -0.03,0.09 0,0.12 0.11,0.11 0.22,0.24 0.3,0.38l-0.29 0.17c-0.07,-0.11 -0.16,-0.22 -0.25,-0.31 -0.03,-0.03 -0.09,-0.03 -0.12,-0 -0,0 -0,0 -0,0l-0.3 0.3c-0.31,-0.28 -0.74,-0.39 -1.15,-0.31l-0.09 -0.32c0.41,-0.09 0.83,-0.02 1.19,0.19 0.04,0.02 0.09,0.01 0.11,-0.03 0,-0 0,-0 0,-0 0.26,-0.44 0.27,-0.44 0.26,-0.49 -0.02,-0.16 -1.27,-0.71 -2.38,-0.06 -0.04,0.02 -0.05,0.07 -0.03,0.11 0.27,0.47 0.26,0.48 0.32,0.48 0.05,0 0.08,-0.04 0.08,-0.08 0,-0.01 -0,-0.03 -0.01,-0.04l-0.21 -0.36c0.63,-0.34 1.39,-0.34 2.03,0l-0.17 0.29c-0.52,-0.27 -1.4,-0.26 -1.38,-0.06 0,0.02 -0.02,-0.05 0.11,0.42 -0.17,0.06 -0.32,0.15 -0.46,0.27l-0.65 -0.65c-0.03,-0.03 -0.09,-0.03 -0.12,-0 -0,0 -0,0 -0,0 -0.44,0.44 -0.69,1.03 -0.69,1.65 0,0.05 0.04,0.08 0.08,0.08 0.15,0 0.03,-0.15 0.16,-0.65 0.09,-0.34 0.26,-0.65 0.5,-0.91l0.59 0.59c-0.36,0.41 -0.44,0.99 -0.19,1.48l-0.36 0.21c-0.04,0.02 -0.05,0.07 -0.03,0.11 0.02,0.04 0.07,0.05 0.11,0.03l0.36 -0.21c0.16,0.25 0.41,0.43 0.69,0.53 -0.12,0.43 -0.12,0.43 -0.1,0.47 0.01,0.02 0.03,0.03 0.05,0.04 0.13,0.03 0.26,0.06 0.39,0.06l0 0.33c-0.52,-0.02 -1.01,-0.22 -1.39,-0.58l0.24 -0.24c0.07,0.06 0.3,0.25 0.36,0.25 0.05,0 0.08,-0.04 0.08,-0.08 0,-0.03 -0.02,-0.06 -0.04,-0.07 -0.13,-0.07 -0.24,-0.16 -0.35,-0.27 -0.03,-0.03 -0.09,-0.03 -0.12,-0 -0,0 -0,0 -0,0l-0.29 0.29c-0.22,-0.24 -0.39,-0.52 -0.48,-0.84 0.47,-0.13 0.39,-0.1 0.42,-0.11 0.16,-0.07 -0.24,-0.58 0.21,-1.36 0.02,-0.04 0.01,-0.09 -0.04,-0.11 -0.04,-0.02 -0.09,-0.01 -0.11,0.03 -0.23,0.39 -0.3,0.85 -0.21,1.29 0.01,0.03 0.05,0.01 -0.4,0.13 -0.01,0 -0.02,0.01 -0.03,0.02 -0.02,0.02 -0.03,0.05 -0.03,0.08 0.27,1.02 1.2,1.73 2.26,1.73 0.05,0 0.08,-0.04 0.08,-0.08l0 -0.5c0,-0.05 -0.04,-0.08 -0.08,-0.08 -0.12,-0 -0.24,-0.01 -0.35,-0.04l0.09 -0.32c0.29,0.06 0.59,0.02 0.86,-0.11l0.21 0.36c0.02,0.04 0.07,0.05 0.11,0.03 0.04,-0.02 0.05,-0.07 0.03,-0.11l-0.21 -0.36c0.27,-0.18 0.47,-0.45 0.55,-0.77 0.01,-0.04 -0.01,-0.09 -0.06,-0.1 -0.04,-0.01 -0.09,0.01 -0.1,0.06 -0.17,0.62 -0.81,0.99 -1.43,0.83 -1.08,-0.36 -1.13,-1.65 -0.28,-2.14 0.7,-0.41 1.56,0.03 1.71,0.71 0.01,0.04 0.06,0.07 0.1,0.06 0,0 0,-0 0,-0 0.01,0 -0.06,0.02 0.4,-0.11 0.02,0.12 0.04,0.23 0.04,0.35 0,0.05 0.04,0.08 0.08,0.08 0.05,0 0.08,-0.04 0.08,-0.08 0,-0.16 -0.02,-0.32 -0.06,-0.48 -0.01,-0.04 -0.06,-0.07 -0.1,-0.06 -0,0 -0,0 -0,0l-0.4 0.11c-0.06,-0.17 -0.15,-0.32 -0.26,-0.46l0.24 -0.24c0.35,0.38 0.1,0.45 0.68,0.11 0.43,0.81 0.3,1.81 -0.33,2.49l-0.24 -0.24c0.2,-0.22 0.34,-0.48 0.42,-0.76 0.01,-0.04 -0.01,-0.09 -0.06,-0.1 -0.04,-0.01 -0.09,0.01 -0.1,0.06 -0.18,0.66 -0.56,0.74 -0.43,0.87l0.29 0.29c-0.24,0.22 -0.52,0.39 -0.84,0.48l-0.1 -0.4c-0.01,-0.04 -0.06,-0.07 -0.1,-0.06 -0.04,0.01 -0.07,0.06 -0.06,0.1 0,0.01 0.13,0.48 0.13,0.48 0.01,0.04 0.06,0.07 0.1,0.06 0,-0 0,-0 0,-0 0.2,-0.05 0.39,-0.13 0.56,-0.23 1.12,-0.65 1.5,-2.08 0.86,-3.2 -0.1,-0.18 -0.23,-0.34 -0.37,-0.48z"/>
 </g>
</svg>
