<?xml version="1.0" encoding="UTF-8"?>
<!DOCTYPE svg PUBLIC "-//W3C//DTD SVG 1.1//EN" "http://www.w3.org/Graphics/SVG/1.1/DTD/svg11.dtd">
<!-- Creator: CorelDRAW -->
<svg xmlns="http://www.w3.org/2000/svg" xml:space="preserve" width="10.5821mm" height="10.582mm" version="1.1" style="shape-rendering:geometricPrecision; text-rendering:geometricPrecision; image-rendering:optimizeQuality; fill-rule:evenodd; clip-rule:evenodd"
viewBox="0 0 10.07 10.07"
 xmlns:xlink="http://www.w3.org/1999/xlink"
 xmlns:xodm="http://www.corel.com/coreldraw/odm/2003">
 <defs>
  <style type="text/css">
   <![CDATA[
    .fil0 {fill:#50B17E;fill-rule:nonzero}
    .fil1 {fill:white;fill-rule:nonzero}
   ]]>
  </style>
 </defs>
 <g id="Capa_x0020_1">
  <metadata id="CorelCorpID_0Corel-Layer"/>
  <path class="fil0" d="M10.07 5.04c0,2.78 -2.25,5.04 -5.04,5.04 -2.78,0 -5.04,-2.25 -5.04,-5.04 0,-2.78 2.25,-5.04 5.04,-5.04 2.78,0 5.04,2.25 5.04,5.04z"/>
  <path class="fil1" d="M3.71 4.01l1.32 0.62 1.32 -0.62 -1.32 -0.62 -1.32 0.62zm1.32 0.81c-0.01,0 -0.03,-0 -0.04,-0.01l-1.54 -0.72c-0.03,-0.01 -0.05,-0.05 -0.05,-0.08 0,-0.04 0.02,-0.07 0.05,-0.08l1.54 -0.72c0.02,-0.01 0.05,-0.01 0.08,0l1.54 0.72c0.03,0.01 0.05,0.05 0.05,0.08 0,0.04 -0.02,0.07 -0.05,0.08l-1.54 0.72c-0.01,0.01 -0.03,0.01 -0.04,0.01z"/>
  <path class="fil1" d="M4.04 4.86l0.99 0.5 0.99 -0.5 0 -0.49 -0.96 0.45c-0.02,0.01 -0.05,0.01 -0.08,0l-0.96 -0.45 0 0.49zm0.99 0.69c-0.01,0 -0.03,-0 -0.04,-0.01l-1.09 -0.54c-0.03,-0.02 -0.05,-0.05 -0.05,-0.08l0 -0.69c0,-0.03 0.02,-0.06 0.04,-0.08 0.03,-0.02 0.06,-0.02 0.09,-0.01l1.05 0.49 1.05 -0.49c0.03,-0.01 0.06,-0.01 0.09,0.01 0.03,0.02 0.04,0.05 0.04,0.08l0 0.69c0,0.03 -0.02,0.07 -0.05,0.08l-1.09 0.54c-0.01,0.01 -0.03,0.01 -0.04,0.01z"/>
  <path class="fil1" d="M6.57 4.1l-1.54 0c-0.05,0 -0.09,-0.04 -0.09,-0.09 0,-0.05 0.04,-0.09 0.09,-0.09l1.54 0c0.05,0 0.09,0.04 0.09,0.09 0,0.05 -0.04,0.09 -0.09,0.09z"/>
  <path class="fil1" d="M6.57 4.92c-0.05,0 -0.09,-0.04 -0.09,-0.09l0 -0.81c0,-0.05 0.04,-0.09 0.09,-0.09 0.05,0 0.09,0.04 0.09,0.09l0 0.81c0,0.05 -0.04,0.09 -0.09,0.09z"/>
  <path class="fil1" d="M5.03 4.28c-0.05,0 -0.09,-0.04 -0.09,-0.09l0 -0.36c0,-0.05 0.04,-0.09 0.09,-0.09 0.05,0 0.09,0.04 0.09,0.09l0 0.36c0,0.05 -0.04,0.09 -0.09,0.09z"/>
  <path class="fil1" d="M6.39 5.19c-0.02,0 -0.03,-0 -0.05,-0.02 -0.04,-0.03 -0.05,-0.08 -0.03,-0.13l0.18 -0.27c0.03,-0.04 0.08,-0.05 0.13,-0.03 0.04,0.03 0.05,0.08 0.03,0.13l-0.18 0.27c-0.02,0.03 -0.05,0.04 -0.08,0.04z"/>
  <path class="fil1" d="M6.75 5.19c-0.03,0 -0.06,-0.01 -0.08,-0.04l-0.18 -0.27c-0.03,-0.04 -0.02,-0.1 0.03,-0.13 0.04,-0.03 0.1,-0.02 0.13,0.03l0.18 0.27c0.03,0.04 0.02,0.1 -0.03,0.13 -0.02,0.01 -0.03,0.02 -0.05,0.02z"/>
  <path class="fil1" d="M5.03 5.1c-0.05,0 -0.09,-0.04 -0.09,-0.09l0 -0.27c0,-0.05 0.04,-0.09 0.09,-0.09 0.05,0 0.09,0.04 0.09,0.09l0 0.27c0,0.05 -0.04,0.09 -0.09,0.09z"/>
  <path class="fil1" d="M2.5 5.73l5.06 0 0 -2.89c0,-0.1 -0.08,-0.18 -0.18,-0.18l-4.7 0c-0.1,0 -0.18,0.08 -0.18,0.18l0 2.89zm5.15 0.18l-5.24 0c-0.05,0 -0.09,-0.04 -0.09,-0.09l0 -2.98c0,-0.2 0.16,-0.36 0.36,-0.36l4.7 0c0.2,0 0.36,0.16 0.36,0.36l0 2.98c0,0.05 -0.04,0.09 -0.09,0.09z"/>
  <path class="fil1" d="M2.5 5.91l0 0.36c0,0.1 0.08,0.18 0.18,0.18l4.7 0c0.1,0 0.18,-0.08 0.18,-0.18l0 -0.36 -5.06 0zm4.88 0.72l-4.7 0c-0.2,0 -0.36,-0.16 -0.36,-0.36l0 -0.45c0,-0.05 0.04,-0.09 0.09,-0.09l5.24 0c0.05,0 0.09,0.04 0.09,0.09l0 0.45c0,0.2 -0.16,0.36 -0.36,0.36z"/>
  <path class="fil1" d="M5.3 6.27l-0.54 0c-0.05,0 -0.09,-0.04 -0.09,-0.09 0,-0.05 0.04,-0.09 0.09,-0.09l0.54 0c0.05,0 0.09,0.04 0.09,0.09 0,0.05 -0.04,0.09 -0.09,0.09z"/>
  <path class="fil1" d="M2.86 5.73l4.34 0 0 -2.71 -4.34 0 0 2.71zm4.43 0.18l-4.52 0c-0.05,0 -0.09,-0.04 -0.09,-0.09l0 -2.89c0,-0.05 0.04,-0.09 0.09,-0.09l4.52 0c0.05,0 0.09,0.04 0.09,0.09l0 2.89c0,0.05 -0.04,0.09 -0.09,0.09z"/>
  <path class="fil1" d="M3.86 7.36c-0.05,0 -0.09,0.04 -0.09,0.09 0,0.05 0.04,0.09 0.09,0.09l2.35 0c0.05,0 0.09,-0.04 0.09,-0.09 0,-0.05 -0.04,-0.09 -0.09,-0.09l-2.35 0zm2.35 0.36l-2.35 0c-0.15,0 -0.27,-0.12 -0.27,-0.27 0,-0.15 0.12,-0.27 0.27,-0.27l2.35 0c0.15,0 0.27,0.12 0.27,0.27 0,0.15 -0.12,0.27 -0.27,0.27z"/>
  <path class="fil1" d="M4.48 7.18l1.11 0c-0.11,-0.12 -0.18,-0.31 -0.19,-0.54l-0.73 0c-0.01,0.24 -0.08,0.42 -0.19,0.54zm1.55 0.18l-1.99 0c-0.05,0 -0.09,-0.04 -0.09,-0.09 0,-0.05 0.04,-0.09 0.09,-0.09 0.3,0 0.45,-0.21 0.45,-0.63 0,-0.05 0.04,-0.09 0.09,-0.09l0.9 0c0.05,0 0.09,0.04 0.09,0.09 0,0.42 0.15,0.63 0.45,0.63 0.05,0 0.09,0.04 0.09,0.09 0,0.05 -0.04,0.09 -0.09,0.09z"/>
 </g>
</svg>
