<?xml version="1.0" encoding="UTF-8"?>
<!DOCTYPE svg PUBLIC "-//W3C//DTD SVG 1.1//EN" "http://www.w3.org/Graphics/SVG/1.1/DTD/svg11.dtd">
<!-- Creator: CorelDRAW -->
<svg xmlns="http://www.w3.org/2000/svg" xml:space="preserve" width="50.5498mm" height="23.0909mm" version="1.1" style="shape-rendering:geometricPrecision; text-rendering:geometricPrecision; image-rendering:optimizeQuality; fill-rule:evenodd; clip-rule:evenodd"
viewBox="0 0 423.43 193.42"
 xmlns:xlink="http://www.w3.org/1999/xlink"
 xmlns:xodm="http://www.corel.com/coreldraw/odm/2003">
 <defs>
  <style type="text/css">
   <![CDATA[
    .fil0 {fill:#0E2A20;fill-rule:nonzero}
    .fil1 {fill:#93B546;fill-rule:nonzero}
    .fil2 {fill:url(#id0)}
   ]]>
  </style>
  <linearGradient id="id0" gradientUnits="userSpaceOnUse" x1="43.52" y1="91.12" x2="223.28" y2="91.12">
   <stop offset="0" style="stop-opacity:1; stop-color:#93B546"/>
   <stop offset="1" style="stop-opacity:1; stop-color:#449857"/>
  </linearGradient>
 </defs>
 <g id="Capa_x0020_1">
  <metadata id="CorelCorpID_0Corel-Layer"/>
  <path class="fil0" d="M157.44 132.57c1.31,0.07 2.59,0.11 3.83,0.11 2.52,0.01 4.48,-0.06 5.9,-0.19 0.99,-0.11 2.01,-0.29 3.07,-0.58l1.22 -4.71 1.3 0c-0.34,2.53 -0.61,4.89 -0.8,7.09 -1.21,0.2 -2.85,0.29 -4.94,0.29l-9.55 -0.18c-1.28,-0 -3.29,0.06 -6,0.2l0 -1.06c1.07,-0.47 1.7,-0.97 1.9,-1.5 0.2,-0.54 0.3,-2.66 0.31,-6.37l0.02 -11.04c0.01,-4.01 -0.08,-6.25 -0.27,-6.71 -0.19,-0.46 -0.74,-0.69 -1.63,-0.7l-2.19 -0.01 0 -1.26c3.18,0.1 5.3,0.15 6.34,0.15 1.39,0 3.28,-0.04 5.66,-0.13l-0 1.26 -2.49 -0.01c-0.71,-0 -1.16,0.2 -1.34,0.61 -0.19,0.41 -0.29,2.1 -0.29,5.09l-0.03 12.79 0.04 5.66 -0.06 1.18z"/>
  <path class="fil0" d="M178.68 106.21c0.61,0 1.14,0.23 1.58,0.68 0.44,0.45 0.66,0.99 0.66,1.62 -0,0.63 -0.22,1.16 -0.67,1.6 -0.44,0.44 -0.97,0.66 -1.59,0.66 -0.63,-0 -1.16,-0.22 -1.6,-0.67 -0.44,-0.44 -0.66,-0.98 -0.66,-1.61 0,-0.63 0.22,-1.17 0.66,-1.61 0.44,-0.45 0.98,-0.67 1.61,-0.67zm1.58 8.89l0.48 0.3c-0.09,1 -0.16,2.11 -0.19,3.31 -0.1,3.91 -0.16,6.79 -0.16,8.65 -0.01,1.74 0.05,3.22 0.17,4.46 0.05,0.48 0.18,0.82 0.38,1 0.2,0.19 0.68,0.33 1.44,0.43l1.37 0.18 -0 1.16c-1.95,-0.1 -3.73,-0.15 -5.34,-0.15 -1.58,-0 -3.17,0.04 -4.78,0.13l0 -1.16 1.73 -0.18c0.67,-0.05 1.08,-0.17 1.24,-0.37 0.15,-0.19 0.25,-0.84 0.3,-1.94 0.07,-1.7 0.11,-4.05 0.12,-7.04 0,-2.08 -0.03,-3.68 -0.09,-4.81 -0.03,-0.42 -0.14,-0.71 -0.35,-0.89 -0.21,-0.18 -0.67,-0.27 -1.39,-0.27l-1.5 -0 0 -1.16c1.63,-0.23 2.83,-0.45 3.61,-0.65 0.77,-0.2 1.76,-0.53 2.98,-1.01z"/>
  <path class="fil0" d="M200.7 119.91c-0.92,-0.99 -1.88,-1.74 -2.87,-2.24 -1,-0.5 -2.03,-0.75 -3.12,-0.75 -1.75,-0.01 -3.16,0.63 -4.23,1.91 -1.07,1.28 -1.61,3.15 -1.62,5.61 -0.01,2.5 0.6,4.47 1.82,5.9 1.22,1.43 2.7,2.15 4.45,2.15 1.07,0 2.05,-0.29 2.95,-0.89 0.89,-0.59 1.55,-1.36 1.97,-2.32 0.42,-0.95 0.63,-2.44 0.63,-4.48l0.01 -4.91zm0.01 -3.45l0.02 -7.28c0,-0.85 -0.09,-1.37 -0.28,-1.59 -0.19,-0.22 -0.61,-0.32 -1.28,-0.33l-1.73 -0 0 -1.21c2.39,-0.15 4.62,-0.64 6.69,-1.45l0.36 0.24c-0.1,1.37 -0.18,3.01 -0.25,4.94l-0.09 5.34 -0.04 1.73 -0.03 11.99c-0.01,2.24 0.06,3.48 0.19,3.74 0.2,0.36 0.75,0.6 1.66,0.73l1.42 0.18 -0 1.16c-1.65,-0.12 -3.11,-0.19 -4.37,-0.19 -0.23,0 -1.07,0.06 -2.54,0.17 0.1,-0.9 0.17,-2.19 0.23,-3.85 -1.14,0.88 -2.59,2.1 -4.36,3.69 -1.14,0.37 -2.14,0.55 -3.01,0.55 -2.26,-0.01 -4.15,-0.86 -5.67,-2.56 -1.52,-1.7 -2.28,-3.98 -2.27,-6.83 0.01,-1.78 0.3,-3.3 0.9,-4.55 0.59,-1.26 1.29,-2.17 2.11,-2.74 0.82,-0.57 2.09,-1.28 3.81,-2.15 1.32,-0.65 2.55,-0.98 3.67,-0.98 0.76,0 1.55,0.1 2.35,0.31 0.81,0.2 1.64,0.51 2.49,0.93z"/>
  <path class="fil0" d="M212.67 123.45c2.07,0.1 4.36,0.15 6.86,0.16 1,0 1.97,-0.04 2.91,-0.13l0 -1.12c0,-1.18 -0.23,-2.3 -0.69,-3.35 -0.29,-0.66 -0.81,-1.21 -1.54,-1.64 -0.74,-0.44 -1.58,-0.66 -2.55,-0.66 -1.5,-0 -2.7,0.54 -3.6,1.64 -0.9,1.1 -1.37,2.8 -1.4,5.11zm-0.04 1.51c0.06,2.64 0.73,4.64 2.01,6 1.28,1.37 2.96,2.06 5.05,2.06 0.93,0 1.86,-0.15 2.79,-0.45 0.92,-0.3 1.84,-0.76 2.75,-1.38l0.34 0.3 -0.64 1.68c-1.11,0.64 -2.26,1.12 -3.44,1.44 -1.18,0.32 -2.39,0.48 -3.64,0.48 -2.72,-0.01 -4.91,-0.87 -6.57,-2.6 -1.66,-1.73 -2.49,-4.06 -2.48,-7 0.01,-2.25 0.48,-4.19 1.42,-5.84 0.62,-1.08 1.76,-2.09 3.42,-3.01 1.66,-0.92 3.27,-1.38 4.84,-1.37 2.37,0.01 4.24,0.71 5.63,2.1 1.38,1.39 2.07,3.34 2.06,5.85l-0.04 1.18c-0.88,0.21 -1.72,0.35 -2.52,0.41 -1.43,0.1 -3.42,0.15 -5.95,0.15l-5.01 -0.01z"/>
  <path class="fil0" d="M233.94 119.87c0.54,-0.51 1.12,-1.17 1.75,-2 0.75,-0.98 1.45,-1.64 2.1,-2 0.64,-0.36 1.32,-0.54 2.03,-0.54 0.74,0 1.3,0.09 1.69,0.27 0.19,0.08 0.28,0.21 0.28,0.38l-0.02 0.2c-0.22,1.08 -0.34,2.6 -0.37,4.56l-0.9 -0c-0.31,-0.68 -0.67,-1.17 -1.09,-1.45 -0.42,-0.28 -0.92,-0.42 -1.51,-0.43 -0.79,0 -1.52,0.27 -2.19,0.8 -0.68,0.53 -1.13,1.28 -1.36,2.24 -0.23,0.96 -0.35,2.85 -0.35,5.67 -0,1.86 0.07,3.42 0.21,4.69 0.05,0.47 0.19,0.76 0.4,0.88 0.51,0.28 1.26,0.42 2.25,0.43l1.2 0 -0 1.16c-2.05,-0.1 -3.99,-0.15 -5.82,-0.15 -1.78,-0.01 -3.54,0.04 -5.28,0.13l0 -1.16 1.93 -0.16c0.68,-0.05 1.11,-0.18 1.29,-0.38 0.18,-0.2 0.3,-0.85 0.36,-1.95 0.1,-1.93 0.15,-4.21 0.16,-6.86 0.01,-3.22 -0.12,-5.12 -0.37,-5.68 -0.17,-0.36 -0.72,-0.54 -1.64,-0.54l-1.69 -0 0 -1.17c1.3,-0.14 2.46,-0.33 3.47,-0.56 1.02,-0.23 1.92,-0.53 2.71,-0.89 0.19,-0.09 0.34,-0.14 0.46,-0.14 0.15,0 0.25,0.04 0.3,0.12 0.05,0.08 0.08,0.26 0.08,0.54l-0.09 3.99z"/>
  <path class="fil0" d="M254.98 124.01c-3.72,0.79 -6.08,1.54 -7.09,2.24 -1,0.7 -1.51,1.78 -1.51,3.25 0,0.99 0.28,1.78 0.86,2.38 0.58,0.59 1.32,0.89 2.23,0.89 1,0 1.97,-0.27 2.88,-0.83 0.92,-0.56 1.79,-1.39 2.63,-2.5l-0.03 -4.44 0.04 -0.98zm-10.57 -3.21l0.02 -1.34 -0.02 -1.39 2.19 -1.24c0.99,-0.56 1.86,-0.95 2.6,-1.16 0.74,-0.21 1.54,-0.32 2.38,-0.32 1.85,0.01 3.34,0.42 4.46,1.26 1.13,0.83 1.81,1.89 2.03,3.17 0.16,0.96 0.25,3.35 0.28,7.16 0.02,3.6 0.09,5.58 0.23,5.95 0.13,0.38 0.47,0.56 1,0.56l1.57 0.01 -0.01 1.32c-1.52,-0.1 -2.59,-0.15 -3.19,-0.15 -0.75,-0 -1.75,0.04 -3.01,0.13l0.02 -1.79c0,-0.58 -0.01,-1.16 -0.02,-1.74l-4.16 3.16c-0.38,0.28 -0.74,0.48 -1.11,0.59 -0.36,0.11 -0.87,0.17 -1.51,0.17 -1.73,-0 -3.04,-0.43 -3.95,-1.28 -0.91,-0.85 -1.36,-1.99 -1.36,-3.42 0,-1.35 0.33,-2.53 0.98,-3.53 0.65,-1.01 1.58,-1.75 2.78,-2.23 1.2,-0.48 3.98,-1.1 8.34,-1.86 -0.02,-1.7 -0.39,-2.97 -1.11,-3.81 -0.91,-1.06 -2.2,-1.59 -3.89,-1.6 -0.64,0 -1.24,0.07 -1.81,0.23 -0.56,0.16 -1.08,0.39 -1.57,0.7 -0.39,0.96 -0.75,1.87 -1.07,2.75l-1.12 -0.3z"/>
  <path class="fil0" d="M262.09 134.79l-0.2 -0.95c1.3,-1.41 3.06,-3.48 5.29,-6.2 3.02,-3.7 5.72,-7.15 8.09,-10.32 -3.34,0.01 -5.87,0.06 -7.57,0.17 -1.16,0.06 -1.84,0.18 -2.02,0.35 -0.18,0.17 -0.35,0.73 -0.5,1.69l-0.28 1.71 -1.16 -0c0.15,-1.29 0.23,-2.43 0.23,-3.41l-0.04 -1.87 0.16 -0.16c4.09,0.1 7.2,0.16 9.31,0.16 2.23,0 4.44,-0.04 6.6,-0.12l0 1.1c-0.7,0.76 -1.38,1.55 -2.05,2.38l-3.16 3.92c-1.33,1.64 -3.92,4.97 -7.77,9.98l2.55 0.05c2.78,0.01 5.19,-0.08 7.23,-0.26 0.79,-0.08 1.3,-0.24 1.52,-0.48 0.23,-0.24 0.46,-1.06 0.71,-2.47l0.22 -1.2 1.18 0c-0.33,2.48 -0.48,4.41 -0.47,5.78 -0.93,0.1 -1.95,0.15 -3.07,0.15l-7.29 -0.1c-2.98,-0.01 -5.49,0.04 -7.53,0.12z"/>
  <path class="fil0" d="M295.52 122.36c0,-1.68 -0.42,-3.03 -1.28,-4.05 -0.85,-1.02 -1.93,-1.54 -3.24,-1.54 -1.29,-0 -2.32,0.41 -3.11,1.24 -0.79,0.83 -1.18,1.99 -1.19,3.46 -0.01,1.79 0.42,3.19 1.27,4.21 0.85,1.02 1.92,1.52 3.2,1.53 1.29,0.01 2.33,-0.42 3.13,-1.27 0.8,-0.85 1.2,-2.04 1.21,-3.58zm-5.52 12.77c-0.95,-0 -1.6,0.1 -1.94,0.32 -1.13,0.72 -1.81,1.3 -2.05,1.75 -0.4,0.69 -0.61,1.57 -0.61,2.63 -0,1.46 0.54,2.67 1.61,3.62 1.08,0.95 2.58,1.44 4.51,1.44 1.48,0 2.78,-0.27 3.91,-0.82 1.12,-0.55 2,-1.3 2.62,-2.26 0.62,-0.95 0.94,-1.94 0.94,-2.96 0,-0.87 -0.21,-1.64 -0.64,-2.29 -0.43,-0.66 -0.95,-1.08 -1.55,-1.27 -0.31,-0.09 -1.01,-0.14 -2.1,-0.14l-4.69 -0.01zm8.55 -15.94c0.31,0.86 0.46,1.56 0.46,2.11 -0,1.19 -0.37,2.34 -1.09,3.45 -0.73,1.1 -1.76,1.99 -3.1,2.67 -1.34,0.67 -2.79,1.01 -4.34,1.01l-0.94 -0.02c-0.88,0.65 -1.44,1.14 -1.68,1.46 -0.23,0.32 -0.35,0.63 -0.35,0.94 -0,0.51 0.26,0.91 0.78,1.2 0.52,0.3 1.58,0.44 3.19,0.45 0.61,0 1.5,-0.02 2.65,-0.06 1.65,-0.07 2.84,-0.11 3.57,-0.11 1.06,0 1.87,0.18 2.43,0.52 0.56,0.34 1.04,0.94 1.44,1.79 0.4,0.85 0.6,1.81 0.6,2.89 -0,1.5 -0.46,2.94 -1.38,4.31 -0.91,1.37 -2.24,2.47 -3.98,3.3 -1.74,0.83 -3.74,1.24 -6,1.23 -2.76,-0.01 -4.88,-0.61 -6.36,-1.81 -1.48,-1.2 -2.22,-2.68 -2.22,-4.43 0,-1.08 0.39,-2.18 1.17,-3.29 1.39,-0.65 2.56,-1.31 3.52,-1.98 -1.1,-0.36 -1.8,-0.69 -2.12,-0.99 -0.31,-0.3 -0.47,-0.69 -0.47,-1.16 0,-0.56 0.16,-1.11 0.46,-1.66 0.17,-0.33 0.62,-0.74 1.33,-1.22l1.95 -1.38c-1.6,-0.4 -2.76,-0.98 -3.46,-1.72 -0.93,-0.99 -1.4,-2.26 -1.4,-3.8 0.01,-1.35 0.36,-2.59 1.06,-3.7 0.7,-1.11 1.72,-1.99 3.08,-2.62 1.73,-0.81 3.39,-1.22 5,-1.22 1.02,0 1.91,0.14 2.68,0.41 0.77,0.27 1.55,0.72 2.35,1.37l1.69 0c1.74,0.01 3.09,-0.05 4.05,-0.17l0.22 0.43c-0.4,0.58 -0.76,1.19 -1.07,1.82l-3.71 -0.01z"/>
  <path class="fil0" d="M307.64 123.84c-0.01,2.76 0.55,5.12 1.68,7.09 1.13,1.97 2.75,2.95 4.88,2.96 1.62,0 2.93,-0.61 3.93,-1.84 1,-1.23 1.5,-3.1 1.51,-5.6 0.01,-2.02 -0.29,-3.77 -0.87,-5.26 -0.58,-1.48 -1.36,-2.56 -2.32,-3.24 -0.96,-0.68 -2.04,-1.02 -3.23,-1.02 -1.06,-0 -2.01,0.26 -2.86,0.8 -0.85,0.53 -1.48,1.25 -1.88,2.15 -0.55,1.22 -0.83,2.54 -0.83,3.98zm-3.78 1.41c0,-1.85 0.43,-3.52 1.29,-5.01 0.86,-1.49 2.07,-2.66 3.61,-3.5 1.55,-0.84 3.3,-1.26 5.27,-1.25 2.85,0.01 5.13,0.86 6.84,2.55 1.71,1.69 2.56,3.94 2.55,6.75 -0.01,3.32 -1.13,5.95 -3.37,7.9 -2,1.75 -4.39,2.62 -7.17,2.61 -2.67,-0.01 -4.85,-0.91 -6.53,-2.72 -1.67,-1.8 -2.51,-4.25 -2.5,-7.34z"/>
  <path class="fil0" d="M340.85 130.66c0.85,0.97 1.7,1.65 2.56,2.05 0.85,0.41 1.78,0.61 2.77,0.61 2.11,0 3.73,-0.79 4.85,-2.38 1.13,-1.59 1.69,-3.48 1.7,-5.68 0,-1.47 -0.25,-2.73 -0.76,-3.78 -0.51,-1.05 -1.26,-1.88 -2.25,-2.48 -0.99,-0.6 -2.05,-0.9 -3.19,-0.9 -0.8,-0 -1.59,0.16 -2.35,0.48 -0.77,0.32 -1.44,0.76 -2.02,1.33 -0.58,0.57 -0.95,1.09 -1.11,1.57 -0.12,0.36 -0.18,1.32 -0.19,2.87l-0.01 6.3zm0.03 -11.04l2.81 -2.48c0.71,-0.63 1.31,-1.02 1.81,-1.18 0.79,-0.25 1.71,-0.38 2.77,-0.38 2.38,0.01 4.3,0.75 5.77,2.22 1.47,1.48 2.2,3.38 2.19,5.71 -0,1.16 -0.17,2.31 -0.51,3.44 -0.34,1.13 -0.75,2.05 -1.23,2.77 -0.48,0.71 -1.03,1.31 -1.63,1.79 -0.2,0.16 -1.02,0.69 -2.45,1.58l-0.8 0.58c-1.02,0.71 -1.84,1.17 -2.46,1.39 -0.62,0.22 -1.33,0.33 -2.14,0.33 -0.63,-0 -1.29,-0.09 -1.98,-0.28 -0.69,-0.18 -1.42,-0.45 -2.18,-0.8l-0.01 2.83c-0.01,2.9 0.03,4.95 0.11,6.14 0.04,0.53 0.2,0.9 0.5,1.14 0.29,0.23 0.92,0.35 1.86,0.36l1.08 0 -0 1.13c-2.53,-0.1 -4.39,-0.15 -5.57,-0.16 -1.3,-0 -2.96,0.04 -4.97,0.13l0 -1.12 1.47 0c1.03,0 1.64,-0.22 1.83,-0.66 0.19,-0.44 0.29,-2.8 0.3,-7.07l0.03 -12.33c0.01,-2.14 -0.04,-3.79 -0.15,-4.96 -0.05,-0.56 -0.18,-0.93 -0.39,-1.12 -0.21,-0.18 -0.69,-0.27 -1.45,-0.27l-1.57 -0 0 -1.24c1.86,-0.2 3.7,-0.57 5.5,-1.13l1.23 -0.48c0.22,0 0.32,0.19 0.32,0.56l-0.06 2.13 -0.02 1.42z"/>
  <path class="fil0" d="M370.21 124.28c-3.72,0.79 -6.08,1.54 -7.09,2.24 -1.01,0.7 -1.51,1.78 -1.52,3.25 0,0.99 0.28,1.78 0.86,2.38 0.58,0.59 1.32,0.89 2.23,0.9 1,0 1.97,-0.27 2.88,-0.83 0.92,-0.56 1.79,-1.39 2.63,-2.5l-0.03 -4.45 0.04 -0.98zm-10.57 -3.21l0.02 -1.34 -0.02 -1.39 2.19 -1.24c0.99,-0.56 1.86,-0.94 2.6,-1.16 0.74,-0.21 1.54,-0.32 2.38,-0.31 1.85,0 3.34,0.42 4.46,1.25 1.13,0.83 1.81,1.89 2.03,3.17 0.16,0.97 0.25,3.35 0.28,7.16 0.02,3.6 0.09,5.58 0.23,5.96 0.13,0.37 0.47,0.56 1,0.56l1.57 0.01 -0.01 1.32c-1.53,-0.1 -2.59,-0.14 -3.19,-0.15 -0.75,-0 -1.75,0.04 -3.01,0.13l0.02 -1.79c0,-0.58 -0.01,-1.16 -0.02,-1.74l-4.16 3.16c-0.38,0.28 -0.74,0.48 -1.1,0.59 -0.36,0.11 -0.87,0.17 -1.51,0.17 -1.73,-0 -3.04,-0.43 -3.95,-1.28 -0.91,-0.85 -1.36,-1.99 -1.36,-3.42 0,-1.35 0.33,-2.53 0.98,-3.53 0.65,-1 1.57,-1.75 2.78,-2.23 1.2,-0.48 3.98,-1.1 8.34,-1.86 -0.02,-1.7 -0.39,-2.97 -1.11,-3.81 -0.91,-1.06 -2.2,-1.59 -3.89,-1.6 -0.64,0 -1.24,0.08 -1.81,0.23 -0.56,0.16 -1.08,0.39 -1.57,0.71 -0.39,0.95 -0.75,1.87 -1.07,2.75l-1.12 -0.3z"/>
  <path class="fil0" d="M383.91 120.22c0.54,-0.51 1.12,-1.17 1.76,-2 0.75,-0.98 1.45,-1.64 2.1,-2 0.64,-0.36 1.32,-0.54 2.03,-0.54 0.74,0 1.3,0.09 1.69,0.27 0.19,0.08 0.28,0.21 0.28,0.38l-0.02 0.2c-0.22,1.08 -0.34,2.6 -0.37,4.56l-0.9 -0c-0.31,-0.68 -0.67,-1.17 -1.09,-1.45 -0.42,-0.28 -0.92,-0.42 -1.51,-0.43 -0.79,0 -1.52,0.27 -2.19,0.8 -0.68,0.53 -1.13,1.28 -1.36,2.24 -0.23,0.96 -0.35,2.85 -0.36,5.67 -0,1.86 0.07,3.42 0.21,4.69 0.05,0.47 0.19,0.76 0.4,0.88 0.51,0.28 1.26,0.43 2.25,0.43l1.2 0 -0 1.16c-2.04,-0.1 -3.99,-0.15 -5.82,-0.15 -1.78,-0 -3.54,0.04 -5.28,0.13l0 -1.16 1.93 -0.15c0.68,-0.05 1.11,-0.18 1.29,-0.38 0.18,-0.2 0.3,-0.85 0.36,-1.95 0.1,-1.93 0.15,-4.21 0.16,-6.86 0.01,-3.22 -0.11,-5.12 -0.37,-5.68 -0.17,-0.36 -0.72,-0.54 -1.64,-0.54l-1.69 -0.01 0 -1.16c1.3,-0.14 2.46,-0.33 3.48,-0.56 1.02,-0.23 1.92,-0.53 2.71,-0.89 0.19,-0.09 0.34,-0.14 0.46,-0.14 0.15,0 0.25,0.04 0.3,0.12 0.05,0.08 0.08,0.26 0.08,0.54l-0.09 3.99z"/>
  <path class="fil0" d="M404.95 124.37c-3.72,0.79 -6.09,1.54 -7.09,2.24 -1,0.7 -1.51,1.78 -1.51,3.25 -0,0.99 0.28,1.78 0.86,2.38 0.58,0.59 1.32,0.89 2.23,0.9 1,0 1.96,-0.27 2.88,-0.83 0.92,-0.56 1.79,-1.39 2.63,-2.5l-0.03 -4.45 0.04 -0.98zm-10.57 -3.21l0.02 -1.34 -0.02 -1.39 2.19 -1.24c0.99,-0.56 1.86,-0.94 2.6,-1.16 0.74,-0.21 1.54,-0.32 2.38,-0.31 1.85,0 3.33,0.42 4.47,1.25 1.13,0.83 1.8,1.89 2.03,3.17 0.16,0.97 0.25,3.35 0.29,7.16 0.02,3.6 0.09,5.58 0.22,5.95 0.13,0.38 0.47,0.56 1,0.56l1.56 0.01 -0 1.32c-1.52,-0.1 -2.59,-0.15 -3.19,-0.15 -0.75,-0 -1.75,0.04 -3.01,0.13l0.02 -1.79c0,-0.57 -0,-1.16 -0.01,-1.74l-4.16 3.16c-0.38,0.28 -0.74,0.48 -1.1,0.59 -0.36,0.11 -0.86,0.17 -1.5,0.17 -1.73,-0 -3.04,-0.43 -3.95,-1.28 -0.91,-0.85 -1.36,-1.99 -1.36,-3.42 0,-1.35 0.33,-2.53 0.98,-3.53 0.65,-1.01 1.57,-1.75 2.77,-2.23 1.2,-0.48 3.98,-1.1 8.35,-1.86 -0.02,-1.7 -0.4,-2.97 -1.11,-3.82 -0.91,-1.06 -2.21,-1.59 -3.89,-1.6 -0.64,0 -1.24,0.07 -1.81,0.23 -0.56,0.16 -1.08,0.39 -1.57,0.7 -0.39,0.96 -0.75,1.87 -1.07,2.75l-1.12 -0.3z"/>
  <path class="fil0" d="M156.48 151.94c-0.24,3.92 -0.36,7.47 -0.37,10.64l-0.02 10.32c-0.01,4.1 0.07,6.42 0.25,6.97 0.09,0.28 0.53,0.46 1.32,0.54l1.71 0.18 -0 1.17c-1.46,-0.1 -2.86,-0.15 -4.18,-0.15 -1.47,-0 -3.41,0.04 -5.79,0.13l0 -1.16 1.73 -0.14c0.76,-0.06 1.2,-0.26 1.31,-0.58 0.17,-0.52 0.27,-2.9 0.28,-7.12l0.02 -10.26 -0.01 -3.85 -0.05 -2.63c0,-0.66 -0.07,-1.06 -0.22,-1.21 -0.21,-0.21 -0.66,-0.32 -1.34,-0.33l-1.65 -0 0 -1.21c2.79,-0.25 5.02,-0.76 6.68,-1.55l0.34 0.24z"/>
  <path class="fil0" d="M172.81 171.03c-3.72,0.79 -6.08,1.54 -7.09,2.24 -1,0.7 -1.51,1.78 -1.51,3.25 0,0.99 0.28,1.78 0.86,2.38 0.58,0.59 1.32,0.89 2.23,0.9 1,0 1.97,-0.27 2.88,-0.83 0.92,-0.56 1.79,-1.39 2.63,-2.5l-0.03 -4.44 0.04 -0.98zm-10.57 -3.22l0.02 -1.34 -0.02 -1.39 2.19 -1.24c0.99,-0.56 1.86,-0.94 2.6,-1.16 0.74,-0.21 1.54,-0.32 2.38,-0.32 1.85,0.01 3.34,0.42 4.46,1.26 1.13,0.83 1.8,1.89 2.03,3.17 0.16,0.96 0.25,3.35 0.28,7.16 0.02,3.6 0.09,5.58 0.22,5.95 0.13,0.38 0.47,0.56 1,0.56l1.57 0 -0.01 1.33c-1.52,-0.1 -2.59,-0.15 -3.19,-0.15 -0.75,-0 -1.75,0.04 -3.01,0.13l0.03 -1.79c0,-0.58 -0.01,-1.16 -0.02,-1.75l-4.16 3.16c-0.38,0.28 -0.74,0.48 -1.11,0.59 -0.36,0.11 -0.87,0.17 -1.51,0.17 -1.73,-0 -3.04,-0.43 -3.95,-1.28 -0.91,-0.85 -1.36,-1.99 -1.36,-3.42 0,-1.35 0.33,-2.53 0.98,-3.53 0.65,-1.01 1.58,-1.75 2.78,-2.23 1.2,-0.48 3.98,-1.1 8.34,-1.86 -0.02,-1.7 -0.39,-2.97 -1.11,-3.81 -0.91,-1.06 -2.2,-1.59 -3.89,-1.6 -0.64,-0 -1.24,0.07 -1.81,0.23 -0.56,0.16 -1.09,0.39 -1.57,0.7 -0.39,0.96 -0.75,1.87 -1.07,2.75l-1.12 -0.3z"/>
  <path class="fil0" d="M203.98 167.37c1.31,1.89 2.93,4.09 4.86,6.6l3.84 5.01c0.68,0.86 1.13,1.35 1.36,1.47 0.23,0.12 0.46,0.18 0.7,0.18l0.52 0 -0 1.27c-1.11,-0.1 -2.08,-0.15 -2.91,-0.15 -0.76,0 -1.57,0.04 -2.41,0.14l-7.08 -9.61c-1.32,-1.77 -2.73,-3.5 -4.24,-5.19l0.2 -0.68c0.77,0.07 1.35,0.1 1.73,0.1 2.23,0.01 3.99,-0.56 5.25,-1.71 1.27,-1.15 1.9,-2.69 1.91,-4.61 0.01,-1.73 -0.53,-3.08 -1.6,-4.05 -1.07,-0.97 -2.61,-1.46 -4.63,-1.47 -1.4,-0 -2.82,0.25 -4.24,0.77 -0.17,2.13 -0.25,4.4 -0.26,6.83l-0.02 9.7c-0.01,4.72 0.09,7.34 0.32,7.86 0.22,0.52 0.96,0.78 2.2,0.78l1.57 0 -0 1.26c-2.22,-0.1 -4.06,-0.15 -5.52,-0.15 -1.15,-0 -3.23,0.04 -6.24,0.13l0 -1.26 1.51 0c1.15,0 1.83,-0.25 2.05,-0.75 0.21,-0.5 0.33,-3.14 0.34,-7.92l0.02 -9.65c0.01,-4.15 -0.11,-6.47 -0.35,-6.96 -0.25,-0.5 -1.05,-0.75 -2.42,-0.75l-1.08 -0 0 -1.26c2.49,0.1 4.39,0.15 5.7,0.15 0.88,0 2.15,-0.03 3.81,-0.09 1.93,-0.06 3.31,-0.09 4.15,-0.09 2.32,0.01 4.07,0.25 5.27,0.74 1.2,0.49 2.1,1.2 2.72,2.13 0.62,0.92 0.93,2.03 0.92,3.32 -0,1.89 -0.69,3.55 -2.05,4.99 -1.36,1.44 -3.34,2.43 -5.92,2.96z"/>
  <path class="fil0" d="M219.59 170.68c2.07,0.1 4.36,0.15 6.86,0.16 1,0 1.97,-0.04 2.91,-0.13l0 -1.13c0,-1.18 -0.23,-2.29 -0.69,-3.35 -0.29,-0.65 -0.81,-1.2 -1.54,-1.64 -0.74,-0.43 -1.58,-0.66 -2.55,-0.66 -1.5,-0 -2.7,0.54 -3.6,1.64 -0.9,1.1 -1.37,2.8 -1.4,5.12zm-0.04 1.51c0.06,2.64 0.73,4.64 2.01,6 1.28,1.37 2.96,2.05 5.05,2.06 0.93,0 1.86,-0.15 2.79,-0.45 0.92,-0.3 1.84,-0.77 2.75,-1.38l0.34 0.3 -0.64 1.68c-1.11,0.64 -2.26,1.12 -3.44,1.44 -1.18,0.32 -2.39,0.48 -3.63,0.47 -2.72,-0.01 -4.91,-0.87 -6.57,-2.59 -1.66,-1.72 -2.49,-4.06 -2.49,-7 0.01,-2.25 0.48,-4.19 1.42,-5.84 0.62,-1.08 1.76,-2.08 3.42,-3 1.66,-0.92 3.27,-1.38 4.84,-1.37 2.37,0.01 4.24,0.71 5.63,2.1 1.38,1.4 2.07,3.35 2.06,5.85l-0.04 1.19c-0.88,0.21 -1.72,0.35 -2.53,0.42 -1.43,0.1 -3.41,0.15 -5.95,0.15l-5.01 -0.01z"/>
  <path class="fil0" d="M248.17 169.46c0,-1.68 -0.42,-3.03 -1.28,-4.05 -0.85,-1.02 -1.93,-1.53 -3.23,-1.54 -1.29,-0 -2.33,0.41 -3.11,1.24 -0.79,0.83 -1.18,1.99 -1.18,3.46 -0.01,1.79 0.42,3.19 1.27,4.2 0.85,1.02 1.92,1.53 3.2,1.53 1.29,0 2.33,-0.42 3.13,-1.27 0.8,-0.85 1.2,-2.04 1.21,-3.57zm-5.52 12.77c-0.95,0 -1.6,0.1 -1.94,0.32 -1.13,0.72 -1.81,1.3 -2.05,1.75 -0.41,0.69 -0.61,1.57 -0.61,2.63 -0,1.46 0.53,2.67 1.62,3.62 1.08,0.95 2.58,1.43 4.51,1.44 1.48,0 2.79,-0.27 3.91,-0.82 1.12,-0.55 2,-1.3 2.62,-2.26 0.62,-0.96 0.94,-1.94 0.94,-2.96 0,-0.87 -0.22,-1.64 -0.65,-2.29 -0.43,-0.66 -0.95,-1.08 -1.55,-1.27 -0.31,-0.09 -1.01,-0.14 -2.1,-0.14l-4.69 -0.01zm8.55 -15.94c0.31,0.86 0.46,1.56 0.46,2.11 -0,1.19 -0.37,2.34 -1.09,3.45 -0.73,1.1 -1.76,1.99 -3.1,2.67 -1.34,0.68 -2.79,1.01 -4.34,1.01l-0.94 -0.02c-0.88,0.65 -1.44,1.14 -1.68,1.46 -0.23,0.32 -0.35,0.63 -0.35,0.94 -0,0.51 0.26,0.91 0.78,1.2 0.52,0.3 1.58,0.44 3.19,0.45 0.62,0 1.5,-0.02 2.65,-0.06 1.65,-0.07 2.84,-0.11 3.57,-0.11 1.06,0 1.87,0.18 2.43,0.52 0.56,0.34 1.04,0.94 1.44,1.79 0.4,0.85 0.6,1.81 0.6,2.89 -0,1.5 -0.46,2.94 -1.37,4.31 -0.92,1.37 -2.24,2.47 -3.98,3.3 -1.74,0.83 -3.74,1.24 -6.01,1.23 -2.76,-0.01 -4.88,-0.61 -6.36,-1.81 -1.48,-1.2 -2.22,-2.68 -2.22,-4.43 0,-1.08 0.39,-2.18 1.17,-3.29 1.39,-0.65 2.56,-1.31 3.52,-1.98 -1.1,-0.36 -1.8,-0.69 -2.12,-0.99 -0.31,-0.3 -0.47,-0.69 -0.47,-1.16 0,-0.56 0.16,-1.11 0.46,-1.66 0.17,-0.33 0.62,-0.74 1.33,-1.22l1.95 -1.38c-1.6,-0.41 -2.76,-0.98 -3.47,-1.72 -0.93,-0.99 -1.4,-2.26 -1.4,-3.8 0,-1.35 0.35,-2.59 1.05,-3.7 0.7,-1.11 1.72,-1.99 3.08,-2.63 1.73,-0.81 3.39,-1.22 5,-1.21 1.02,0 1.91,0.14 2.68,0.41 0.77,0.27 1.55,0.72 2.36,1.37l1.69 0c1.74,0.01 3.09,-0.05 4.06,-0.17l0.22 0.43c-0.4,0.58 -0.76,1.18 -1.07,1.82l-3.71 -0.01z"/>
  <path class="fil0" d="M260.09 170.78c2.07,0.1 4.36,0.15 6.86,0.16 1.01,0 1.97,-0.04 2.91,-0.13l0 -1.13c0,-1.18 -0.23,-2.29 -0.69,-3.35 -0.29,-0.66 -0.81,-1.21 -1.54,-1.64 -0.74,-0.43 -1.58,-0.65 -2.55,-0.66 -1.5,-0 -2.7,0.54 -3.6,1.64 -0.9,1.1 -1.37,2.8 -1.4,5.11zm-0.04 1.51c0.06,2.64 0.73,4.64 2.01,6 1.28,1.37 2.96,2.06 5.04,2.06 0.93,0 1.86,-0.15 2.79,-0.45 0.92,-0.3 1.84,-0.77 2.75,-1.38l0.34 0.3 -0.64 1.68c-1.11,0.64 -2.26,1.12 -3.44,1.44 -1.18,0.32 -2.39,0.48 -3.63,0.48 -2.72,-0.01 -4.91,-0.87 -6.57,-2.6 -1.66,-1.72 -2.49,-4.06 -2.49,-7 0.01,-2.25 0.48,-4.19 1.42,-5.84 0.62,-1.08 1.76,-2.08 3.42,-3 1.66,-0.92 3.27,-1.38 4.84,-1.37 2.37,0.01 4.24,0.71 5.63,2.1 1.38,1.4 2.07,3.35 2.06,5.85l-0.04 1.19c-0.88,0.21 -1.72,0.35 -2.53,0.42 -1.43,0.1 -3.41,0.15 -5.95,0.15l-5.01 -0.01z"/>
  <path class="fil0" d="M280.99 166.47l3.04 -2.68c0.36,-0.32 0.74,-0.55 1.15,-0.7 0.88,-0.29 1.77,-0.44 2.65,-0.43 1.43,0 2.67,0.3 3.72,0.88 1.04,0.58 1.79,1.34 2.25,2.28 0.45,0.93 0.68,2.38 0.67,4.37l-0.09 6.32c-0.01,2.18 0.08,3.44 0.27,3.77 0.25,0.43 0.74,0.65 1.48,0.65l1.44 0 -0 1.17c-1.43,-0.1 -2.66,-0.15 -3.7,-0.15 -1.01,-0 -2.1,0.04 -3.26,0.13 0.26,-2.61 0.4,-6.13 0.41,-10.58 0,-1.79 -0.15,-3.06 -0.46,-3.82 -0.31,-0.75 -0.84,-1.35 -1.58,-1.81 -0.74,-0.45 -1.64,-0.69 -2.69,-0.69 -1.3,-0 -2.4,0.32 -3.31,0.98 -0.91,0.65 -1.47,1.37 -1.68,2.16 -0.14,0.52 -0.21,1.89 -0.21,4.1 -0,2.45 0.01,4.72 0.04,6.82 0.02,0.63 0.11,1.03 0.28,1.19 0.34,0.31 0.89,0.46 1.66,0.46l1.43 0.01 -0 1.16c-2.26,-0.1 -4.07,-0.15 -5.41,-0.15 -1.42,-0 -3.04,0.04 -4.85,0.13l0 -1.16 1.44 0c0.99,0 1.57,-0.23 1.74,-0.69 0.17,-0.46 0.26,-3.24 0.27,-8.33 0.01,-2.29 -0.02,-4.08 -0.07,-5.38 -0.03,-0.43 -0.13,-0.72 -0.32,-0.88 -0.19,-0.16 -0.72,-0.24 -1.58,-0.24l-1.44 -0 0 -1.16c1.15,-0.13 2.18,-0.31 3.08,-0.53 0.91,-0.22 1.93,-0.57 3.06,-1.04 0.12,-0.05 0.23,-0.08 0.34,-0.08 0.21,0 0.32,0.16 0.32,0.46l-0.02 0.76 -0.05 2.71z"/>
  <path class="fil0" d="M301.65 170.87c2.07,0.1 4.36,0.15 6.86,0.16 1.01,0 1.97,-0.04 2.91,-0.13l0 -1.13c0,-1.18 -0.23,-2.29 -0.69,-3.35 -0.29,-0.66 -0.81,-1.21 -1.54,-1.64 -0.74,-0.43 -1.58,-0.65 -2.55,-0.66 -1.5,-0 -2.7,0.54 -3.6,1.64 -0.9,1.1 -1.37,2.8 -1.4,5.12zm-0.04 1.51c0.06,2.64 0.73,4.64 2.01,6 1.28,1.37 2.96,2.06 5.05,2.06 0.93,0 1.86,-0.15 2.79,-0.45 0.92,-0.3 1.84,-0.77 2.75,-1.38l0.34 0.3 -0.64 1.68c-1.11,0.64 -2.26,1.12 -3.44,1.44 -1.18,0.32 -2.39,0.48 -3.63,0.48 -2.72,-0.01 -4.91,-0.87 -6.57,-2.6 -1.66,-1.72 -2.49,-4.06 -2.48,-7 0.01,-2.25 0.48,-4.19 1.42,-5.84 0.62,-1.08 1.76,-2.08 3.42,-3 1.66,-0.92 3.27,-1.38 4.84,-1.37 2.37,0.01 4.24,0.71 5.63,2.1 1.38,1.4 2.07,3.35 2.06,5.85l-0.04 1.19c-0.88,0.21 -1.72,0.35 -2.53,0.42 -1.43,0.1 -3.41,0.15 -5.95,0.15l-5.01 -0.01z"/>
  <path class="fil0" d="M322.91 167.29c0.54,-0.51 1.12,-1.17 1.76,-2 0.75,-0.97 1.45,-1.64 2.1,-2 0.64,-0.36 1.32,-0.54 2.03,-0.54 0.74,0 1.3,0.09 1.69,0.27 0.19,0.08 0.28,0.21 0.28,0.38l-0.02 0.2c-0.22,1.08 -0.34,2.6 -0.37,4.56l-0.9 -0c-0.31,-0.68 -0.67,-1.17 -1.09,-1.45 -0.42,-0.28 -0.92,-0.42 -1.51,-0.43 -0.79,0 -1.52,0.27 -2.2,0.8 -0.67,0.53 -1.13,1.28 -1.36,2.24 -0.23,0.96 -0.35,2.85 -0.35,5.67 -0,1.86 0.07,3.42 0.21,4.69 0.05,0.47 0.19,0.77 0.4,0.88 0.51,0.28 1.26,0.43 2.25,0.43l1.2 0 -0 1.16c-2.05,-0.1 -3.99,-0.15 -5.82,-0.15 -1.78,-0.01 -3.54,0.04 -5.28,0.13l0 -1.17 1.93 -0.15c0.68,-0.05 1.11,-0.18 1.29,-0.38 0.18,-0.2 0.3,-0.85 0.36,-1.95 0.1,-1.93 0.15,-4.21 0.16,-6.86 0.01,-3.22 -0.11,-5.12 -0.37,-5.68 -0.17,-0.36 -0.72,-0.54 -1.64,-0.54l-1.69 -0.01 0 -1.16c1.3,-0.14 2.46,-0.33 3.48,-0.56 1.02,-0.23 1.92,-0.53 2.71,-0.88 0.19,-0.09 0.34,-0.14 0.46,-0.14 0.15,0 0.25,0.04 0.3,0.12 0.05,0.08 0.08,0.26 0.08,0.55l-0.09 3.99z"/>
  <path class="fil0" d="M343.96 171.44c-3.72,0.79 -6.08,1.54 -7.09,2.24 -1,0.7 -1.51,1.78 -1.51,3.25 0,0.99 0.28,1.78 0.86,2.38 0.58,0.59 1.32,0.89 2.23,0.9 1,0 1.96,-0.27 2.88,-0.83 0.92,-0.56 1.79,-1.39 2.63,-2.5l-0.03 -4.44 0.04 -0.98zm-10.57 -3.22l0.02 -1.34 -0.02 -1.39 2.19 -1.24c0.99,-0.56 1.86,-0.94 2.6,-1.16 0.74,-0.21 1.54,-0.32 2.38,-0.32 1.85,0 3.33,0.42 4.46,1.25 1.13,0.83 1.8,1.89 2.03,3.17 0.16,0.96 0.25,3.35 0.29,7.16 0.02,3.6 0.09,5.58 0.22,5.96 0.13,0.37 0.47,0.56 1,0.56l1.56 0 -0 1.32c-1.52,-0.1 -2.59,-0.14 -3.19,-0.15 -0.75,-0 -1.75,0.04 -3.01,0.13l0.03 -1.79c0,-0.57 -0.01,-1.16 -0.02,-1.74l-4.16 3.16c-0.38,0.28 -0.74,0.48 -1.11,0.59 -0.36,0.11 -0.87,0.17 -1.51,0.17 -1.73,-0 -3.04,-0.43 -3.95,-1.28 -0.91,-0.85 -1.36,-1.99 -1.36,-3.42 0.01,-1.35 0.33,-2.53 0.98,-3.54 0.65,-1.01 1.58,-1.75 2.78,-2.23 1.2,-0.48 3.98,-1.1 8.34,-1.86 -0.02,-1.7 -0.4,-2.97 -1.11,-3.82 -0.91,-1.06 -2.2,-1.59 -3.89,-1.6 -0.64,0 -1.24,0.08 -1.81,0.23 -0.56,0.15 -1.08,0.39 -1.57,0.7 -0.39,0.95 -0.75,1.87 -1.07,2.75l-1.12 -0.3z"/>
  <path class="fil0" d="M366.27 179.4l0.54 0.48 -0.83 1.28c-0.91,0.49 -1.85,0.86 -2.82,1.11 -0.96,0.24 -1.95,0.37 -2.95,0.36 -1.97,-0.01 -3.64,-0.38 -5.01,-1.14 -1.37,-0.75 -2.43,-1.84 -3.17,-3.26 -0.75,-1.42 -1.12,-3.11 -1.11,-5.06 0.01,-1.73 0.3,-3.23 0.87,-4.5 0.58,-1.28 1.39,-2.28 2.43,-3 1.04,-0.72 2.33,-1.43 3.89,-2.12 1.1,-0.49 2.32,-0.74 3.68,-0.73 1.03,0 1.92,0.09 2.66,0.26 0.74,0.17 1.54,0.47 2.4,0.9 -0.34,1.77 -0.53,3.54 -0.56,5.31l-1.26 0 0 -1c0,-0.86 -0.12,-1.46 -0.37,-1.82 -0.25,-0.35 -0.81,-0.71 -1.7,-1.05 -0.88,-0.35 -1.84,-0.53 -2.89,-0.53 -1.81,-0.01 -3.2,0.54 -4.18,1.64 -0.98,1.1 -1.48,2.75 -1.48,4.94 -0.01,2.82 0.71,5.08 2.15,6.78 1.29,1.54 2.96,2.31 5.01,2.32 0.8,0 1.59,-0.1 2.37,-0.3 0.78,-0.2 1.55,-0.49 2.31,-0.88z"/>
  <path class="fil0" d="M373.3 153.88c0.61,0 1.14,0.23 1.58,0.68 0.44,0.45 0.66,0.99 0.66,1.62 0,0.63 -0.22,1.16 -0.67,1.6 -0.44,0.44 -0.97,0.66 -1.59,0.66 -0.63,0 -1.16,-0.22 -1.6,-0.67 -0.44,-0.44 -0.66,-0.98 -0.66,-1.61 0,-0.63 0.22,-1.17 0.67,-1.61 0.44,-0.45 0.98,-0.67 1.61,-0.67zm1.58 8.9l0.48 0.3c-0.09,1 -0.16,2.11 -0.19,3.31 -0.1,3.91 -0.16,6.79 -0.16,8.65 -0.01,1.74 0.05,3.22 0.17,4.46 0.05,0.48 0.18,0.82 0.38,1.01 0.2,0.19 0.68,0.33 1.44,0.43l1.37 0.18 -0 1.16c-1.95,-0.1 -3.73,-0.15 -5.34,-0.15 -1.58,-0 -3.17,0.04 -4.78,0.13l0 -1.16 1.73 -0.18c0.67,-0.05 1.08,-0.17 1.23,-0.37 0.15,-0.19 0.25,-0.84 0.3,-1.94 0.07,-1.7 0.11,-4.05 0.12,-7.04 0,-2.08 -0.03,-3.68 -0.09,-4.81 -0.02,-0.42 -0.14,-0.71 -0.35,-0.89 -0.21,-0.17 -0.67,-0.26 -1.39,-0.27l-1.51 -0 0 -1.16c1.63,-0.23 2.83,-0.45 3.61,-0.64 0.77,-0.2 1.76,-0.54 2.98,-1.01z"/>
  <path class="fil0" d="M386.84 161.32l-1.37 -0 5.95 -5.66c0.5,-0.48 0.85,-0.78 1.07,-0.89 0.22,-0.11 0.45,-0.17 0.72,-0.17 0.39,0 0.7,0.12 0.95,0.35 0.25,0.24 0.37,0.53 0.37,0.88 0,0.32 -0.13,0.63 -0.39,0.93 -0.26,0.3 -0.9,0.75 -1.9,1.35l-5.41 3.22zm-3.44 9.92c-0.01,2.76 0.55,5.12 1.68,7.09 1.13,1.97 2.75,2.95 4.88,2.96 1.62,0 2.93,-0.61 3.93,-1.84 1,-1.23 1.5,-3.1 1.51,-5.6 0.01,-2.02 -0.28,-3.78 -0.87,-5.26 -0.59,-1.48 -1.36,-2.56 -2.32,-3.24 -0.96,-0.68 -2.04,-1.02 -3.23,-1.02 -1.06,-0 -2.01,0.26 -2.86,0.8 -0.85,0.53 -1.48,1.25 -1.88,2.15 -0.55,1.22 -0.83,2.54 -0.83,3.98zm-3.78 1.41c0.01,-1.85 0.44,-3.52 1.3,-5.01 0.86,-1.49 2.06,-2.66 3.61,-3.5 1.55,-0.84 3.3,-1.26 5.27,-1.25 2.85,0.01 5.13,0.85 6.84,2.54 1.71,1.69 2.56,3.94 2.55,6.75 -0.01,3.32 -1.13,5.95 -3.37,7.9 -2,1.75 -4.39,2.62 -7.17,2.61 -2.68,-0.01 -4.85,-0.91 -6.53,-2.72 -1.68,-1.8 -2.51,-4.25 -2.5,-7.34z"/>
  <path class="fil0" d="M406.86 166.77l3.04 -2.68c0.36,-0.32 0.75,-0.56 1.15,-0.7 0.88,-0.29 1.77,-0.44 2.65,-0.43 1.43,0 2.67,0.3 3.72,0.88 1.04,0.59 1.79,1.34 2.25,2.27 0.45,0.93 0.68,2.39 0.67,4.37l-0.09 6.33c-0.01,2.18 0.08,3.44 0.27,3.77 0.25,0.43 0.74,0.64 1.48,0.65l1.44 0 -0 1.16c-1.43,-0.1 -2.66,-0.15 -3.7,-0.15 -1.01,-0 -2.1,0.04 -3.26,0.13 0.26,-2.61 0.4,-6.13 0.41,-10.58 0,-1.79 -0.15,-3.06 -0.46,-3.82 -0.31,-0.75 -0.84,-1.35 -1.59,-1.81 -0.74,-0.45 -1.64,-0.69 -2.68,-0.69 -1.3,-0 -2.4,0.32 -3.31,0.98 -0.91,0.65 -1.47,1.37 -1.68,2.16 -0.14,0.52 -0.21,1.89 -0.21,4.1 -0.01,2.45 0.01,4.72 0.04,6.82 0.01,0.63 0.11,1.03 0.28,1.19 0.34,0.31 0.89,0.46 1.66,0.46l1.43 0.01 -0 1.16c-2.27,-0.1 -4.07,-0.15 -5.41,-0.15 -1.42,-0 -3.03,0.04 -4.85,0.13l0 -1.16 1.44 0c0.99,0 1.57,-0.23 1.74,-0.69 0.17,-0.46 0.26,-3.24 0.27,-8.33 0.01,-2.28 -0.02,-4.08 -0.07,-5.37 -0.03,-0.43 -0.13,-0.72 -0.32,-0.88 -0.19,-0.16 -0.71,-0.24 -1.58,-0.24l-1.45 -0 0 -1.16c1.15,-0.13 2.18,-0.31 3.09,-0.53 0.91,-0.23 1.93,-0.57 3.06,-1.04 0.12,-0.05 0.23,-0.08 0.34,-0.08 0.21,0 0.32,0.15 0.32,0.46l-0.02 0.76 -0.05 2.71z"/>
  <path class="fil1" d="M17.8 163.07c-2.6,0.56 -3.99,2.31 -3.99,5.11 -0.01,2.89 1.29,4.64 3.97,5.34l0.02 -10.45zm5.59 10.58c3.29,-0.4 5.04,-2.31 5.05,-5.52 0,-1.63 -0.52,-3.05 -1.5,-4.11 -0.57,-0.61 -1.01,-0.9 -2.07,-1.22l2.01 -7.07c2.11,0.94 3.04,1.55 4.18,2.69 2.27,2.32 3.44,5.58 3.43,9.6 -0.01,3.98 -1.16,7.11 -3.48,9.42 -2.44,2.39 -5.9,3.68 -9.93,3.67 -8.05,-0.02 -13.36,-5.19 -13.34,-12.95 0.02,-6.34 3.48,-10.76 9.54,-12.17 1.3,-0.32 3.01,-0.48 5.32,-0.6 0.16,0 0.41,0 0.81,-0.04l-0.04 18.29z"/>
  <path class="fil1" d="M25.28 145c2.12,-0.4 3.05,-1.78 3.06,-4.5 0.01,-2.44 -0.68,-3.82 -1.94,-3.83 -0.61,0 -1.14,0.32 -1.47,0.89 -0.33,0.57 -0.49,1.1 -0.94,3.33 -0.62,3.09 -1.03,4.67 -1.48,6.01 -0.74,1.95 -1.67,3.29 -2.9,4.06 -1.1,0.65 -2.48,1.01 -3.86,1 -4.88,-0.01 -7.84,-4.12 -7.82,-10.91 0.01,-3.86 0.87,-6.75 2.62,-8.65 1.18,-1.34 2.36,-1.99 4.64,-2.63l0.84 7.85c-1.67,0.2 -2.4,1.21 -2.41,3.41 -0.01,2.11 0.68,3.42 1.74,3.42 1.1,0 1.51,-0.85 2.41,-4.87 0.86,-3.98 1.23,-5.24 1.97,-6.66 1.31,-2.64 3.3,-3.9 6.23,-3.89 2.15,0.01 4.1,0.74 5.4,2.09 1.95,1.95 2.96,5.29 2.95,9.64 -0.01,5.12 -1.4,8.73 -4.09,10.68 -1.14,0.81 -2.12,1.21 -4.07,1.62l-0.87 -8.05z"/>
  <path class="fil1" d="M17.89 108.89c-1.22,0.36 -1.79,0.61 -2.4,1.13 -0.94,0.81 -1.43,1.95 -1.43,3.41 -0.01,3.29 2.59,5.25 7.06,5.26 4.39,0.01 7.24,-2.05 7.25,-5.31 0,-1.58 -0.64,-3.05 -1.78,-3.86 -0.53,-0.37 -0.93,-0.57 -1.87,-0.74l1.2 -7.47c1.75,0.45 2.84,0.94 4.02,1.71 3,2.04 4.66,5.74 4.65,10.46 -0.01,3.9 -1.24,7.23 -3.52,9.46 -2.32,2.35 -5.9,3.64 -9.88,3.64 -8.13,-0.02 -13.32,-5.15 -13.3,-13.08 0.02,-6.26 3.11,-10.6 8.52,-11.93l1.49 7.32z"/>
  <path class="fil1" d="M8.95 72.54c1.91,0.25 3.62,0.33 6.1,0.34l12.56 0.03c2.8,0.01 4.47,-0.07 6.1,-0.31l-0.02 8.09 -1.75 -0.01c-0.2,0 -0.81,0 -1.1,-0.04 2.51,2.69 3.48,5.01 3.47,8.46 -0.01,2.72 -0.78,4.92 -2.29,6.46 -1.63,1.62 -3.62,2.31 -6.83,2.3l-10.2 -0.02c-2.36,-0.01 -4.39,0.11 -6.1,0.31l0.02 -8.46c1.95,0.25 3.66,0.33 6.1,0.34l8.33 0.02c1.67,0 2.4,-0.16 3.05,-0.64 0.73,-0.57 1.14,-1.46 1.14,-2.64 0.01,-2.23 -1.57,-4.51 -4.17,-6.1l-8.33 -0.02c-2.28,-0.01 -3.98,0.07 -6.1,0.31l0.02 -8.41z"/>
  <path class="fil1" d="M18.06 51.3c-2.6,0.56 -3.99,2.31 -3.99,5.11 -0.01,2.89 1.29,4.64 3.97,5.33l0.02 -10.45zm5.59 10.58c3.29,-0.4 5.04,-2.31 5.05,-5.52 0,-1.63 -0.52,-3.05 -1.5,-4.11 -0.57,-0.61 -1.01,-0.9 -2.07,-1.23l2.01 -7.07c2.11,0.94 3.04,1.55 4.18,2.69 2.27,2.32 3.44,5.58 3.43,9.6 -0.01,3.98 -1.16,7.11 -3.48,9.42 -2.44,2.39 -5.9,3.68 -9.93,3.68 -8.05,-0.02 -13.36,-5.2 -13.34,-12.96 0.02,-6.34 3.48,-10.76 9.54,-12.17 1.3,-0.32 3.01,-0.48 5.32,-0.6 0.16,0 0.41,0 0.81,-0.04l-0.04 18.29z"/>
  <path class="fil1" d="M0.02 31.79c1.71,0.25 3.37,0.33 6.14,0.34l21.54 0.05c2.44,0.01 3.98,-0.07 6.14,-0.31l-0.02 8.5c-1.83,-0.25 -3.21,-0.33 -6.14,-0.34l-21.54 -0.05c-2.88,-0.01 -4.59,0.07 -6.14,0.31l0.02 -8.5z"/>
  <path class="fil1" d="M23.03 11.28c0.07,3.62 0.27,5.37 0.8,7.03 0.48,1.46 1.5,2.36 2.67,2.36 1.47,0 2.32,-1.21 2.33,-3.33 0,-1.67 -0.6,-3.5 -1.53,-4.59 -0.81,-0.94 -1.91,-1.47 -3.13,-1.47l-1.14 -0zm-6.14 -0.01c-1.95,-0 -2.85,1.17 -2.85,3.85 -0.01,2.6 0.85,3.99 2.83,4.6l-1.28 7.76c-2.4,-0.82 -3.7,-1.72 -4.91,-3.43 -1.54,-2.2 -2.31,-5.21 -2.3,-9.15 0.01,-3.01 0.59,-5.93 1.44,-7.51 1.43,-2.6 3.67,-3.73 7.33,-3.72l10.97 0.03c2.48,0.01 3.95,-0.07 5.77,-0.27l-0.02 7.88 -1.87 -0c1.74,2.28 2.43,4.56 2.42,7.89 -0.01,3.09 -0.74,5.4 -2.25,7.03 -1.35,1.46 -3.3,2.23 -5.53,2.22 -2.56,-0.01 -4.59,-1.03 -5.93,-2.98 -1.46,-2.07 -2.31,-4.8 -2.62,-8.46 -0.16,-1.59 -0.2,-2.81 -0.27,-5.73l-0.93 -0z"/>
  <path class="fil2" d="M46.26 182.24l84.6 0c0,0 1.05,-1.05 -1.04,-2.09 -2.09,-1.05 -7.83,-4.7 -7.83,-12.01l0 -66.84c0,0 1.04,-10.07 2.72,-20.4 1.23,-7.58 2.82,-15.31 4.59,-19.29 4.18,-9.4 12.54,-28.19 26.11,-35.51 13.58,-7.31 29.24,-7.31 29.24,-7.31 0,0 -20.89,5.22 -31.33,18.8 -10.44,13.58 -14.62,20.88 -14.62,20.88 0,0 14.62,7.31 30.29,5.22 15.67,-2.09 36.55,-13.58 44.91,-33.42 8.36,-19.84 9.4,-29.24 9.4,-29.24 0,0 -5.22,3.13 -13.57,3.13 -8.35,0 -15.66,-4.18 -32.38,-4.18 -16.71,0 -34.46,7.31 -42.82,25.06 -8.35,17.75 -12.53,37.6 -12.53,37.6l0 -26.11c0,0 1.04,-13.58 -10.45,-24.02 -11.49,-10.45 -33.42,-9.4 -33.42,-9.4l-34.47 0c0,0 -2.09,0 -0.52,0.52 0,0 9.4,1.05 9.4,18.8l0 144.13c0,0 1.04,9.4 -8.36,14.62 0,0 -1.04,1.05 2.09,1.05z"/>
 </g>
</svg>
