<?xml version="1.0" encoding="UTF-8"?>
<!DOCTYPE svg PUBLIC "-//W3C//DTD SVG 1.1//EN" "http://www.w3.org/Graphics/SVG/1.1/DTD/svg11.dtd">
<!-- Creator: CorelDRAW -->
<svg xmlns="http://www.w3.org/2000/svg" xml:space="preserve" width="257.381mm" height="113.462mm" version="1.1" style="shape-rendering:geometricPrecision; text-rendering:geometricPrecision; image-rendering:optimizeQuality; fill-rule:evenodd; clip-rule:evenodd"
viewBox="0 0 2033.77 896.55"
 xmlns:xlink="http://www.w3.org/1999/xlink"
 xmlns:xodm="http://www.corel.com/coreldraw/odm/2003">
 <defs>
  <style type="text/css">
   <![CDATA[
    .fil0 {fill:#89CB23;fill-rule:nonzero}
    .fil2 {fill:white;fill-rule:nonzero}
    .fil1 {fill:url(#id0)}
   ]]>
  </style>
  <linearGradient id="id0" gradientUnits="userSpaceOnUse" x1="201.95" y1="422.82" x2="1036.06" y2="422.82">
   <stop offset="0" style="stop-opacity:1; stop-color:#89CB23"/>
   <stop offset="1" style="stop-opacity:1; stop-color:#00A152"/>
  </linearGradient>
 </defs>
 <g id="Capa_x0020_1">
  <metadata id="CorelCorpID_0Corel-Layer"/>
  <path class="fil0" d="M82.59 756.65c-12.08,2.61 -18.51,10.71 -18.54,23.72 -0.03,13.39 5.98,21.51 18.42,24.75l0.11 -48.47zm25.91 49.1c15.28,-1.85 23.41,-10.7 23.45,-25.6 0.02,-7.54 -2.42,-14.15 -6.94,-19.06 -2.63,-2.83 -4.7,-4.16 -9.6,-5.68l9.32 -32.8c9.8,4.36 14.13,7.2 19.4,12.49 10.54,10.78 15.97,25.88 15.93,44.55 -0.05,18.48 -5.36,32.99 -16.13,43.72 -11.35,11.1 -27.39,17.1 -46.06,17.05 -37.34,-0.09 -61.99,-24.1 -61.91,-60.12 0.07,-29.42 16.15,-49.94 44.26,-56.47 6.04,-1.5 13.96,-2.23 24.71,-2.78 0.75,0 1.88,0.01 3.77,-0.18l-0.2 84.87z"/>
  <path class="fil0" d="M117.3 672.82c9.81,-1.86 14.16,-8.27 14.19,-20.9 0.03,-11.32 -3.17,-17.73 -9.01,-17.75 -2.83,-0.01 -5.28,1.49 -6.8,4.13 -1.51,2.63 -2.27,5.09 -4.37,15.45 -2.86,14.33 -4.76,21.68 -6.85,27.9 -3.42,9.05 -7.77,15.26 -13.44,18.83 -5.1,3.01 -11.52,4.69 -17.93,4.67 -22.63,-0.06 -36.36,-19.14 -36.28,-50.63 0.05,-17.92 4.04,-31.3 12.16,-40.14 5.49,-6.21 10.96,-9.22 21.53,-12.21l3.88 36.41c-7.74,0.92 -11.14,5.63 -11.16,15.82 -0.03,9.8 3.17,15.85 8.07,15.86 5.09,0.01 6.99,-3.94 11.18,-22.6 4,-18.47 5.71,-24.32 9.13,-30.91 6.06,-12.25 15.32,-18.07 28.9,-18.04 10,0.02 19.04,3.44 25.06,9.68 9.03,9.07 13.71,24.55 13.66,44.73 -0.06,23.76 -6.51,40.54 -18.98,49.56 -5.29,3.76 -9.82,5.64 -18.88,7.5l-4.06 -37.35z"/>
  <path class="fil0" d="M82.99 505.27c-5.66,1.68 -8.3,2.81 -11.14,5.25 -4.35,3.76 -6.62,9.04 -6.64,15.83 -0.04,15.28 12.01,24.36 32.76,24.41 20.37,0.05 33.59,-9.54 33.63,-24.63 0.02,-7.35 -2.98,-14.15 -8.25,-17.94 -2.45,-1.7 -4.33,-2.65 -8.67,-3.42l5.55 -34.69c8.1,2.09 13.19,4.37 18.65,7.96 13.94,9.47 21.63,26.64 21.58,48.52 -0.04,18.11 -5.74,33.56 -16.32,43.9 -10.78,10.91 -27.39,16.91 -45.87,16.86 -37.72,-0.09 -61.81,-23.91 -61.72,-60.68 0.07,-29.04 14.45,-49.19 39.55,-55.36l6.9 33.96z"/>
  <path class="fil0" d="M41.52 336.58c8.86,1.15 16.78,1.55 28.29,1.57l58.27 0.14c13.02,0.03 20.75,-0.33 28.29,-1.44l-0.09 37.53 -8.11 -0.02c-0.94,-0 -3.77,-0.01 -5.09,-0.2 11.66,12.47 16.16,23.23 16.13,39.27 -0.03,12.64 -3.64,22.81 -10.63,29.96 -7.56,7.53 -16.81,10.71 -31.71,10.67l-47.34 -0.11c-10.94,-0.03 -20.37,0.52 -28.3,1.44l0.09 -39.23c9.05,1.15 16.97,1.55 28.29,1.57l38.66 0.09c7.73,0.02 11.13,-0.73 14.15,-2.99 3.4,-2.63 5.3,-6.78 5.31,-12.25 0.02,-10.37 -7.31,-20.95 -19.36,-28.34l-38.66 -0.09c-10.56,-0.03 -18.48,0.33 -28.29,1.44l0.09 -39.04z"/>
  <path class="fil0" d="M83.81 238.05c-12.08,2.61 -18.51,10.7 -18.54,23.72 -0.03,13.39 5.98,21.51 18.42,24.75l0.11 -48.47zm25.91 49.09c15.28,-1.85 23.41,-10.69 23.45,-25.59 0.02,-7.54 -2.42,-14.15 -6.93,-19.06 -2.63,-2.84 -4.71,-4.16 -9.61,-5.68l9.32 -32.79c9.8,4.36 14.13,7.2 19.4,12.49 10.54,10.78 15.97,25.88 15.93,44.55 -0.05,18.48 -5.36,32.99 -16.13,43.72 -11.35,11.1 -27.39,17.1 -46.06,17.05 -37.34,-0.09 -61.99,-24.1 -61.91,-60.12 0.07,-29.42 16.15,-49.94 44.26,-56.47 6.04,-1.49 13.96,-2.23 24.71,-2.77 0.75,0 1.88,0 3.77,-0.18l-0.2 84.87z"/>
  <path class="fil0" d="M0.09 147.53c7.92,1.15 15.65,1.54 28.48,1.58l99.96 0.24c11.31,0.03 18.48,-0.33 28.48,-1.44l-0.09 39.42c-8.49,-1.15 -14.89,-1.54 -28.48,-1.57l-99.96 -0.24c-13.39,-0.03 -21.31,0.33 -28.48,1.44l0.09 -39.42z"/>
  <path class="fil0" d="M106.88 52.36c0.34,16.78 1.26,24.9 3.7,32.64 2.25,6.79 6.95,10.96 12.42,10.97 6.79,0.01 10.76,-5.63 10.79,-15.44 0.02,-7.73 -2.79,-16.23 -7.12,-21.33 -3.76,-4.35 -8.85,-6.81 -14.5,-6.82l-5.28 -0.01zm-28.48 -0.07c-9.05,-0.02 -13.22,5.44 -13.24,17.88 -0.03,12.07 3.92,18.49 13.15,21.34l-5.93 36.01c-11.12,-3.8 -17.14,-7.96 -22.78,-15.9 -7.14,-10.2 -10.69,-24.17 -10.65,-42.46 0.03,-13.95 2.71,-27.53 6.68,-34.88 6.63,-12.05 17.02,-17.31 33.99,-17.27l50.92 0.12c11.5,0.03 18.29,-0.33 26.78,-1.25l-0.09 36.59 -8.67 -0.02c8.09,10.58 11.27,21.15 11.23,36.62 -0.03,14.33 -3.45,25.08 -10.45,32.6 -6.24,6.77 -15.3,10.34 -25.67,10.31 -11.88,-0.03 -21.3,-4.76 -27.5,-13.83 -6.77,-9.63 -10.7,-22.28 -12.17,-39.26 -0.74,-7.36 -0.91,-13.02 -1.26,-26.6l-4.34 -0.01z"/>
  <path class="fil1" d="M624.14 116.31c-38.77,82.38 -58.15,174.46 -58.15,174.46l0 -121.15c0,0 4.84,-63 -48.46,-111.46 -53.31,-48.46 -155.08,-43.61 -155.08,-43.61l-159.92 0c0,0 -9.69,0 -2.43,2.42 0,0 43.62,4.84 43.62,87.23l0 668.75c0,0 4.85,43.62 -38.77,67.85 0,0 -4.85,4.85 9.69,4.85l392.53 0c0,0 4.84,-4.85 -4.85,-9.69 -9.69,-4.85 -36.34,-21.81 -36.34,-55.73l0 -310.15c0,0 4.83,-46.71 12.64,-94.63 5.73,-35.2 13.07,-71.05 21.28,-89.52 19.38,-43.61 58.15,-130.85 121.15,-164.77 63,-33.92 135.69,-33.92 135.69,-33.92 0,0 -96.92,24.23 -145.38,87.23 -48.46,63 -67.85,96.92 -67.85,96.92 0,0 67.85,33.92 140.54,24.23 72.69,-9.69 169.61,-63 208.38,-155.07 38.77,-92.08 43.62,-135.69 43.62,-135.69 0,0 -24.23,14.54 -63,14.54 -38.77,0 -72.69,-19.38 -150.23,-19.38 -77.54,0 -159.92,33.92 -198.69,116.31z"/>
  <path class="fil2" d="M732.59 569.06c6.41,0.35 12.67,0.52 18.75,0.53 12.31,0.03 21.93,-0.27 28.87,-0.91 4.84,-0.51 9.86,-1.45 15.03,-2.81l5.94 -23.06 6.38 0.02c-1.66,12.37 -2.97,23.92 -3.91,34.66 -5.9,0.97 -13.95,1.44 -24.16,1.42l-46.74 -0.9c-6.28,-0.01 -16.07,0.32 -29.36,1.01l0.01 -5.2c5.24,-2.28 8.34,-4.73 9.3,-7.34 0.95,-2.61 1.46,-12.99 1.5,-31.13l0.13 -54.01c0.05,-19.64 -0.4,-30.59 -1.35,-32.85 -0.95,-2.26 -3.61,-3.4 -8,-3.41l-10.7 -0.03 0.01 -6.19c15.58,0.5 25.92,0.75 31.03,0.76 6.81,0.02 16.04,-0.19 27.69,-0.62l-0.02 6.19 -12.18 -0.03c-3.47,-0.01 -5.66,0.98 -6.58,2.98 -0.92,2 -1.4,10.29 -1.43,24.89l-0.15 62.55 0.23 27.69 -0.31 5.79z"/>
  <path class="fil2" d="M836.47 440.08c3.01,0.01 5.59,1.11 7.75,3.31 2.15,2.2 3.23,4.83 3.22,7.91 -0.01,3.08 -1.1,5.69 -3.26,7.85 -2.17,2.15 -4.76,3.22 -7.77,3.22 -3.08,-0.01 -5.69,-1.09 -7.85,-3.26 -2.16,-2.17 -3.23,-4.79 -3.22,-7.86 0.01,-3.08 1.09,-5.71 3.26,-7.9 2.17,-2.19 4.79,-3.28 7.86,-3.27zm7.75 43.52l2.35 1.48c-0.47,4.91 -0.78,10.31 -0.92,16.2 -0.5,19.11 -0.76,33.22 -0.79,42.32 -0.02,8.51 0.26,15.78 0.83,21.8 0.25,2.36 0.87,4 1.85,4.91 0.98,0.92 3.33,1.61 7.06,2.08l6.68 0.9 -0.01 5.7c-9.56,-0.48 -18.26,-0.73 -26.12,-0.75 -7.73,-0.02 -15.52,0.19 -23.37,0.63l0.01 -5.7 8.45 -0.86c3.27,-0.25 5.29,-0.86 6.04,-1.81 0.76,-0.95 1.24,-4.11 1.45,-9.5 0.35,-8.33 0.54,-19.82 0.57,-34.45 0.03,-10.18 -0.12,-18.02 -0.43,-23.54 -0.13,-2.03 -0.7,-3.48 -1.71,-4.33 -1.01,-0.86 -3.29,-1.28 -6.82,-1.29l-7.37 -0.02 0.01 -5.7c7.99,-1.14 13.87,-2.2 17.63,-3.16 3.76,-0.96 8.63,-2.6 14.59,-4.92z"/>
  <path class="fil2" d="M944.21 507.12c-4.5,-4.86 -9.18,-8.51 -14.04,-10.95 -4.86,-2.43 -9.94,-3.66 -15.23,-3.67 -8.56,-0.02 -15.46,3.09 -20.71,9.34 -5.24,6.25 -7.88,15.4 -7.91,27.47 -0.03,12.25 2.94,21.89 8.9,28.88 5.96,7 13.22,10.5 21.79,10.53 5.23,0.01 10.03,-1.43 14.42,-4.34 4.38,-2.9 7.6,-6.68 9.63,-11.33 2.03,-4.65 3.07,-11.96 3.09,-21.92l0.06 -23.99zm0.04 -16.9l0.08 -35.63c0.01,-4.13 -0.44,-6.73 -1.35,-7.78 -0.92,-1.05 -3.01,-1.58 -6.28,-1.59l-8.44 -0.02 0.01 -5.89c11.69,-0.75 22.59,-3.11 32.71,-7.09l1.77 1.19c-0.48,6.68 -0.89,14.74 -1.24,24.17l-0.46 26.14 -0.21 8.45 -0.14 58.66c-0.02,10.94 0.29,17.03 0.94,18.28 0.98,1.77 3.69,2.96 8.14,3.56l6.97 0.9 -0.01 5.7c-8.08,-0.61 -15.2,-0.92 -21.37,-0.94 -1.11,-0 -5.25,0.28 -12.41,0.86 0.47,-4.43 0.84,-10.72 1.13,-18.86 -5.57,4.29 -12.68,10.3 -21.32,18.04 -5.56,1.81 -10.47,2.71 -14.72,2.7 -11.05,-0.02 -20.29,-4.2 -27.73,-12.54 -7.43,-8.33 -11.13,-19.47 -11.1,-33.41 0.02,-8.71 1.47,-16.13 4.37,-22.28 2.89,-6.14 6.33,-10.6 10.33,-13.38 3.99,-2.77 10.21,-6.27 18.66,-10.51 6.48,-3.19 12.47,-4.78 17.96,-4.77 3.72,0.01 7.57,0.51 11.52,1.5 3.95,0.99 8.02,2.51 12.2,4.55z"/>
  <path class="fil2" d="M1002.77 524.43c10.15,0.48 21.34,0.74 33.58,0.77 4.91,0.01 9.66,-0.2 14.24,-0.65l0.01 -5.5c0.01,-5.76 -1.12,-11.23 -3.4,-16.4 -1.43,-3.21 -3.95,-5.89 -7.54,-8.02 -3.6,-2.14 -7.75,-3.21 -12.46,-3.22 -7.33,-0.01 -13.2,2.66 -17.6,8.01 -4.4,5.36 -6.68,13.7 -6.84,25.02zm-0.21 7.37c0.3,12.9 3.57,22.69 9.83,29.38 6.26,6.69 14.48,10.05 24.68,10.07 4.57,0.01 9.12,-0.73 13.63,-2.23 4.51,-1.49 9,-3.74 13.45,-6.75l1.66 1.48 -3.16 8.24c-5.44,3.13 -11.04,5.48 -16.81,7.03 -5.76,1.56 -11.69,2.33 -17.78,2.31 -13.29,-0.03 -24,-4.26 -32.13,-12.7 -8.13,-8.43 -12.18,-19.85 -12.14,-34.25 0.03,-11 2.34,-20.52 6.94,-28.56 3.02,-5.3 8.6,-10.19 16.73,-14.69 8.13,-4.5 16.02,-6.73 23.68,-6.72 11.59,0.03 20.76,3.45 27.52,10.28 6.76,6.82 10.12,16.36 10.1,28.59l-0.21 5.8c-4.32,1.04 -8.44,1.71 -12.36,2.03 -7,0.51 -16.71,0.75 -29.12,0.72l-24.51 -0.06z"/>
  <path class="fil2" d="M1106.79 506.89c2.63,-2.48 5.49,-5.74 8.59,-9.8 3.69,-4.77 7.11,-8.03 10.26,-9.79 3.16,-1.76 6.47,-2.64 9.95,-2.63 3.61,0.01 6.37,0.44 8.27,1.3 0.92,0.4 1.37,1.02 1.37,1.87l-0.1 0.98c-1.05,5.3 -1.66,12.73 -1.82,22.29l-4.42 -0.01c-1.5,-3.34 -3.26,-5.7 -5.32,-7.08 -2.05,-1.38 -4.52,-2.07 -7.38,-2.08 -3.85,-0.01 -7.43,1.29 -10.73,3.9 -3.3,2.61 -5.51,6.26 -6.63,10.97 -1.12,4.7 -1.7,13.95 -1.73,27.75 -0.02,9.09 0.32,16.74 1.03,22.95 0.25,2.29 0.91,3.73 1.95,4.32 2.48,1.38 6.15,2.07 10.99,2.09l5.89 0.01 -0.01 5.7c-10.01,-0.49 -19.51,-0.74 -28.47,-0.76 -8.71,-0.02 -17.32,0.19 -25.83,0.63l0.01 -5.7 9.43 -0.76c3.34,-0.25 5.45,-0.87 6.34,-1.85 0.89,-0.98 1.47,-4.15 1.74,-9.52 0.48,-9.43 0.74,-20.62 0.77,-33.58 0.03,-15.78 -0.57,-25.05 -1.8,-27.8 -0.85,-1.77 -3.53,-2.66 -8.05,-2.67l-8.25 -0.02 0.01 -5.7c6.35,-0.7 12.02,-1.62 17,-2.76 4.98,-1.13 9.4,-2.58 13.27,-4.34 0.92,-0.45 1.67,-0.68 2.26,-0.68 0.72,0 1.21,0.2 1.47,0.59 0.26,0.4 0.39,1.29 0.38,2.67l-0.44 19.52z"/>
  <path class="fil2" d="M1209.72 527.18c-18.21,3.88 -29.77,7.52 -34.69,10.94 -4.92,3.42 -7.39,8.72 -7.41,15.9 -0.01,4.83 1.39,8.71 4.2,11.62 2.81,2.91 6.44,4.37 10.89,4.38 4.91,0.01 9.61,-1.34 14.1,-4.08 4.49,-2.73 8.77,-6.8 12.84,-12.21l-0.14 -21.75 0.21 -4.8zm-51.71 -15.74l0.11 -6.58 -0.08 -6.78 10.72 -6.06c4.85,-2.74 9.09,-4.63 12.73,-5.67 3.64,-1.04 7.52,-1.55 11.64,-1.54 9.03,0.02 16.31,2.07 21.84,6.13 5.52,4.07 8.83,9.24 9.93,15.52 0.77,4.71 1.24,16.39 1.39,35.02 0.09,17.59 0.46,27.3 1.11,29.14 0.65,1.83 2.28,2.75 4.9,2.76l7.66 0.02 -0.02 6.48c-7.46,-0.48 -12.67,-0.72 -15.61,-0.73 -3.67,-0.01 -8.58,0.21 -14.73,0.66l0.12 -8.73c0.01,-2.81 -0.02,-5.66 -0.08,-8.53l-20.36 15.45c-1.84,1.37 -3.64,2.33 -5.41,2.89 -1.77,0.55 -4.23,0.82 -7.37,0.82 -8.44,-0.02 -14.89,-2.11 -19.33,-6.27 -4.44,-4.16 -6.65,-9.74 -6.63,-16.73 0.01,-6.6 1.61,-12.37 4.8,-17.29 3.19,-4.93 7.71,-8.56 13.58,-10.9 5.86,-2.34 19.47,-5.38 40.82,-9.12 -0.11,-8.32 -1.93,-14.54 -5.46,-18.67 -4.44,-5.18 -10.78,-7.78 -19.03,-7.8 -3.14,-0.01 -6.09,0.37 -8.84,1.13 -2.75,0.76 -5.31,1.91 -7.67,3.44 -1.91,4.68 -3.65,9.16 -5.23,13.44l-5.5 -1.49z"/>
  <path class="fil2" d="M1244.54 579.89l-0.97 -4.68c6.37,-6.91 15,-17.01 25.9,-30.32 14.77,-18.13 27.97,-34.95 39.6,-50.47 -16.37,0.03 -28.71,0.29 -37.02,0.8 -5.7,0.31 -8.99,0.88 -9.87,1.69 -0.88,0.82 -1.69,3.58 -2.43,8.29l-1.39 8.34 -5.7 -0.01c0.74,-6.31 1.11,-11.86 1.12,-16.65l-0.18 -9.17 0.79 -0.79c20.03,0.51 35.22,0.77 45.56,0.8 10.93,0.02 21.7,-0.18 32.31,-0.61l-0.01 5.38c-3.42,3.72 -6.76,7.59 -10.05,11.63l-15.46 19.17c-6.5,8.02 -19.17,24.29 -38.02,48.81l12.47 0.23c13.61,0.03 25.4,-0.4 35.35,-1.29 3.86,-0.38 6.35,-1.16 7.47,-2.34 1.11,-1.17 2.27,-5.2 3.46,-12.07l1.1 -5.89 5.79 0.01c-1.6,12.15 -2.38,21.57 -2.32,28.28 -4.52,0.51 -9.53,0.76 -15.03,0.75l-35.64 -0.48c-14.6,-0.04 -26.87,0.16 -36.82,0.6z"/>
  <path class="fil2" d="M1408.06 519.1c0.02,-8.21 -2.07,-14.82 -6.25,-19.82 -4.19,-5 -9.47,-7.52 -15.83,-7.53 -6.3,-0.02 -11.37,2.01 -15.22,6.07 -3.85,4.07 -5.78,9.72 -5.8,16.94 -0.02,8.74 2.04,15.6 6.2,20.57 4.15,4.97 9.38,7.46 15.68,7.48 6.3,0.02 11.4,-2.06 15.32,-6.23 3.91,-4.16 5.88,-9.99 5.9,-17.48zm-26.99 62.48c-4.64,-0.01 -7.81,0.5 -9.51,1.55 -5.5,3.53 -8.84,6.37 -10.02,8.54 -1.97,3.41 -2.96,7.7 -2.97,12.88 -0.02,7.15 2.62,13.06 7.9,17.73 5.29,4.67 12.63,7.01 22.05,7.04 7.26,0.02 13.63,-1.31 19.13,-3.99 5.49,-2.68 9.77,-6.36 12.82,-11.04 3.05,-4.68 4.58,-9.52 4.59,-14.5 0.01,-4.26 -1.04,-8.01 -3.16,-11.22 -2.12,-3.22 -4.64,-5.29 -7.58,-6.22 -1.5,-0.47 -4.93,-0.7 -10.29,-0.71l-22.95 -0.06zm41.85 -77.97c1.49,4.21 2.24,7.65 2.24,10.34 -0.01,5.84 -1.8,11.47 -5.35,16.87 -3.55,5.41 -8.61,9.75 -15.16,13.05 -6.56,3.29 -13.64,4.93 -21.24,4.91l-4.62 -0.11c-4.32,3.18 -7.05,5.55 -8.2,7.12 -1.15,1.56 -1.72,3.09 -1.72,4.59 -0.01,2.47 1.27,4.43 3.82,5.87 2.55,1.44 7.76,2.17 15.61,2.19 3.01,0.01 7.33,-0.09 12.96,-0.3 8.05,-0.35 13.88,-0.52 17.48,-0.51 5.17,0.01 9.13,0.86 11.87,2.54 2.75,1.68 5.1,4.61 7.05,8.77 1.95,4.17 2.92,8.87 2.91,14.12 -0.02,7.34 -2.26,14.37 -6.73,21.08 -4.47,6.71 -10.96,12.09 -19.48,16.13 -8.52,4.04 -18.31,6.06 -29.37,6.03 -13.49,-0.03 -23.86,-2.99 -31.11,-8.86 -7.25,-5.88 -10.87,-13.1 -10.85,-21.68 0.01,-5.3 1.92,-10.67 5.73,-16.09 6.82,-3.19 12.54,-6.42 17.2,-9.68 -5.36,-1.78 -8.81,-3.4 -10.34,-4.87 -1.53,-1.47 -2.3,-3.35 -2.29,-5.64 0.01,-2.74 0.77,-5.44 2.28,-8.12 0.85,-1.63 3.02,-3.61 6.49,-5.95l9.53 -6.73c-7.84,-1.98 -13.49,-4.78 -16.95,-8.4 -4.57,-4.86 -6.85,-11.07 -6.83,-18.61 0.02,-6.62 1.73,-12.65 5.15,-18.08 3.42,-5.44 8.43,-9.72 15.05,-12.85 8.46,-3.98 16.61,-5.96 24.47,-5.94 4.97,0.01 9.34,0.68 13.1,2 3.76,1.32 7.6,3.55 11.52,6.71l8.25 0.02c8.51,0.02 15.12,-0.26 19.84,-0.83l1.08 2.08c-1.97,2.83 -3.71,5.8 -5.23,8.9l-18.17 -0.04z"/>
  <path class="fil2" d="M1467.34 526.35c-0.03,13.5 2.71,25.06 8.21,34.67 5.51,9.62 13.47,14.44 23.88,14.46 7.92,0.02 14.33,-2.98 19.22,-9 4.89,-6.02 7.35,-15.15 7.38,-27.41 0.02,-9.89 -1.4,-18.47 -4.26,-25.72 -2.86,-7.25 -6.65,-12.53 -11.35,-15.86 -4.7,-3.32 -9.97,-4.99 -15.8,-5 -5.17,-0.01 -9.84,1.29 -14,3.9 -4.16,2.61 -7.23,6.11 -9.21,10.5 -2.7,5.96 -4.05,12.44 -4.07,19.46zm-18.48 6.89c0.02,-9.04 2.14,-17.19 6.34,-24.49 4.21,-7.29 10.1,-12.99 17.67,-17.09 7.57,-4.11 16.17,-6.15 25.79,-6.13 13.94,0.03 25.09,4.18 33.46,12.45 8.36,8.27 12.53,19.28 12.49,33.02 -0.04,16.24 -5.54,29.12 -16.49,38.65 -9.78,8.55 -21.47,12.81 -35.09,12.78 -13.09,-0.03 -23.74,-4.46 -31.93,-13.28 -8.2,-8.83 -12.28,-20.8 -12.24,-35.92z"/>
  <path class="fil2" d="M1629.83 559.69c4.17,4.72 8.35,8.07 12.53,10.05 4.18,1.97 8.68,2.97 13.52,2.98 10.33,0.02 18.24,-3.85 23.75,-11.63 5.51,-7.78 8.28,-17.03 8.3,-27.77 0.02,-7.2 -1.23,-13.37 -3.73,-18.52 -2.51,-5.15 -6.17,-9.18 -11,-12.11 -4.83,-2.92 -10.02,-4.39 -15.57,-4.4 -3.92,-0.01 -7.76,0.77 -11.53,2.33 -3.76,1.56 -7.05,3.73 -9.87,6.51 -2.82,2.78 -4.62,5.34 -5.41,7.69 -0.59,1.76 -0.89,6.45 -0.91,14.04l-0.07 30.84zm0.13 -54.01l13.76 -12.14c3.47,-3.07 6.42,-4.99 8.84,-5.77 3.86,-1.23 8.37,-1.85 13.54,-1.83 11.64,0.03 21.04,3.65 28.22,10.87 7.17,7.22 10.75,16.52 10.72,27.91 -0.01,5.69 -0.84,11.31 -2.49,16.84 -1.65,5.53 -3.65,10.04 -6.02,13.54 -2.36,3.5 -5.01,6.41 -7.96,8.77 -0.98,0.78 -4.98,3.36 -11.98,7.73l-3.93 2.84c-4.98,3.46 -8.98,5.72 -12.03,6.8 -3.04,1.07 -6.53,1.6 -10.45,1.59 -3.08,-0.01 -6.31,-0.46 -9.71,-1.35 -3.39,-0.9 -6.96,-2.19 -10.68,-3.91l-0.03 13.85c-0.03,14.21 0.14,24.22 0.52,30.05 0.19,2.56 1.01,4.4 2.44,5.55 1.44,1.15 4.48,1.73 9.13,1.74l5.3 0.01 -0.01 5.5c-12.39,-0.49 -21.48,-0.74 -27.25,-0.76 -6.36,-0.01 -14.46,0.2 -24.3,0.63l0.01 -5.5 7.17 0.02c5.04,0.01 8.02,-1.07 8.94,-3.22 0.92,-2.16 1.41,-13.68 1.46,-34.56l0.14 -60.29c0.02,-10.48 -0.22,-18.56 -0.73,-24.26 -0.26,-2.75 -0.89,-4.57 -1.9,-5.46 -1.01,-0.89 -3.38,-1.33 -7.12,-1.34l-7.66 -0.02 0.01 -6.09c9.13,-0.96 18.09,-2.81 26.9,-5.54l6.01 -2.34c1.05,0 1.57,0.92 1.57,2.76l-0.32 10.41 -0.11 6.97z"/>
  <path class="fil2" d="M1773.45 528.5c-18.21,3.88 -29.77,7.52 -34.69,10.94 -4.92,3.42 -7.39,8.72 -7.41,15.9 -0.01,4.83 1.39,8.71 4.2,11.62 2.81,2.91 6.44,4.37 10.89,4.38 4.91,0.01 9.61,-1.35 14.1,-4.08 4.49,-2.73 8.77,-6.8 12.84,-12.22l-0.15 -21.75 0.21 -4.8zm-51.71 -15.74l0.11 -6.58 -0.08 -6.78 10.72 -6.06c4.85,-2.74 9.09,-4.63 12.73,-5.67 3.64,-1.04 7.52,-1.55 11.64,-1.54 9.03,0.02 16.31,2.07 21.84,6.13 5.52,4.07 8.83,9.24 9.93,15.52 0.78,4.71 1.24,16.39 1.39,35.02 0.09,17.59 0.46,27.3 1.11,29.14 0.65,1.83 2.28,2.75 4.9,2.76l7.66 0.02 -0.02 6.48c-7.46,-0.48 -12.67,-0.72 -15.61,-0.73 -3.67,-0.01 -8.58,0.21 -14.73,0.66l0.12 -8.73c0.01,-2.81 -0.02,-5.66 -0.08,-8.53l-20.36 15.45c-1.84,1.37 -3.64,2.33 -5.41,2.88 -1.77,0.55 -4.23,0.82 -7.37,0.82 -8.44,-0.02 -14.89,-2.11 -19.33,-6.27 -4.44,-4.16 -6.65,-9.74 -6.64,-16.73 0.01,-6.6 1.61,-12.37 4.8,-17.29 3.19,-4.93 7.71,-8.56 13.58,-10.9 5.86,-2.34 19.47,-5.38 40.82,-9.12 -0.11,-8.32 -1.93,-14.54 -5.46,-18.67 -4.44,-5.18 -10.78,-7.78 -19.03,-7.8 -3.14,-0.01 -6.09,0.37 -8.84,1.13 -2.75,0.76 -5.31,1.92 -7.67,3.45 -1.91,4.68 -3.65,9.16 -5.23,13.44l-5.5 -1.49z"/>
  <path class="fil2" d="M1840.45 508.62c2.63,-2.48 5.5,-5.75 8.59,-9.8 3.69,-4.77 7.11,-8.03 10.26,-9.79 3.16,-1.76 6.47,-2.64 9.95,-2.63 3.61,0.01 6.37,0.44 8.27,1.3 0.92,0.4 1.37,1.02 1.37,1.87l-0.1 0.98c-1.05,5.3 -1.66,12.73 -1.82,22.28l-4.42 -0.01c-1.5,-3.34 -3.27,-5.7 -5.32,-7.08 -2.05,-1.38 -4.52,-2.07 -7.39,-2.08 -3.85,-0.01 -7.43,1.29 -10.73,3.9 -3.3,2.61 -5.51,6.26 -6.63,10.97 -1.12,4.7 -1.7,13.95 -1.73,27.75 -0.02,9.09 0.32,16.74 1.03,22.95 0.25,2.29 0.91,3.73 1.95,4.32 2.48,1.38 6.15,2.07 10.99,2.09l5.89 0.01 -0.01 5.7c-10.01,-0.49 -19.5,-0.74 -28.47,-0.76 -8.71,-0.02 -17.32,0.19 -25.83,0.63l0.01 -5.7 9.43 -0.76c3.34,-0.25 5.45,-0.87 6.34,-1.85 0.89,-0.98 1.47,-4.15 1.74,-9.52 0.48,-9.43 0.74,-20.62 0.77,-33.58 0.03,-15.78 -0.57,-25.05 -1.8,-27.8 -0.85,-1.77 -3.53,-2.66 -8.04,-2.67l-8.25 -0.02 0.01 -5.7c6.35,-0.71 12.02,-1.62 17,-2.76 4.97,-1.13 9.4,-2.58 13.27,-4.34 0.92,-0.45 1.67,-0.68 2.26,-0.68 0.72,0 1.21,0.2 1.47,0.59 0.26,0.4 0.39,1.29 0.39,2.67l-0.44 19.52z"/>
  <path class="fil2" d="M1943.39 528.91c-18.21,3.88 -29.77,7.52 -34.69,10.94 -4.92,3.41 -7.39,8.72 -7.41,15.9 -0.01,4.83 1.39,8.71 4.2,11.62 2.81,2.91 6.44,4.37 10.89,4.38 4.91,0.01 9.61,-1.34 14.1,-4.08 4.49,-2.73 8.77,-6.8 12.85,-12.21l-0.15 -21.75 0.21 -4.8zm-51.72 -15.74l0.11 -6.58 -0.08 -6.78 10.72 -6.06c4.85,-2.74 9.09,-4.63 12.73,-5.67 3.64,-1.04 7.52,-1.55 11.64,-1.54 9.03,0.02 16.31,2.07 21.84,6.13 5.52,4.07 8.83,9.24 9.93,15.52 0.78,4.71 1.24,16.39 1.39,35.02 0.09,17.59 0.46,27.3 1.11,29.14 0.65,1.83 2.29,2.75 4.91,2.76l7.66 0.02 -0.02 6.48c-7.46,-0.48 -12.67,-0.72 -15.61,-0.73 -3.67,-0.01 -8.58,0.21 -14.73,0.66l0.12 -8.73c0.01,-2.81 -0.02,-5.66 -0.08,-8.53l-20.37 15.45c-1.83,1.37 -3.64,2.33 -5.4,2.89 -1.77,0.55 -4.23,0.82 -7.37,0.82 -8.44,-0.02 -14.89,-2.11 -19.33,-6.27 -4.44,-4.16 -6.65,-9.74 -6.64,-16.73 0.01,-6.6 1.62,-12.37 4.8,-17.29 3.19,-4.93 7.72,-8.56 13.58,-10.9 5.87,-2.34 19.47,-5.38 40.82,-9.12 -0.11,-8.32 -1.93,-14.54 -5.45,-18.67 -4.44,-5.18 -10.79,-7.78 -19.03,-7.8 -3.14,-0.01 -6.09,0.37 -8.84,1.13 -2.75,0.76 -5.3,1.91 -7.67,3.44 -1.91,4.68 -3.65,9.16 -5.23,13.44l-5.5 -1.49z"/>
  <path class="fil2" d="M727.87 693.66c-1.16,19.18 -1.75,36.53 -1.79,52.04l-0.12 50.47c-0.05,20.03 0.35,31.39 1.2,34.08 0.45,1.37 2.61,2.26 6.47,2.67l8.35 0.9 -0.01 5.7c-7.15,-0.48 -13.97,-0.72 -20.47,-0.74 -7.22,-0.02 -16.66,0.19 -28.34,0.62l0.01 -5.7 8.45 -0.66c3.73,-0.32 5.86,-1.26 6.39,-2.84 0.86,-2.55 1.31,-14.17 1.36,-34.86l0.12 -50.18 -0.06 -18.85 -0.26 -12.86c0.01,-3.21 -0.35,-5.17 -1.07,-5.9 -1.05,-1.05 -3.24,-1.58 -6.58,-1.59l-8.05 -0.02 0.01 -5.89c13.66,-1.21 24.56,-3.74 32.71,-7.58l1.67 1.18z"/>
  <path class="fil2" d="M807.76 787.03c-18.21,3.88 -29.77,7.52 -34.69,10.94 -4.92,3.41 -7.38,8.72 -7.4,15.9 -0.01,4.83 1.39,8.71 4.2,11.62 2.81,2.91 6.44,4.37 10.89,4.38 4.91,0.01 9.61,-1.34 14.1,-4.08 4.49,-2.73 8.77,-6.8 12.84,-12.22l-0.14 -21.75 0.21 -4.8zm-51.71 -15.74l0.11 -6.58 -0.08 -6.78 10.72 -6.06c4.85,-2.74 9.1,-4.63 12.73,-5.67 3.64,-1.04 7.52,-1.55 11.64,-1.54 9.03,0.02 16.31,2.07 21.84,6.13 5.52,4.07 8.83,9.24 9.93,15.52 0.78,4.71 1.24,16.39 1.39,35.02 0.09,17.59 0.46,27.3 1.11,29.14 0.65,1.83 2.29,2.75 4.91,2.76l7.66 0.02 -0.01 6.48c-7.46,-0.48 -12.67,-0.72 -15.61,-0.73 -3.67,-0.01 -8.58,0.21 -14.73,0.66l0.12 -8.73c0.01,-2.81 -0.02,-5.66 -0.08,-8.53l-20.36 15.45c-1.84,1.37 -3.64,2.33 -5.41,2.88 -1.77,0.55 -4.23,0.82 -7.37,0.82 -8.45,-0.02 -14.89,-2.11 -19.33,-6.27 -4.44,-4.16 -6.65,-9.74 -6.64,-16.73 0.01,-6.6 1.61,-12.37 4.8,-17.29 3.19,-4.93 7.71,-8.57 13.58,-10.91 5.86,-2.34 19.47,-5.38 40.82,-9.11 -0.11,-8.32 -1.93,-14.54 -5.45,-18.67 -4.44,-5.18 -10.78,-7.79 -19.03,-7.81 -3.14,-0.01 -6.09,0.37 -8.84,1.13 -2.75,0.76 -5.3,1.91 -7.67,3.44 -1.91,4.68 -3.65,9.16 -5.24,13.44l-5.49 -1.49z"/>
  <path class="fil2" d="M960.27 769.13c6.39,9.24 14.32,20 23.78,32.26l18.8 24.5c3.33,4.2 5.55,6.6 6.66,7.18 1.11,0.59 2.26,0.89 3.43,0.9l2.55 0.01 -0.01 6.19c-5.44,-0.47 -10.18,-0.71 -14.24,-0.72 -3.73,-0.01 -7.66,0.21 -11.78,0.66l-34.65 -47.02c-6.46,-8.66 -13.38,-17.12 -20.76,-25.38l0.99 -3.34c3.79,0.34 6.61,0.51 8.44,0.51 10.93,0.02 19.5,-2.77 25.7,-8.38 6.2,-5.62 9.31,-13.14 9.33,-22.56 0.02,-8.44 -2.58,-15.05 -7.81,-19.81 -5.23,-4.76 -12.78,-7.15 -22.67,-7.18 -6.87,-0.01 -13.78,1.25 -20.73,3.78 -0.81,10.4 -1.23,21.53 -1.26,33.38l-0.11 47.43c-0.06,23.11 0.47,35.93 1.58,38.45 1.11,2.52 4.7,3.79 10.79,3.8l7.66 0.02 -0.01 6.19c-10.87,-0.49 -19.87,-0.74 -27,-0.76 -5.63,-0.01 -15.81,0.19 -30.54,0.62l0.01 -6.19 7.36 0.02c5.63,0.01 8.97,-1.2 10.03,-3.66 1.05,-2.45 1.61,-15.37 1.66,-38.74l0.11 -47.23c0.05,-20.29 -0.53,-31.65 -1.74,-34.08 -1.21,-2.43 -5.15,-3.64 -11.83,-3.66l-5.3 -0.01 0.01 -6.19c12.18,0.49 21.47,0.74 27.89,0.76 4.32,0.01 10.54,-0.14 18.66,-0.45 9.43,-0.3 16.2,-0.45 20.33,-0.44 11.33,0.03 19.91,1.24 25.77,3.65 5.85,2.4 10.3,5.87 13.33,10.39 3.03,4.52 4.54,9.93 4.53,16.22 -0.02,9.23 -3.36,17.37 -10.02,24.43 -6.66,7.05 -16.31,11.88 -28.95,14.47z"/>
  <path class="fil2" d="M1036.6 785.31c10.15,0.49 21.34,0.74 33.58,0.77 4.91,0.01 9.66,-0.21 14.24,-0.66l0.01 -5.5c0.01,-5.76 -1.12,-11.23 -3.4,-16.4 -1.43,-3.21 -3.95,-5.88 -7.54,-8.02 -3.6,-2.14 -7.75,-3.21 -12.46,-3.22 -7.33,-0.01 -13.2,2.66 -17.6,8.01 -4.4,5.36 -6.68,13.7 -6.84,25.02zm-0.21 7.37c0.3,12.9 3.57,22.69 9.83,29.38 6.26,6.69 14.48,10.05 24.68,10.08 4.57,0.01 9.12,-0.73 13.63,-2.23 4.51,-1.49 9,-3.75 13.45,-6.75l1.66 1.48 -3.16 8.24c-5.44,3.13 -11.04,5.47 -16.81,7.03 -5.76,1.56 -11.69,2.33 -17.78,2.32 -13.29,-0.03 -24,-4.26 -32.13,-12.69 -8.13,-8.43 -12.18,-19.85 -12.15,-34.25 0.03,-11 2.34,-20.52 6.94,-28.56 3.02,-5.3 8.6,-10.19 16.73,-14.69 8.13,-4.5 16.02,-6.73 23.68,-6.72 11.59,0.03 20.76,3.46 27.52,10.28 6.76,6.83 10.12,16.36 10.1,28.6l-0.21 5.8c-4.32,1.04 -8.44,1.71 -12.36,2.03 -7,0.51 -16.7,0.75 -29.12,0.72l-24.51 -0.06z"/>
  <path class="fil2" d="M1176.43 779.36c0.02,-8.21 -2.07,-14.82 -6.25,-19.82 -4.19,-5.01 -9.46,-7.52 -15.83,-7.53 -6.3,-0.01 -11.37,2.01 -15.22,6.07 -3.85,4.07 -5.78,9.72 -5.8,16.94 -0.02,8.74 2.05,15.6 6.2,20.57 4.16,4.97 9.38,7.46 15.68,7.48 6.3,0.01 11.4,-2.06 15.32,-6.22 3.91,-4.16 5.88,-9.99 5.9,-17.48zm-26.99 62.48c-4.64,-0.01 -7.81,0.5 -9.52,1.55 -5.5,3.53 -8.84,6.37 -10.02,8.54 -1.97,3.4 -2.96,7.7 -2.98,12.88 -0.02,7.15 2.62,13.06 7.9,17.73 5.29,4.67 12.63,7.01 22.04,7.04 7.26,0.02 13.63,-1.31 19.13,-3.99 5.49,-2.68 9.77,-6.36 12.82,-11.04 3.05,-4.68 4.58,-9.52 4.6,-14.5 0.01,-4.26 -1.05,-8.01 -3.16,-11.22 -2.12,-3.22 -4.65,-5.29 -7.58,-6.22 -1.5,-0.47 -4.93,-0.7 -10.29,-0.71l-22.94 -0.06zm41.85 -77.97c1.49,4.2 2.24,7.65 2.23,10.34 -0.01,5.84 -1.8,11.46 -5.35,16.86 -3.55,5.41 -8.61,9.76 -15.16,13.05 -6.56,3.3 -13.64,4.94 -21.24,4.92l-4.62 -0.11c-4.32,3.18 -7.05,5.56 -8.19,7.12 -1.15,1.56 -1.72,3.09 -1.72,4.59 -0.01,2.47 1.27,4.43 3.81,5.87 2.55,1.44 7.75,2.17 15.61,2.19 3.01,0.01 7.33,-0.09 12.96,-0.3 8.05,-0.35 13.88,-0.52 17.48,-0.51 5.17,0.01 9.13,0.86 11.88,2.54 2.75,1.68 5.1,4.6 7.05,8.77 1.95,4.17 2.93,8.87 2.91,14.12 -0.02,7.34 -2.26,14.37 -6.73,21.08 -4.47,6.71 -10.96,12.08 -19.48,16.13 -8.52,4.04 -18.32,6.05 -29.38,6.03 -13.49,-0.03 -23.86,-2.99 -31.11,-8.87 -7.25,-5.87 -10.87,-13.1 -10.85,-21.68 0.01,-5.3 1.92,-10.67 5.73,-16.09 6.82,-3.19 12.55,-6.42 17.2,-9.68 -5.36,-1.78 -8.81,-3.4 -10.34,-4.87 -1.53,-1.47 -2.3,-3.35 -2.29,-5.64 0.01,-2.74 0.77,-5.44 2.28,-8.12 0.85,-1.63 3.02,-3.62 6.49,-5.96l9.53 -6.73c-7.85,-1.98 -13.5,-4.78 -16.95,-8.4 -4.57,-4.86 -6.85,-11.07 -6.83,-18.61 0.01,-6.62 1.73,-12.65 5.15,-18.08 3.42,-5.44 8.43,-9.71 15.05,-12.85 8.46,-3.97 16.61,-5.95 24.47,-5.94 4.98,0.01 9.34,0.68 13.1,1.99 3.76,1.32 7.6,3.56 11.52,6.71l8.25 0.02c8.51,0.02 15.12,-0.26 19.84,-0.84l1.08 2.09c-1.97,2.84 -3.71,5.8 -5.22,8.9l-18.17 -0.05z"/>
  <path class="fil2" d="M1234.73 785.78c10.15,0.48 21.34,0.74 33.58,0.77 4.91,0.01 9.66,-0.21 14.24,-0.66l0.01 -5.5c0.01,-5.76 -1.12,-11.23 -3.4,-16.4 -1.43,-3.21 -3.95,-5.88 -7.54,-8.02 -3.6,-2.14 -7.75,-3.21 -12.46,-3.22 -7.33,-0.01 -13.2,2.65 -17.6,8.01 -4.4,5.36 -6.68,13.7 -6.84,25.02zm-0.21 7.37c0.3,12.9 3.57,22.69 9.83,29.38 6.26,6.69 14.48,10.05 24.68,10.08 4.57,0.01 9.12,-0.73 13.63,-2.23 4.51,-1.49 9,-3.74 13.45,-6.74l1.66 1.48 -3.16 8.24c-5.44,3.13 -11.04,5.47 -16.81,7.03 -5.76,1.56 -11.69,2.33 -17.78,2.32 -13.29,-0.03 -24,-4.26 -32.13,-12.7 -8.13,-8.43 -12.18,-19.85 -12.15,-34.25 0.03,-11 2.34,-20.52 6.94,-28.56 3.02,-5.29 8.6,-10.19 16.73,-14.69 8.13,-4.5 16.02,-6.73 23.68,-6.72 11.59,0.03 20.76,3.46 27.52,10.28 6.76,6.83 10.12,16.36 10.1,28.6l-0.21 5.8c-4.32,1.04 -8.44,1.71 -12.36,2.03 -7,0.51 -16.7,0.75 -29.12,0.72l-24.51 -0.06z"/>
  <path class="fil2" d="M1336.98 764.71l14.88 -13.12c1.78,-1.57 3.65,-2.71 5.61,-3.42 4.33,-1.43 8.66,-2.14 12.99,-2.13 7.01,0.02 13.08,1.46 18.18,4.32 5.11,2.86 8.77,6.57 10.99,11.12 2.22,4.56 3.31,11.68 3.29,21.37l-0.47 30.93c-0.03,10.67 0.42,16.83 1.32,18.46 1.23,2.1 3.64,3.15 7.21,3.16l7.02 0.02 -0.01 5.7c-6.99,-0.48 -13.02,-0.72 -18.11,-0.73 -4.96,-0.01 -10.28,0.2 -15.96,0.65 1.27,-12.76 1.93,-30.01 1.99,-51.75 0.02,-8.77 -0.74,-14.99 -2.27,-18.66 -1.54,-3.67 -4.12,-6.62 -7.75,-8.86 -3.64,-2.23 -8.01,-3.36 -13.13,-3.37 -6.36,-0.01 -11.76,1.58 -16.2,4.78 -4.43,3.2 -7.18,6.72 -8.24,10.58 -0.66,2.55 -1,9.23 -1.03,20.03 -0.03,11.98 0.04,23.11 0.22,33.38 0.06,3.08 0.52,5.01 1.37,5.8 1.64,1.51 4.34,2.27 8.09,2.28l7.01 0.02 -0.01 5.7c-11.09,-0.48 -19.91,-0.74 -26.47,-0.75 -6.96,-0.02 -14.86,0.19 -23.71,0.64l0.01 -5.7 7.07 0.02c4.84,0.01 7.68,-1.11 8.5,-3.36 0.82,-2.25 1.27,-15.83 1.32,-40.75 0.03,-11.18 -0.08,-19.94 -0.33,-26.28 -0.13,-2.09 -0.65,-3.53 -1.56,-4.32 -0.92,-0.79 -3.5,-1.19 -7.75,-1.2l-7.07 -0.02 0.01 -5.69c5.61,-0.64 10.64,-1.51 15.08,-2.61 4.44,-1.1 9.44,-2.79 14.99,-5.07 0.59,-0.26 1.14,-0.39 1.67,-0.39 1.05,0 1.56,0.76 1.56,2.26l-0.11 3.73 -0.23 13.25z"/>
  <path class="fil2" d="M1438.05 786.26c10.14,0.49 21.34,0.74 33.58,0.77 4.91,0.01 9.66,-0.2 14.24,-0.66l0.01 -5.5c0.01,-5.76 -1.12,-11.23 -3.4,-16.4 -1.43,-3.21 -3.95,-5.89 -7.54,-8.02 -3.6,-2.14 -7.75,-3.21 -12.46,-3.22 -7.33,-0.01 -13.2,2.66 -17.6,8.01 -4.4,5.36 -6.68,13.7 -6.83,25.02zm-0.21 7.37c0.3,12.9 3.57,22.69 9.83,29.38 6.26,6.69 14.49,10.05 24.69,10.08 4.57,0.01 9.12,-0.73 13.63,-2.23 4.51,-1.49 9,-3.75 13.45,-6.75l1.66 1.48 -3.16 8.24c-5.44,3.13 -11.04,5.47 -16.81,7.03 -5.76,1.56 -11.69,2.33 -17.78,2.32 -13.29,-0.03 -24,-4.26 -32.13,-12.69 -8.13,-8.43 -12.18,-19.85 -12.15,-34.25 0.03,-11 2.34,-20.52 6.94,-28.56 3.02,-5.3 8.6,-10.19 16.73,-14.69 8.13,-4.5 16.02,-6.73 23.68,-6.72 11.58,0.03 20.76,3.46 27.52,10.27 6.76,6.83 10.12,16.36 10.09,28.6l-0.21 5.8c-4.32,1.04 -8.44,1.71 -12.36,2.03 -7,0.51 -16.7,0.75 -29.12,0.72l-24.51 -0.06z"/>
  <path class="fil2" d="M1542.06 768.73c2.63,-2.48 5.49,-5.75 8.59,-9.8 3.68,-4.77 7.11,-8.03 10.26,-9.79 3.16,-1.76 6.47,-2.64 9.95,-2.63 3.61,0.01 6.36,0.44 8.27,1.3 0.92,0.4 1.37,1.02 1.37,1.87l-0.1 0.98c-1.05,5.3 -1.66,12.73 -1.82,22.29l-4.42 -0.01c-1.5,-3.34 -3.27,-5.7 -5.32,-7.08 -2.05,-1.38 -4.52,-2.07 -7.38,-2.08 -3.85,-0.01 -7.43,1.29 -10.73,3.9 -3.3,2.61 -5.51,6.26 -6.63,10.97 -1.12,4.7 -1.7,13.95 -1.73,27.75 -0.02,9.09 0.32,16.74 1.03,22.95 0.25,2.29 0.91,3.73 1.95,4.32 2.48,1.38 6.15,2.07 10.99,2.09l5.89 0.01 -0.01 5.7c-10.01,-0.49 -19.51,-0.74 -28.47,-0.76 -8.71,-0.02 -17.32,0.19 -25.83,0.63l0.01 -5.7 9.43 -0.76c3.34,-0.25 5.45,-0.87 6.34,-1.85 0.89,-0.98 1.47,-4.15 1.74,-9.52 0.48,-9.42 0.74,-20.62 0.77,-33.58 0.03,-15.78 -0.57,-25.04 -1.8,-27.79 -0.85,-1.77 -3.53,-2.66 -8.05,-2.67l-8.25 -0.02 0.01 -5.7c6.35,-0.7 12.02,-1.63 17,-2.76 4.98,-1.13 9.4,-2.58 13.27,-4.34 0.92,-0.45 1.67,-0.68 2.26,-0.68 0.72,0 1.21,0.2 1.47,0.59 0.26,0.4 0.39,1.28 0.38,2.67l-0.44 19.52z"/>
  <path class="fil2" d="M1645.01 789.01c-18.21,3.88 -29.77,7.52 -34.69,10.94 -4.92,3.42 -7.39,8.72 -7.4,15.9 -0.01,4.83 1.39,8.71 4.2,11.62 2.81,2.91 6.44,4.37 10.89,4.38 4.91,0.01 9.61,-1.35 14.1,-4.08 4.49,-2.73 8.77,-6.8 12.85,-12.22l-0.14 -21.75 0.21 -4.8zm-51.71 -15.73l0.11 -6.58 -0.08 -6.78 10.72 -6.06c4.85,-2.74 9.09,-4.63 12.73,-5.67 3.63,-1.04 7.51,-1.55 11.64,-1.54 9.03,0.02 16.31,2.07 21.84,6.13 5.52,4.07 8.83,9.24 9.93,15.52 0.78,4.71 1.24,16.39 1.39,35.02 0.09,17.59 0.46,27.3 1.11,29.14 0.65,1.83 2.28,2.75 4.91,2.76l7.66 0.02 -0.01 6.48c-7.47,-0.48 -12.67,-0.72 -15.61,-0.73 -3.67,-0.01 -8.58,0.21 -14.73,0.66l0.12 -8.73c0.01,-2.81 -0.02,-5.66 -0.08,-8.54l-20.36 15.45c-1.84,1.37 -3.64,2.33 -5.41,2.88 -1.77,0.55 -4.23,0.82 -7.37,0.82 -8.44,-0.02 -14.89,-2.11 -19.33,-6.27 -4.44,-4.16 -6.65,-9.74 -6.64,-16.73 0.01,-6.6 1.61,-12.37 4.8,-17.29 3.19,-4.93 7.71,-8.56 13.58,-10.9 5.87,-2.34 19.47,-5.38 40.82,-9.12 -0.11,-8.32 -1.93,-14.54 -5.46,-18.67 -4.44,-5.18 -10.78,-7.79 -19.03,-7.81 -3.14,-0.01 -6.09,0.37 -8.84,1.13 -2.75,0.76 -5.3,1.91 -7.67,3.44 -1.91,4.68 -3.66,9.16 -5.24,13.44l-5.49 -1.49z"/>
  <path class="fil2" d="M1754.19 827.95l2.65 2.36 -4.04 6.28c-4.46,2.41 -9.05,4.21 -13.76,5.42 -4.72,1.2 -9.53,1.8 -14.44,1.78 -9.62,-0.02 -17.78,-1.88 -24.49,-5.56 -6.7,-3.68 -11.88,-8.99 -15.53,-15.94 -3.65,-6.94 -5.46,-15.2 -5.44,-24.76 0.02,-8.44 1.45,-15.79 4.27,-22.03 2.83,-6.25 6.79,-11.13 11.87,-14.65 5.08,-3.52 11.42,-6.98 19.03,-10.36 5.37,-2.41 11.37,-3.61 17.98,-3.59 5.04,0.01 9.38,0.43 13.01,1.26 3.63,0.83 7.54,2.3 11.72,4.41 -1.66,8.67 -2.56,17.33 -2.71,26l-6.19 -0.01 0.01 -4.91c0.01,-4.19 -0.59,-7.16 -1.79,-8.9 -1.21,-1.74 -3.97,-3.46 -8.29,-5.17 -4.32,-1.71 -9.03,-2.58 -14.13,-2.59 -8.84,-0.02 -15.66,2.66 -20.44,8.05 -4.79,5.38 -7.2,13.43 -7.23,24.16 -0.03,13.8 3.48,24.85 10.53,33.17 6.33,7.54 14.51,11.32 24.52,11.34 3.93,0.01 7.79,-0.47 11.59,-1.45 3.8,-0.97 7.57,-2.4 11.3,-4.29z"/>
  <path class="fil2" d="M1788.54 703.13c3.01,0.01 5.59,1.11 7.75,3.31 2.16,2.2 3.23,4.84 3.22,7.91 -0.01,3.08 -1.09,5.69 -3.26,7.85 -2.17,2.15 -4.75,3.23 -7.77,3.22 -3.08,-0.01 -5.69,-1.09 -7.85,-3.26 -2.15,-2.17 -3.23,-4.79 -3.22,-7.86 0.01,-3.08 1.09,-5.71 3.26,-7.9 2.16,-2.19 4.78,-3.28 7.86,-3.27zm7.75 43.52l2.35 1.48c-0.47,4.9 -0.78,10.31 -0.92,16.2 -0.5,19.11 -0.76,33.22 -0.79,42.32 -0.02,8.51 0.25,15.77 0.83,21.8 0.25,2.36 0.87,4 1.86,4.91 0.98,0.92 3.33,1.61 7.06,2.08l6.67 0.9 -0.01 5.7c-9.56,-0.48 -18.26,-0.73 -26.12,-0.75 -7.72,-0.02 -15.52,0.19 -23.37,0.63l0.01 -5.7 8.45 -0.86c3.27,-0.25 5.29,-0.86 6.04,-1.81 0.75,-0.95 1.24,-4.11 1.44,-9.5 0.35,-8.33 0.54,-19.82 0.57,-34.45 0.03,-10.18 -0.12,-18.02 -0.43,-23.54 -0.13,-2.03 -0.7,-3.48 -1.71,-4.33 -1.02,-0.86 -3.29,-1.28 -6.82,-1.29l-7.37 -0.02 0.01 -5.69c7.99,-1.15 13.87,-2.2 17.63,-3.16 3.76,-0.96 8.63,-2.6 14.59,-4.91z"/>
  <path class="fil2" d="M1854.81 739.52l-6.68 -0.02 29.13 -27.72c2.43,-2.35 4.17,-3.81 5.22,-4.36 1.05,-0.55 2.22,-0.83 3.53,-0.83 1.9,0.01 3.45,0.58 4.66,1.73 1.21,1.15 1.81,2.57 1.81,4.28 -0,1.57 -0.65,3.09 -1.93,4.56 -1.28,1.47 -4.38,3.67 -9.3,6.61l-26.45 15.74zm-16.81 48.51c-0.03,13.5 2.7,25.06 8.21,34.67 5.51,9.61 13.47,14.44 23.87,14.46 7.92,0.02 14.33,-2.98 19.22,-9 4.89,-6.02 7.35,-15.15 7.38,-27.41 0.02,-9.9 -1.4,-18.47 -4.26,-25.72 -2.87,-7.25 -6.65,-12.53 -11.35,-15.85 -4.71,-3.32 -9.97,-4.99 -15.8,-5 -5.17,-0.01 -9.84,1.29 -14.01,3.9 -4.16,2.61 -7.23,6.11 -9.2,10.5 -2.7,5.96 -4.06,12.45 -4.07,19.46zm-18.48 6.89c0.02,-9.03 2.14,-17.19 6.34,-24.49 4.2,-7.29 10.09,-12.99 17.67,-17.1 7.57,-4.11 16.17,-6.14 25.79,-6.12 13.94,0.03 25.1,4.18 33.45,12.45 8.36,8.27 12.52,19.28 12.49,33.02 -0.04,16.23 -5.53,29.12 -16.49,38.65 -9.77,8.55 -21.47,12.81 -35.08,12.78 -13.1,-0.03 -23.74,-4.45 -31.94,-13.28 -8.19,-8.82 -12.27,-20.8 -12.24,-35.92z"/>
  <path class="fil2" d="M1952.73 766.17l14.88 -13.12c1.78,-1.57 3.65,-2.71 5.61,-3.42 4.33,-1.43 8.66,-2.14 12.99,-2.13 7.01,0.02 13.08,1.45 18.18,4.32 5.11,2.86 8.77,6.57 10.99,11.12 2.22,4.56 3.31,11.68 3.29,21.37l-0.47 30.93c-0.03,10.67 0.42,16.82 1.32,18.46 1.23,2.1 3.64,3.15 7.22,3.16l7.02 0.02 -0.01 5.7c-6.98,-0.48 -13.02,-0.72 -18.11,-0.73 -4.96,-0.01 -10.28,0.2 -15.96,0.65 1.27,-12.76 1.94,-30.01 1.99,-51.75 0.02,-8.77 -0.74,-14.99 -2.27,-18.66 -1.53,-3.67 -4.11,-6.62 -7.75,-8.86 -3.63,-2.23 -8.01,-3.36 -13.13,-3.37 -6.36,-0.01 -11.76,1.58 -16.2,4.78 -4.44,3.2 -7.18,6.72 -8.24,10.58 -0.66,2.55 -1.01,9.23 -1.03,20.03 -0.03,11.98 0.05,23.11 0.22,33.38 0.06,3.08 0.51,5.01 1.37,5.8 1.64,1.51 4.34,2.27 8.09,2.28l7.01 0.02 -0.01 5.7c-11.09,-0.49 -19.91,-0.74 -26.47,-0.75 -6.95,-0.02 -14.86,0.19 -23.71,0.64l0.01 -5.7 7.07 0.02c4.84,0.01 7.68,-1.11 8.5,-3.36 0.82,-2.25 1.27,-15.83 1.32,-40.75 0.03,-11.18 -0.08,-19.94 -0.33,-26.28 -0.13,-2.09 -0.65,-3.53 -1.56,-4.32 -0.92,-0.78 -3.5,-1.18 -7.76,-1.19l-7.07 -0.02 0.01 -5.69c5.61,-0.64 10.64,-1.51 15.09,-2.62 4.44,-1.1 9.44,-2.79 14.99,-5.07 0.59,-0.26 1.15,-0.39 1.67,-0.39 1.05,0 1.56,0.75 1.56,2.26l-0.11 3.73 -0.23 13.26z"/>
 </g>
</svg>
