<?xml version="1.0" encoding="UTF-8"?>
<!DOCTYPE svg PUBLIC "-//W3C//DTD SVG 1.1//EN" "http://www.w3.org/Graphics/SVG/1.1/DTD/svg11.dtd">
<!-- Creator: CorelDRAW -->
<svg xmlns="http://www.w3.org/2000/svg" xml:space="preserve" width="20.2754mm" height="21.7672mm" version="1.1" style="shape-rendering:geometricPrecision; text-rendering:geometricPrecision; image-rendering:optimizeQuality; fill-rule:evenodd; clip-rule:evenodd"
viewBox="0 0 11 11.81"
 xmlns:xlink="http://www.w3.org/1999/xlink"
 xmlns:xodm="http://www.corel.com/coreldraw/odm/2003">
 <defs>
  <style type="text/css">
   <![CDATA[
    .fil0 {fill:white}
   ]]>
  </style>
 </defs>
 <g id="Capa_x0020_1">
  <metadata id="CorelCorpID_0Corel-Layer"/>
  <path class="fil0" d="M2.28 0.02c-0.38,0.09 -0.61,0.4 -0.94,0.65 -0.96,0.73 -1.48,2.08 -1.31,3.43 0.22,1.75 1.26,3.19 2.13,4.25 1.59,1.95 4.45,4.49 7.27,3.03 0.43,-0.22 0.59,-0.4 0.92,-0.69 0.29,-0.26 0.67,-0.51 0.65,-0.94 -0.02,-0.59 -1.02,-1.38 -1.46,-1.72 -0.25,-0.2 -0.7,-0.49 -1.13,-0.49 -0.5,-0 -0.82,0.33 -1.05,0.55l-0.4 0.38c-0.83,0.84 -2.08,-0.44 -2.51,-0.92 -0.55,-0.61 -2,-2.18 -1.47,-3.07 0.12,-0.2 0.24,-0.27 0.41,-0.39 0.17,-0.12 0.28,-0.24 0.44,-0.36 0.81,-0.65 0.63,-1.36 0.11,-2.19 -0.3,-0.48 -0.93,-1.68 -1.65,-1.52z"/>
 </g>
</svg>
